<?xml version="1.0" standalone="no"?>
<!DOCTYPE svg PUBLIC "-//W3C//DTD SVG 1.1//EN" "http://www.w3.org/Graphics/SVG/1.1/DTD/svg11.dtd" >
<svg xmlns="http://www.w3.org/2000/svg" xmlns:xlink="http://www.w3.org/1999/xlink" version="1.1">
<metadata></metadata>
<defs>
<font id="fontin_sans_rgitalic" horiz-adv-x="470" >
<font-face units-per-em="1000" ascent="756" descent="-244" />
<missing-glyph horiz-adv-x="250" />
<glyph unicode="ff" horiz-adv-x="604" d="M502 424l-65 -435q-15 -104 -69.5 -167t-136.5 -64l-23 69q58 0 95.5 42t49.5 120l65 435h-218l-65 -435q-15 -104 -69.5 -167t-136.5 -64l-23 69q58 0 95.5 42t49.5 120l65 435h-63l11 68h62l10 63q10 66 49.5 112.5t90 66.5t106.5 20q77 0 133 -32q42 32 101 32 q57 0 109 -34l-45 -69q-28 24 -67 24q-31 0 -56 -24t-31 -68l-14 -91h140l-41 -68h-109zM210 492h218l11 73q7 51 24 87q-40 29 -85 29q-71 0 -110 -33.5t-47 -84.5z" />
<glyph unicode="fi" horiz-adv-x="563" d="M210 492h217l99 11l-84 -428l-4 -75h-94l78 400l1 24h-223l-65 -435q-15 -104 -69.5 -167t-136.5 -64l-23 69q58 0 95.5 42t49.5 120l65 435h-63l11 68h62l10 63q10 66 49.5 112.5t90 66.5t106.5 20q55 0 98.5 -16t59.5 -32l16 -16l-49 -79q-6 8 -16.5 19.5t-44.5 31 t-68 19.5q-71 0 -110 -33.5t-47 -84.5z" />
<glyph unicode="fl" horiz-adv-x="556" d="M306 424h-106l-65 -435q-15 -104 -69.5 -167t-136.5 -64l-23 69q58 0 95.5 42t49.5 120l65 435h-63l11 68h62l10 63q10 66 49 112.5t88.5 66.5t105.5 20q21 0 47.5 -6t70 -19.5t68.5 -20.5l-125 -633l-5 -75h-93l127 651q-52 30 -94 30q-71 0 -110 -33.5t-46 -84.5 l-11 -71h140z" />
<glyph unicode="ffi" horiz-adv-x="865" d="M512 492h217l99 11l-84 -428l-4 -75h-94l78 400l1 24h-223l-65 -435q-15 -104 -69.5 -167t-136.5 -64l-23 69q58 0 95.5 42t49.5 120l65 435h-218l-65 -435q-15 -104 -69.5 -167t-136.5 -64l-23 69q58 0 95.5 42t49.5 120l65 435h-63l11 68h62l10 63q10 66 49.5 112.5 t90 66.5t106.5 20q92 0 152 -44q65 44 150 44q55 0 98.5 -16t59.5 -32l16 -16l-49 -79q-6 8 -16.5 19.5t-44.5 31t-68 19.5q-71 0 -110 -33.5t-47 -84.5zM210 492h218l10 63q7 49 33 91q-43 35 -93 35q-71 0 -110 -33.5t-47 -84.5z" />
<glyph unicode="ffl" horiz-adv-x="858" d="M608 424h-106l-65 -435q-15 -104 -69.5 -167t-136.5 -64l-23 69q58 0 95.5 42t49.5 120l65 435h-218l-65 -435q-15 -104 -69.5 -167t-136.5 -64l-23 69q58 0 95.5 42t49.5 120l65 435h-63l11 68h62l10 63q10 66 49.5 112.5t90 66.5t106.5 20q93 0 151 -44q65 44 148 44 q21 0 47.5 -6t70 -19.5t68.5 -20.5l-125 -633l-5 -75h-93l127 651q-52 30 -94 30q-71 0 -110 -33.5t-46 -84.5l-11 -71h140zM210 492h218l10 63q7 49 33 91q-45 35 -93 35q-71 0 -110 -33.5t-47 -84.5z" />
<glyph unicode="fj" horiz-adv-x="567" d="M210 492h219l99 11l-100 -514q-20 -107 -73.5 -169t-136.5 -63l-21 75q117 0 147 157l80 411q0 11 1 24h-225l-65 -435q-15 -104 -69.5 -167t-136.5 -64l-23 69q58 0 95.5 42t49.5 120l65 435h-63l11 68h62l10 63q10 66 49.5 112.5t90 66.5t106.5 20q55 0 98.5 -16 t59.5 -32l16 -16l-49 -79q-6 8 -16.5 19.5t-44.5 31t-68 19.5q-71 0 -110 -33.5t-47 -84.5z" />
<glyph unicode=" "  horiz-adv-x="250" />
<glyph unicode="&#x09;" horiz-adv-x="250" />
<glyph unicode="&#xa0;" horiz-adv-x="250" />
<glyph unicode="!" horiz-adv-x="269" d="M171 50q0 -26 -18 -44.5t-44 -18.5t-44 18.5t-18 44.5q0 25 18.5 43t43.5 18t43.5 -18t18.5 -43zM290 756l-130 -578l-64 8l75 468l5 90z" />
<glyph unicode="&#x22;" horiz-adv-x="375" d="M129 543l4 112l93 16l-48 -244l-73 -1zM289 543l4 112l93 16l-48 -244l-73 -1z" />
<glyph unicode="#" horiz-adv-x="704" d="M603 184h-148l-54 -184h-77l54 184h-146l-54 -184h-77l54 184h-145l13 64h152l56 186h-144l12 64h151l48 160h76l-48 -160h146l48 160h77l-48 -160h150l-20 -64h-148l-56 -186h149zM398 248l56 186h-146l-56 -186h146z" />
<glyph unicode="$" horiz-adv-x="452" d="M345 756l-17 -88q73 -8 124 -43l-40 -78q-33 37 -99 46l-41 -213q39 -28 61 -47.5t43 -59t21 -86.5q0 -83 -58 -138.5t-143 -60.5l-15 -82h-51l16 83q-40 4 -73.5 17t-46.5 24l-14 11l18 78q17 -21 54.5 -36.5t75.5 -19.5l45 231q-29 21 -45.5 35.5t-37 38.5t-30.5 52 t-10 62q0 77 58 129t137 58l17 87h51zM304 168q0 46 -55 92l-38 -194q38 10 65.5 38t27.5 64zM174 501q0 -45 54 -89l34 180q-38 -7 -63 -31.5t-25 -59.5z" />
<glyph unicode="%" horiz-adv-x="798" d="M381 507q0 -61 -46 -105.5t-107 -44.5q-60 0 -105 44.5t-45 105.5t45 105.5t105 44.5q61 0 107 -44.5t46 -105.5zM322 509q0 36 -28.5 63t-64.5 27q-38 0 -65 -26.5t-27 -63.5q0 -36 27 -66.5t65 -30.5q42 0 67.5 30t25.5 67zM756 137q0 -61 -46 -105.5t-107 -44.5 q-60 0 -105 44.5t-45 105.5t45 105.5t105 44.5q61 0 107 -44.5t46 -105.5zM697 139q0 36 -28.5 63t-64.5 27q-38 0 -65 -26.5t-27 -63.5q0 -36 27 -66.5t65 -30.5q42 0 67.5 30t25.5 67zM733 647l-564 -647h-84l587 674z" />
<glyph unicode="&#x26;" horiz-adv-x="704" d="M394 310l36 73q91 5 151 34.5t91 62.5l20 -79q-42 -33 -79 -51q2 -23 2 -35q0 -147 -92 -237.5t-223 -90.5q-59 0 -112 23t-90 76t-37 127q0 73 38.5 138t109.5 97q-36 50 -36 114q0 78 72.5 135.5t175.5 57.5q37 0 76.5 -11t60.5 -22l21 -11l-30 -79q0 2 -18 13.5 t-51 23.5t-63 12q-59 0 -104 -38.5t-45 -90.5q0 -24 10 -53.5t20 -46.5l11 -18l-2 -8q-67 -28 -108.5 -86t-41.5 -121q0 -75 46 -115.5t109 -40.5q85 0 150 70t65 168l-3 19q-71 -17 -130 -10z" />
<glyph unicode="'" horiz-adv-x="215" d="M129 543l4 112l93 16l-48 -244l-73 -1z" />
<glyph unicode="(" horiz-adv-x="318" d="M324 679l61 -21q-109 -86 -180.5 -252t-71.5 -325q0 -81 13.5 -152t27.5 -104.5t24 -38.5l-64 -21q-86 114 -86 314q0 178 75 346t201 254z" />
<glyph unicode=")" horiz-adv-x="308" d="M-24 -235l-61 21q109 86 180.5 252t71.5 325q0 81 -13.5 152t-27.5 104.5t-24 38.5l64 21q86 -114 86 -314q0 -178 -75 -346t-201 -254z" />
<glyph unicode="*" horiz-adv-x="402" d="M22 549l30 62h113l-71 124l68 5l57 -99l72 125l38 -57l-57 -98h144l-30 -62h-114l72 -124l-68 -5l-57 98l-72 -124l-38 57l56 98h-143z" />
<glyph unicode="+" horiz-adv-x="471" d="M199 70v146h-143v74h143v150l74 -20v-130h149l-20 -74h-129v-146h-74z" />
<glyph unicode="," horiz-adv-x="250" d="M23 -139l-28 35q24 21 49.5 58.5t25.5 62.5q0 28 -21 33q0 27 18.5 45t45.5 18q22 0 36.5 -17.5t14.5 -43.5q0 -45 -40 -98.5t-101 -92.5z" />
<glyph unicode="-" horiz-adv-x="302" d="M39 284h251l-20 -74h-231v74z" />
<glyph unicode="." horiz-adv-x="237" d="M164 50q0 -26 -18 -44.5t-44 -18.5t-44 18.5t-18 44.5q0 25 18.5 43t43.5 18t43.5 -18t18.5 -43z" />
<glyph unicode="/" horiz-adv-x="356" d="M356 657l-286 -901h-74l283 901h77z" />
<glyph unicode="0" d="M298 588q81 0 119.5 -53t38.5 -135q0 -80 -14 -151.5t-43 -131.5t-79 -95t-116 -35t-112.5 47t-46.5 139q0 109 28.5 202t87.5 153t137 60zM293 522q-44 0 -78 -39.5t-51 -99t-25.5 -115t-8.5 -100.5q0 -54 22 -85.5t62 -31.5q43 0 75.5 37.5t49.5 94.5t25 111t8 99 q0 129 -79 129z" />
<glyph unicode="1" horiz-adv-x="370" d="M21 0l12 66h95l76 423l-102 -32l-12 61l217 71l-95 -523h115l-21 -66h-285z" />
<glyph unicode="2" d="M353 0h-324v45q1 1 22 20t38.5 35.5t46.5 46t52.5 55.5t49 59t43 62t29 60t11.5 57q0 33 -19 55t-56 22q-11 0 -23.5 -2t-24 -4.5t-23 -6.5t-20.5 -7.5t-16 -6t-11 -4.5l-4 -2l-19 72l23 8q22 7 60.5 15.5t69.5 8.5q70 0 112 -38t42 -105q0 -44 -26.5 -98t-64 -99.5 t-75.5 -85t-64 -62.5l-27 -22h222z" />
<glyph unicode="3" d="M13 -31q15 -1 19 -1q40 0 83 10.5t84.5 32.5t68.5 61.5t27 90.5q0 25 -11 43.5t-30.5 29t-38.5 15.5t-43 9l23 59q128 59 128 131q0 37 -21 53.5t-52 16.5q-9 0 -19.5 -1.5t-19.5 -3.5t-18 -4.5t-17 -6t-15 -6.5t-12.5 -5.5t-9.5 -4.5t-6 -4l-2 -1l-20 70l2 1q2 1 7 3 t11.5 5t15 6t18.5 5.5t21.5 5.5t23.5 5t25 3t26 1q61 0 104.5 -32t43.5 -91q0 -49 -35.5 -92.5t-96.5 -63.5q45 -6 76 -38.5t31 -98.5q0 -82 -52.5 -146.5t-127.5 -95.5t-153 -31q-17 0 -31 2z" />
<glyph unicode="4" d="M3 139l336 451l71 -22l-71 -405h105l-35 -78h-85l-19 -110l-3 -75h-94l32 185h-237v54zM257 163l45 252l15 58l-39 -70l-149 -215l-22 -25h150z" />
<glyph unicode="5" d="M435 575l-33 -78h-177l-28 -131h2q82 -6 127 -55t45 -121q0 -126 -88.5 -208.5t-221.5 -82.5q-16 0 -24 1l-8 68q43 0 84 10.5t80 32.5t63 65t24 101q0 57 -36 90.5t-96 33.5l-42 -2l59 276h270z" />
<glyph unicode="6" d="M221 58q56 0 89.5 56t33.5 119q0 58 -26.5 88t-67.5 30q-24 0 -52 -10.5t-44 -21.5l-15 -11q-8 -48 -8 -88q0 -162 90 -162zM466 575q-48 22 -91 22q-75 0 -131 -61.5t-88 -158.5q59 44 130 44q61 0 102.5 -44t41.5 -128q0 -113 -63 -187.5t-166 -74.5q-76 0 -114.5 65 t-38.5 162q0 78 24 158t66 147t105.5 109.5t136.5 42.5q58 0 117 -26z" />
<glyph unicode="7" d="M97 -111l-77 15l354 593h-274l-15 78h402l11 -23z" />
<glyph unicode="8" d="M197 -13q-72 0 -117.5 40t-45.5 102q0 30 9.5 57t22.5 46.5t37.5 42t43.5 36.5t50 35q-85 83 -85 156q0 77 53.5 121.5t124.5 44.5q69 0 107.5 -36.5t38.5 -85.5q0 -56 -39.5 -104t-90.5 -83q96 -90 96 -174q0 -86 -62.5 -142t-142.5 -56zM234 309q-120 -84 -120 -160 q0 -39 27 -64.5t70 -25.5q47 0 78 33t31 70q0 29 -15.5 58.5t-30 46.5t-40.5 42zM266 397q91 64 91 133q0 33 -21.5 55.5t-58.5 22.5q-39 0 -61 -26t-22 -57q0 -58 72 -128z" />
<glyph unicode="9" d="M269 516q-56 0 -89.5 -56t-33.5 -119q0 -58 26.5 -88t67.5 -30q24 0 52 10.5t44 21.5l15 11q8 48 8 88q0 162 -90 162zM24 -17q44 -22 89 -22q144 0 221 236q-59 -44 -130 -44q-61 0 -102.5 44t-41.5 128q0 113 63 187.5t166 74.5q76 0 114.5 -65t38.5 -162 q0 -79 -22.5 -161t-63 -152.5t-106 -115.5t-142.5 -45q-58 0 -115 27z" />
<glyph unicode=":" horiz-adv-x="258" d="M164 50q0 -26 -18 -44.5t-44 -18.5t-44 18.5t-18 44.5q0 25 18.5 43t43.5 18t43.5 -18t18.5 -43zM214 326q0 -26 -18 -44.5t-44 -18.5t-44 18.5t-18 44.5q0 25 18.5 43t43.5 18t43.5 -18t18.5 -43z" />
<glyph unicode=";" horiz-adv-x="258" d="M221 326q0 -26 -18 -44.5t-44 -18.5t-44 18.5t-18 44.5q0 25 18.5 43t43.5 18t43.5 -18t18.5 -43zM8 -136l-22 42q33 21 61.5 52.5t28.5 56.5q0 19 -23 33q6 27 24 45t44 18q23 0 39.5 -15.5t16.5 -38.5q0 -48 -45 -102t-124 -91z" />
<glyph unicode="&#x3c;" horiz-adv-x="369" d="M324 413l-174 -167l174 -165l-40 -65l-245 231l245 231z" />
<glyph unicode="=" horiz-adv-x="480" d="M56 203h360l-20 -74h-340v74zM56 368h370l-20 -74h-350v74z" />
<glyph unicode="&#x3e;" horiz-adv-x="369" d="M213 246l-174 167l40 65l245 -231l-245 -231l-40 65z" />
<glyph unicode="?" horiz-adv-x="411" d="M163 164l-72 31q0 1 -0.5 4.5t-0.5 5.5q0 39 26 81.5t62.5 80l73 75t62.5 79.5t26 80q0 32 -26.5 51.5t-59.5 19.5q-21 0 -48 -11t-43 -21.5t-17 -12.5l-21 83q0 3 22 13t58 20t65 10q67 0 117 -39.5t50 -105.5q0 -45 -28.5 -93.5t-69 -90.5t-81 -82t-69 -82t-28.5 -77 q0 -13 2 -19zM189 50q0 -26 -18 -44.5t-44 -18.5t-44 18.5t-18 44.5q0 25 18.5 43t43.5 18t43.5 -18t18.5 -43z" />
<glyph unicode="@" horiz-adv-x="902" d="M631 416q-54 -298 -54 -325q0 -38 11 -49q92 38 142.5 110t50.5 162q0 115 -72 198t-205 83q-102 0 -191 -63.5t-139 -159t-50 -194.5q0 -56 13.5 -104t43.5 -91.5t85.5 -72.5t131.5 -39l-59 -64q-77 14 -135.5 50t-92.5 86.5t-50.5 106.5t-16.5 116q0 89 34 176.5 t94 157.5t150.5 114t193.5 44q107 0 186.5 -49.5t117 -124.5t37.5 -161q0 -141 -96 -238.5t-231 -121.5q-15 12 -28 49t-11 56q-1 0 -9 -8t-21 -19t-30 -22.5t-39.5 -19.5t-44.5 -8q-53 0 -85 42t-32 111q0 89 45.5 172t126.5 136.5t175 53.5q36 0 81 -15zM490 117l61 321 q-92 0 -160.5 -85.5t-68.5 -182.5q0 -42 19.5 -70t53.5 -28q42 0 95 45z" />
<glyph unicode="A" horiz-adv-x="549" d="M-62 0l381 659l63 12l95 -561l28 -110h-101l-28 172h-249l-98 -172h-91zM298 474l-129 -226h194l-39 226l-4 45z" />
<glyph unicode="B" horiz-adv-x="536" d="M202 319l-48 -247h63q82 0 123.5 43t41.5 107q0 97 -133 97h-47zM494 528q0 -54 -33.5 -95t-75.5 -65q41 -17 66.5 -54t25.5 -89q0 -102 -76 -163.5t-210 -61.5h-141l110 566l4 92l154 6q88 4 132 -35.5t44 -100.5zM216 392h49q18 0 37 -2t29 -4l10 -2q26 26 45.5 64 t19.5 68q0 33 -24.5 56.5t-75.5 20.5l-51 -3z" />
<glyph unicode="C" horiz-adv-x="605" d="M615 606l-55 -63q-7 6 -19 15t-51 23.5t-79 14.5q-104 0 -182 -98t-78 -234q0 -83 46.5 -142.5t132.5 -59.5q100 0 195 98l6 -93q-101 -80 -223 -80q-111 0 -180 75.5t-69 191.5q0 178 100.5 297.5t259.5 119.5q55 0 104 -16.5t71 -32.5z" />
<glyph unicode="D" horiz-adv-x="658" d="M164 658h246q92 0 151 -71.5t59 -183.5q0 -107 -43 -198.5t-125.5 -148t-188.5 -56.5h-213l110 566zM378 586h-125l-99 -514h122q98 0 174 95.5t76 223.5q0 76 -40.5 135.5t-107.5 59.5z" />
<glyph unicode="E" horiz-adv-x="497" d="M50 0l110 566l4 92h323l-13 -72h-220l-42 -214h203l-34 -72h-183l-43 -228h242l-35 -72h-312z" />
<glyph unicode="F" horiz-adv-x="477" d="M160 566l4 92h323l-13 -72h-220l-42 -214h203l-34 -72h-183q-7 -38 -22 -113t-22 -112l-4 -75h-100z" />
<glyph unicode="G" horiz-adv-x="650" d="M613 605l-55 -63q-7 6 -19 15t-51 24t-79 15q-104 0 -180.5 -98t-76.5 -234q0 -83 45 -142.5t131 -59.5q39 0 106 21l33 168l-5 74h108l-57 -305q-5 0 -83.5 -16.5t-123.5 -16.5q-111 0 -179 75.5t-68 191.5q0 178 99.5 297.5t258.5 119.5q56 0 105 -16.5t70 -32.5z" />
<glyph unicode="H" horiz-adv-x="720" d="M692 658l-113 -583l-4 -75h-100l58 300h-335l-44 -225l-4 -75h-100l110 566l4 92h103l-54 -278h335l37 186l4 92h103z" />
<glyph unicode="I" horiz-adv-x="295" d="M267 658l-113 -583l-4 -75h-100l110 566l4 92h103z" />
<glyph unicode="J" horiz-adv-x="317" d="M278 658l-121 -620q-20 -100 -82.5 -168.5t-158.5 -68.5q-24 0 -53 6l22 83q18 -6 39 -6q51 0 90.5 44t52.5 110l103 528l5 92h103z" />
<glyph unicode="K" horiz-adv-x="559" d="M500 0h-105l-190 333l-51 -258l-4 -75h-100l110 566l5 92h103l-61 -313l237 248l42 65h134l-317 -317z" />
<glyph unicode="L" horiz-adv-x="426" d="M50 0l110 566l4 92h103l-112 -582h254l-35 -76h-324z" />
<glyph unicode="M" horiz-adv-x="867" d="M402 74l-161 319l-20 66l-75 -384l-4 -75h-92l110 566l4 92h59l207 -426l341 426h68l-113 -583l-4 -75h-100l90 463l-49 -70z" />
<glyph unicode="N" horiz-adv-x="734" d="M714 658l-112 -583l-8 -75h-37l-299 423l-34 62l-77 -410l-4 -75h-93l109 566l-9 92h66l290 -417l33 -67l75 392l4 92h96z" />
<glyph unicode="O" horiz-adv-x="649" d="M377 597q-38 0 -78.5 -22.5t-76 -63.5t-58.5 -108.5t-23 -147.5q0 -86 41.5 -141.5t108.5 -55.5q65 0 121 52.5t86 129.5t30 155q0 88 -40 145t-111 57zM48 243q0 177 92.5 302t246.5 125q63 0 111 -25.5t73.5 -66t37.5 -82t12 -82.5q0 -186 -97 -306.5t-246 -120.5 q-108 0 -169 73.5t-61 182.5z" />
<glyph unicode="P" horiz-adv-x="515" d="M155 658h181q82 0 130.5 -39.5t48.5 -109.5q0 -115 -76 -189t-204 -74h-57l-33 -171l-4 -75h-100l110 566zM245 584l-52 -264h56q81 0 125.5 49.5t44.5 128.5q0 86 -104 86h-70z" />
<glyph unicode="Q" horiz-adv-x="667" d="M53 243q0 177 92.5 302t246.5 125q63 0 111 -25.5t73.5 -66t37.5 -82t12 -82.5q0 -179 -89.5 -297.5t-230.5 -128.5q15 -7 62.5 -36t84.5 -43t76 -14q34 0 74 12.5t57 31.5v-87q-19 -18 -57.5 -28t-72.5 -10q-25 0 -60.5 12.5t-59 24t-77 41t-72.5 39.5l-20 59v1 q-90 14 -139 84.5t-49 167.5zM382 597q-84 0 -159.5 -93.5t-75.5 -248.5q0 -86 41 -141.5t108 -55.5q65 0 121 52.5t86 129.5t30 155q0 88 -40 145t-111 57z" />
<glyph unicode="R" horiz-adv-x="544" d="M150 658h186q76 0 125 -45.5t49 -122.5q0 -83 -48.5 -145t-129.5 -82l167 -263h-110l-145 247l-71 -1l-33 -171l-4 -75h-100l110 566zM240 584l-52 -264h56q81 0 125.5 45.5t44.5 120.5q0 50 -25 74t-79 24h-70z" />
<glyph unicode="S" horiz-adv-x="452" d="M448 641l-40 -73q-59 29 -119 29q-47 0 -79.5 -27.5t-32.5 -68.5q0 -34 22.5 -65t55 -55.5t65 -50.5t55 -63.5t22.5 -82.5q0 -87 -63 -142t-153 -55q-50 0 -92 11t-59 22l-18 11l18 76l4 -3q3 -2 11 -6.5t18 -9t23.5 -9.5t27.5 -9t30 -6.5t31 -2.5q47 0 87.5 27.5 t40.5 79.5q0 35 -23 66t-55.5 55.5t-64.5 50.5t-55 62.5t-23 79.5q0 82 65 135t148 53q40 0 78 -7t57 -15z" />
<glyph unicode="T" horiz-adv-x="495" d="M55 582l15 76h479l-15 -76h-189l-98 -507l-4 -75h-100l112 582h-200z" />
<glyph unicode="U" horiz-adv-x="663" d="M560 658h94l-77 -395q-24 -124 -95.5 -200t-181.5 -76q-65 0 -110.5 19.5t-68 49.5t-31.5 74t-7 84t11 89l48 263l5 92h104l-66 -358q-46 -240 121 -240q71 0 121.5 55.5t66.5 136.5l61 314z" />
<glyph unicode="V" horiz-adv-x="582" d="M641 658l-389 -671l-58 13l-93 548l-36 110h113l71 -440l5 -84l42 84l252 440h93z" />
<glyph unicode="W" horiz-adv-x="882" d="M950 658l-362 -671l-60 13l-62 360l-216 -373l-53 13l-93 548l-36 110h113l71 -440l5 -84l42 84l148 258l-12 72l-36 110h113l71 -440l5 -84l42 84l227 440h93z" />
<glyph unicode="X" horiz-adv-x="506" d="M571 657l-246 -325l123 -332h-100l-81 224l-11 36l-26 -41l-163 -219h-97l257 338l-90 249l-49 71h120l77 -210l11 -34l23 36l154 207h98z" />
<glyph unicode="Y" horiz-adv-x="508" d="M294 297l-43 -222l-4 -75h-100l56 290l-97 297l-39 71h109l82 -247l7 -40l27 42l176 245h95z" />
<glyph unicode="Z" horiz-adv-x="544" d="M-25 0v25l408 502l52 54h-339l36 77h452v-25l-409 -503l-51 -54h374l-14 -76h-509z" />
<glyph unicode="[" horiz-adv-x="288" d="M338 724l-12 -62h-81l-130 -668h81l-13 -63h-160l154 793h161z" />
<glyph unicode="\" horiz-adv-x="356" d="M288 -244l-283 901h76l275 -901h-68z" />
<glyph unicode="]" horiz-adv-x="278" d="M122 662l12 62h161l-155 -793h-160l13 63h80l130 668h-81z" />
<glyph unicode="^" horiz-adv-x="624" d="M551 320h-70l-170 307q-62 -113 -170 -307h-70q50 88 103 185t81 150l28 53h56q198 -364 212 -388z" />
<glyph unicode="_" horiz-adv-x="450" d="M418 -75l-30 -60h-446v60h476z" />
<glyph unicode="`" horiz-adv-x="338" d="M43 724h110l111 -143l-57 -20z" />
<glyph unicode="a" horiz-adv-x="507" d="M318 161l53 275q-50 8 -65 8q-66 0 -123 -86t-57 -197q0 -38 14.5 -68.5t43.5 -30.5q13 0 31.5 10t36 25t32.5 29.5t24 24.5zM308 62l2 21q-3 -4 -8 -10.5t-22 -23t-34.5 -29t-42 -23t-48.5 -10.5q-49 0 -83 42t-34 117q0 90 32 172t93 134.5t136 52.5q42 0 100.5 -6.5 t66.5 -6.5l-65 -338q-12 -53 -6.5 -87.5t34.5 -66.5l-89 -13q-32 25 -32 75z" />
<glyph unicode="b" horiz-adv-x="521" d="M174 745l101 11l-68 -340q3 4 8.5 10t22.5 21t35 27t44.5 21.5t51.5 9.5q48 0 80.5 -42t32.5 -117q0 -91 -27.5 -170.5t-88.5 -134t-144 -54.5q-39 0 -70.5 9.5t-62.5 27t-35 19.5l117 610zM192 331l-48 -255q33 -24 84 -24q70 0 118 87.5t48 192.5q0 49 -18.5 73.5 t-44.5 24.5t-60.5 -25t-56.5 -49z" />
<glyph unicode="c" horiz-adv-x="445" d="M432 483l-32 -72q1 1 -16.5 7.5t-45 13t-46.5 6.5q-75 0 -120.5 -70t-45.5 -152q0 -67 28.5 -111t90.5 -44q24 0 48 8t41 19.5t30.5 23.5t20.5 20l7 8v-87q-6 -7 -18 -18t-54 -29.5t-89 -18.5q-95 0 -144 58.5t-49 147.5q0 144 73.5 229t179.5 85q30 0 65 -6t56 -12z" />
<glyph unicode="d" horiz-adv-x="519" d="M333 164l53 273q-47 6 -80 6q-54 0 -97 -50t-62 -112.5t-19 -117.5q0 -49 18 -75.5t43 -26.5q15 0 35.5 10.5t38.5 26t34 30.5t26 26zM533 756l-117 -602q-12 -52 -7 -87.5t33 -66.5l-89 -13q-32 25 -32 75l3 24q-3 -4 -9 -10.5t-25 -24t-37.5 -30.5t-44.5 -23.5 t-50 -10.5q-49 0 -83.5 43.5t-34.5 118.5q0 144 73 250t200 106l86 -6l33 154v92z" />
<glyph unicode="e" horiz-adv-x="449" d="M423 398q0 -63 -44 -107t-108 -63t-139 -19v-10q0 -59 28.5 -97t87.5 -38q36 0 73.5 19t56.5 38l20 19v-87q-2 -3 -6 -7.5t-19.5 -15.5t-33.5 -20t-48 -16t-64 -7q-88 0 -135.5 59t-47.5 147q0 127 70 220.5t179 93.5q64 0 97 -30t33 -79zM280 442q-54 0 -91.5 -51 t-50.5 -124q18 1 42 5t62.5 15t64 37.5t25.5 63.5q0 54 -52 54z" />
<glyph unicode="f" horiz-adv-x="302" d="M200 424l-65 -435q-15 -104 -69.5 -167t-136.5 -64l-23 69q58 0 95.5 42t49.5 120l65 435h-63l11 68h62l11 73q15 101 63.5 145t113.5 44q57 0 109 -34l-45 -69q-28 24 -67 24q-31 0 -56 -24t-31 -68l-14 -91h140l-41 -68h-109z" />
<glyph unicode="g" horiz-adv-x="490" d="M313 505q36 0 72 -3.5t54 -6.5l18 -3l-63 -322q-9 -47 -9 -97q0 -37 2 -85.5t2 -54.5q0 -79 -66 -127.5t-156 -48.5q-45 0 -83.5 11t-61 26.5t-38.5 31t-22 26.5l-6 11l65 42l6 -9t18 -20.5t30 -25.5t43 -20t57 -9q55 0 93 33t38 88q0 13 -4 62t-1 73q-13 -24 -54.5 -57 t-93.5 -33q-47 0 -77.5 43t-30.5 119q0 69 16.5 131.5t48 113.5t84.5 81t119 30zM304 444q-67 0 -119 -89t-52 -192q0 -49 16.5 -73.5t41.5 -24.5q19 0 48.5 23t49.5 45.5t20 25.5l54 279l-9 2q-8 1 -22.5 2.5t-27.5 1.5z" />
<glyph unicode="h" horiz-adv-x="537" d="M421 0h-93l61 325q20 99 -33 99q-31 0 -72.5 -23t-67.5 -47l-27 -23l-49 -256l-6 -75h-92l126 648l3 96l102 11l-61 -300l-15 -49q4 4 11.5 11t29.5 24t44 30t52 24t55 11q61 0 82.5 -41.5t9.5 -106.5l-55 -285z" />
<glyph unicode="i" horiz-adv-x="261" d="M141 641q0 21 15 36.5t37 15.5q20 0 35.5 -15.5t15.5 -36.5t-15.5 -37.5t-35.5 -16.5q-21 0 -36.5 16.5t-15.5 37.5zM224 503l-84 -428l-4 -75h-94l78 400l5 92z" />
<glyph unicode="j" horiz-adv-x="265" d="M149 641q0 21 15 36.5t37 15.5q20 0 35.5 -15.5t15.5 -36.5t-15.5 -37.5t-35.5 -16.5q-21 0 -36.5 16.5t-15.5 37.5zM226 503l-100 -514q-20 -107 -73.5 -169t-136.5 -63l-21 75q117 0 147 157l80 411q4 64 5 92z" />
<glyph unicode="k" horiz-adv-x="480" d="M451 11l-92 -21l-183 280l-37 -195l-5 -75h-94l127 652v92l104 11l-91 -463l124 71q60 35 60 59q0 8 -7.5 16t-14.5 12l-8 4l76 49q5 -2 12.5 -7t20.5 -23.5t13 -41.5q0 -36 -19.5 -62t-64.5 -49l-99 -51z" />
<glyph unicode="l" horiz-adv-x="254" d="M271 755l-133 -680l-5 -75h-93l127 652l5 92z" />
<glyph unicode="m" horiz-adv-x="829" d="M421 0h-93l61 325q20 99 -33 99q-31 0 -72.5 -23t-67.5 -47l-27 -23l-49 -256l-6 -75h-92l78 400l-7 82l99 21l-12 -97l11 11t29 24t43.5 30t51 24t54.5 11q94 0 96 -102l9.5 9.5t15 14.5t19 16.5t23.5 18t26.5 16t30.5 14t33.5 9.5t36.5 4q61 0 82 -41t10 -107l-55 -285 l-5 -73h-93l61 325q20 99 -33 99q-13 0 -27.5 -3.5t-27 -9t-26.5 -14t-24 -15.5t-22.5 -17t-18.5 -15.5t-16 -13.5l-9 -9l-49 -254z" />
<glyph unicode="n" horiz-adv-x="541" d="M421 0h-93l61 325q20 99 -33 99q-31 0 -72.5 -23t-67.5 -47l-27 -23l-49 -256l-6 -75h-92l78 400l-7 82l99 21l-15 -97q4 4 11.5 11t29.5 24t44 30t52 24t55 11q61 0 82 -41t10 -107l-55 -285z" />
<glyph unicode="o" horiz-adv-x="503" d="M220 54q57 0 106 66t49 178q0 60 -27 101.5t-70 41.5q-62 0 -107 -77.5t-45 -165.5q0 -65 23.5 -104.5t70.5 -39.5zM463 312q0 -87 -29 -159.5t-90 -119t-144 -46.5q-46 0 -79.5 19t-50.5 50t-24.5 62t-7.5 62q0 145 71 236t194 91q68 0 114 -52.5t46 -142.5z" />
<glyph unicode="p" horiz-adv-x="522" d="M213 503l-13 -96q9 11 25.5 27.5t61 43.5t82.5 27q47 0 78.5 -41.5t31.5 -117.5q0 -93 -27.5 -172.5t-88.5 -133t-145 -53.5q-16 0 -38 4t-37 8t-16 6l-33 -170l-5 -75h-93l125 640l-7 82zM190 328l-50 -257q34 -16 78 -16q76 0 124.5 84t48.5 193q0 47 -17 70t-42 23 q-22 0 -57.5 -24.5t-60.5 -48.5z" />
<glyph unicode="q" horiz-adv-x="523" d="M340 164l53 272h-7q-8 1 -19 2t-24 2t-28 1.5t-26 0.5q-59 0 -107 -88.5t-48 -190.5q0 -49 18.5 -75t44.5 -26q24 0 60 25.5t59 50.5zM364 -141l-5 -99h-98l62 317q-84 -90 -158 -90q-49 0 -84 43.5t-35 118.5q0 93 29 172t93 131.5t152 52.5q28 0 89.5 -6.5t77.5 -6.5z " />
<glyph unicode="r" horiz-adv-x="391" d="M426 489l-41 -82q-37 12 -57 12q-47 0 -97.5 -71.5t-62.5 -133.5l-27 -139l-5 -75h-94l78 400l-7 83l99 20l-20 -124q47 75 88 103q36 25 75 25q14 0 32 -4.5t29 -8.5z" />
<glyph unicode="s" horiz-adv-x="395" d="M71 364q0 64 54 103.5t123 39.5q30 0 62.5 -6t50.5 -12l18 -6l-32 -72q-49 31 -110 31q-30 0 -56.5 -17.5t-26.5 -46.5q0 -27 19 -49t46.5 -38.5t55 -35t46.5 -49t19 -71.5q0 -69 -52 -108.5t-121 -39.5q-38 0 -72 10.5t-49 21.5l-16 11v84q8 -6 20.5 -16t48 -26 t65.5 -16q34 0 63 17.5t29 51.5q0 26 -19 46t-46 36t-54.5 34.5t-46.5 49.5t-19 73z" />
<glyph unicode="t" horiz-adv-x="373" d="M252 593l-29 -101h153l-44 -68h-123q-58 -301 -58 -314q0 -43 44 -43q49 0 118 56v-85q-74 -51 -143 -51q-45 0 -75 27t-30 81q0 18 60 329h-60l14 68h60l9 45t8 45z" />
<glyph unicode="u" horiz-adv-x="546" d="M501 492l-65 -338q-12 -52 -7 -87.5t33 -66.5l-89 -13q-32 25 -32 75l3 25q-11 -11 -30 -28t-69.5 -45t-90.5 -28q-61 0 -82 41t-10 107l55 285l5 73h93l-61 -325q-20 -99 33 -99q31 0 72.5 23t68.5 47l26 23l49 256l6 75h92z" />
<glyph unicode="v" horiz-adv-x="449" d="M206 -13l-71 13l-58 409l-28 83l98 13l50 -333l3 -73l37 73l101 165q26 44 26 80q0 11 -2 22.5t-5 20.5t-6.5 16.5t-5.5 11.5l-2 4l91 13q17 -40 17 -68q0 -60 -46 -132z" />
<glyph unicode="w" horiz-adv-x="740" d="M206 -13l-71 13l-58 409l-28 83l98 13l50 -333l3 -73l37 73l116 193q13 22 13 46q0 20 -7.5 40t-14.5 31l-8 10l89 13q18 -26 24 -65l41 -268l3 -73l37 73l111 186q40 68 -13 134l89 13q25 -34 25 -83q0 -41 -23 -78l-220 -357l-71 13l-40 281z" />
<glyph unicode="x" horiz-adv-x="469" d="M-24 0l212 250l-76 171l-48 71l99 13l75 -172l9 -24l10 16l75 81q18 20 18 49q0 20 -10 37l89 13q7 -17 7 -38q0 -52 -45 -100l-113 -120l111 -247h-93l-70 159l-8 23l-17 -23l-132 -159h-93z" />
<glyph unicode="y" horiz-adv-x="450" d="M-104 -152q25 -10 49 -10q81 0 150 101l44 65l-8 21l-54 384l-28 83l98 13l50 -345l1 -72l33 69l107 179q47 79 5 156l91 13q12 -27 15 -53t-3 -52t-16.5 -49t-27.5 -51l-244 -394q-44 -71 -102.5 -110t-111.5 -39q-25 0 -50 11z" />
<glyph unicode="z" horiz-adv-x="467" d="M-2 0v19l284 364l39 41h-252l33 68h353v-19l-283 -364l-39 -41h297l-13 -68h-419z" />
<glyph unicode="{" horiz-adv-x="301" d="M40 273l10 52q25 0 44.5 10t29 25t13.5 25.5t6 19.5l39 201q14 73 66.5 111t123.5 38l-12 -62q-81 0 -98 -90l-38 -197q-6 -29 -22.5 -55.5t-30.5 -38.5l-14 -13q37 -37 21 -120l-41 -269q-7 -39 8 -64t56 -26l-12 -62q-70 2 -108 40.5t-24 108.5l44 274q7 38 -6.5 64 t-54.5 28z" />
<glyph unicode="|" horiz-adv-x="227" d="M149 756v-1010h-71v1010h71z" />
<glyph unicode="}" horiz-adv-x="301" d="M287 325l-10 -52q-25 0 -44.5 -10t-29.5 -25t-14 -25.5t-6 -19.5l-55 -286q-14 -73 -66 -111t-123 -38l12 62q80 0 97 90l55 282q6 29 22.5 55.5t30.5 38.5l14 13q-4 5 -10 13.5t-13.5 36.5t-1.5 57l38 197q17 90 -64 90l12 62q71 0 107.5 -38t22.5 -111l-39 -201 q-3 -6 -1.5 -19t5.5 -26.5t20 -24t41 -10.5z" />
<glyph unicode="~" horiz-adv-x="578" d="M529 269q-60 -62 -137 -62q-52 0 -116.5 32t-99.5 32q-49 0 -98 -43l-29 61q63 55 134 55q51 0 113 -32t102 -32q48 0 101 48z" />
<glyph unicode="&#xa1;" horiz-adv-x="264" d="M135 604q0 26 18 44.5t44 18.5t44 -18.5t18 -44.5q0 -25 -18.5 -43t-43.5 -18t-43.5 18t-18.5 43zM16 -102l130 578l64 -8l-75 -468l-5 -90z" />
<glyph unicode="&#xa2;" horiz-adv-x="461" d="M366 600l-19 -97q22 -3 44.5 -8t34.5 -9l12 -3l-32 -72l-4 1q-3 2 -10.5 4.5l-16.5 5.5t-20 6.5t-21 5.5l-72 -373q36 3 70 23t50 38l16 18v-87q-6 -7 -17.5 -17.5t-50.5 -28.5t-83 -20l-18 -96h-50l19 99q-76 12 -115 68t-39 135q0 144 73.5 229t179.5 85h1l18 93h50z M132 216q0 -55 19.5 -96t61.5 -54l71 371q-69 -7 -110.5 -75t-41.5 -146z" />
<glyph unicode="&#xa3;" horiz-adv-x="549" d="M455 -102h-497q2 0 29 46.5t62.5 131.5t51.5 162l7 35h-61l13 68h61l42 214q10 49 38.5 89t65.5 63t74 35t68 12q55 0 98.5 -16t59.5 -32l16 -16l-46 -66q-6 6 -17.5 15.5t-46 25.5t-68.5 16q-59 0 -101.5 -35t-51.5 -83l-44 -222h207l-43 -68h-177l-8 -44 q-13 -68 -37.5 -132t-41.5 -95l-18 -30h397z" />
<glyph unicode="&#xa5;" horiz-adv-x="508" d="M88 348h97l-79 239l-39 71h109l82 -247l7 -40l27 42l180 245h91l-234 -310h110l-28 -64h-120l-16 -83h135l-28 -64h-119l-12 -62l-4 -75h-100l26 137h-127l13 64h126l16 83h-126z" />
<glyph unicode="&#xa7;" horiz-adv-x="420" d="M327 677v-696q0 -73 -52 -113.5t-125 -40.5q-31 0 -59 8.5t-47 20.5t-33.5 24.5t-20.5 21.5l-7 8l13 69q22 -32 53.5 -55t64.5 -28v713q0 64 53 100.5t124 36.5q45 0 87 -17t62 -35l19 -17l-13 -73q-47 63 -119 73zM180 568v-673q48 9 64.5 39.5t16.5 92.5v651 q-42 -6 -61.5 -32t-19.5 -78z" />
<glyph unicode="&#xa8;" horiz-adv-x="384" d="M152 631q0 -23 -15 -39t-35 -16t-35 16t-15 39q0 22 15 38.5t35 16.5t35 -16.5t15 -38.5zM336 631q0 -23 -15 -39t-35 -16t-35 16t-15 39q0 22 15 38.5t35 16.5t35 -16.5t15 -38.5z" />
<glyph unicode="&#xa9;" horiz-adv-x="790" d="M524 464l-37 -52q-31 44 -86 44q-44 0 -69 -35.5t-25 -88.5t25.5 -90.5t73.5 -37.5q25 0 51.5 13.5t40.5 26.5l14 14l12 -66q-6 -6 -17 -14.5t-48 -22.5t-78 -14q-68 0 -108 54t-40 126q0 81 45 138t125 57q77 0 121 -52zM735 341q0 -158 -98 -256t-258 -98 q-141 0 -232.5 93t-91.5 232q0 157 100.5 254.5t264.5 97.5q137 0 226 -92.5t89 -230.5zM673 328q0 125 -77 205t-197 80q-116 0 -198 -82.5t-82 -206.5q0 -122 80.5 -203t201.5 -81q112 0 192 82.5t80 205.5z" />
<glyph unicode="&#xaa;" horiz-adv-x="405" d="M280 402l40 214q-2 0 -19.5 2.5t-22.5 2.5q-48 0 -87.5 -63.5t-39.5 -149.5q0 -69 33 -69q22 0 46 15.5t37 31.5zM300 280q-27 22 -27 56q-52 -55 -110 -55q-39 0 -66 31.5t-27 87.5q0 105 57.5 187t144.5 82q27 0 60 -2.5t52 -5.5l20 -3q-57 -296 -57 -302q0 -39 29 -65 z" />
<glyph unicode="&#xab;" horiz-adv-x="618" d="M354 412l-206 -166l141 -164l-51 -64l-198 229l287 229zM583 412l-206 -166l141 -164l-51 -64l-198 229l287 229z" />
<glyph unicode="&#xac;" horiz-adv-x="535" />
<glyph unicode="&#xae;" horiz-adv-x="790" d="M564 156h-80l-91 129h-28v-87q0 -7 5 -42h-74v299l-6 53h108q51 0 86.5 -28.5t35.5 -79.5q0 -31 -17 -58.5t-50 -41.5zM389 325q23 0 42.5 23.5t19.5 51.5t-19 47t-43 19h-24v-141h24zM735 341q0 -158 -98 -256t-258 -98q-141 0 -232.5 93t-91.5 232q0 157 100.5 254.5 t264.5 97.5q137 0 226 -92.5t89 -230.5zM673 328q0 125 -77 205t-197 80q-116 0 -198 -82.5t-82 -206.5q0 -122 80.5 -203t201.5 -81q112 0 192 82.5t80 205.5z" />
<glyph unicode="&#xaf;" horiz-adv-x="335" d="M53 665h247l-27 -74h-227z" />
<glyph unicode="&#xb0;" horiz-adv-x="399" d="M411 576q0 -68 -51 -118t-119 -50q-67 0 -117.5 50t-50.5 118t50.5 117.5t117.5 49.5q68 0 119 -49.5t51 -117.5zM345 578q0 40 -31.5 70t-71.5 30q-42 0 -72.5 -29.5t-30.5 -70.5t30 -74.5t73 -33.5q47 0 75 33t28 75z" />
<glyph unicode="&#xb1;" horiz-adv-x="471" d="M201 140v146h-143v74h143v149l70 -19v-130h149l-20 -74h-129v-146h-70zM87 69h310l-20 -69h-290v69z" />
<glyph unicode="&#xb2;" horiz-adv-x="349" d="M284 286h-229v29l13 12q176 159 176 245q0 47 -39 47q-12 0 -27.5 -3.5t-25.5 -7t-22 -8.5l-13 -4l-13 50q59 23 109 23q47 0 77.5 -24t30.5 -68q0 -28 -17 -63t-41 -64t-48 -54.5t-41 -39.5l-17 -15h143z" />
<glyph unicode="&#xb3;" horiz-adv-x="349" d="M46 286l-5 51q2 0 7 -0.5t8 -0.5q26 0 51 2.5t53.5 9.5t45.5 22.5t17 36.5q0 22 -23 36.5t-55 19.5l14 40q22 9 31.5 13.5t24.5 14t21 21.5t6 27q0 21 -13.5 30.5t-31.5 9.5q-15 0 -35 -6t-32 -11l-12 -5l-13 45q50 25 104 25q41 0 74.5 -20.5t33.5 -60.5q0 -58 -84 -89 q30 -6 48.5 -29t18.5 -53q0 -63 -68.5 -96.5t-155.5 -33.5z" />
<glyph unicode="&#xb4;" horiz-adv-x="338" d="M199 724h110l-194 -163l-53 20z" />
<glyph unicode="&#xb5;" horiz-adv-x="519" />
<glyph unicode="&#xb6;" horiz-adv-x="622" d="M62 309q0 87 49 167.5t132.5 131t175.5 50.5h60l-175 -902h-60l61 316q-106 0 -174.5 67.5t-68.5 169.5zM604 658l-175 -902h-60l175 902h60z" />
<glyph unicode="&#xb7;" horiz-adv-x="258" d="M186 245q0 -26 -17.5 -44.5t-42.5 -18.5t-42.5 18.5t-17.5 44.5q0 25 17.5 43t42.5 18t42.5 -18t17.5 -43z" />
<glyph unicode="&#xb8;" horiz-adv-x="402" d="M146 -58l14 51h29q9 -13 36.5 -34.5t46 -45t18.5 -53.5q0 -39 -34.5 -67t-89.5 -28q-54 0 -94 31l29 49q25 -23 67 -23q54 0 54 37q0 13 -11 25.5t-32.5 29t-32.5 28.5z" />
<glyph unicode="&#xb9;" horiz-adv-x="300" d="M66 284l8 47h62l47 265l-63 -21l-9 45l157 53l-62 -342h74l-13 -47h-201z" />
<glyph unicode="&#xba;" horiz-adv-x="442" d="M229 335q40 0 74 49t34 132q0 44 -18 74.5t-47 30.5q-45 0 -76.5 -57t-31.5 -123q0 -48 16.5 -77t48.5 -29zM291 673q53 0 88 -39.5t35 -106.5q0 -101 -54.5 -172.5t-145.5 -71.5q-36 0 -62 14t-39 37.5t-18.5 46.5t-5.5 47q0 108 55.5 176.5t146.5 68.5z" />
<glyph unicode="&#xbb;" horiz-adv-x="619" d="M469 246l-140 166l51 64l199 -229l-288 -229l-27 64zM240 246l-140 166l51 64l199 -229l-288 -229l-27 64z" />
<glyph unicode="&#xbc;" horiz-adv-x="666" d="M311 71l225 262l61 -20l-44 -223h70l-23 -54h-57l-9 -44l-4 -50h-80l19 94h-158v35zM480 90l26 142l-122 -142h96zM556 571l-330 -477h-63l342 497zM48 286l8 47h62l47 265l-63 -21l-9 45l157 53l-62 -342h74l-13 -47h-201z" />
<glyph unicode="&#xbd;" horiz-adv-x="666" d="M546 571l-330 -477h-63l342 497zM48 284l8 47h62l47 265l-63 -21l-9 45l157 53l-62 -342h74l-13 -47h-201zM596 -59h-229v29l13 12q176 159 176 245q0 47 -39 47q-12 0 -27.5 -3.5t-25.5 -7t-22 -7.5l-13 -5l-13 50q59 23 109 23q47 0 77.5 -24t30.5 -68q0 -28 -17 -63 t-41 -64t-48 -54.5t-41 -40.5l-17 -14h143z" />
<glyph unicode="&#xbe;" horiz-adv-x="676" d="M567 571l-330 -477h-63l342 497zM321 71l225 262l61 -20l-44 -223h70l-23 -54h-57l-9 -44l-4 -50h-80l19 94h-158v35zM490 90l26 142l-122 -142h96zM46 286l-5 51q2 0 7 -0.5t8 -0.5q26 0 51 2.5t53.5 9.5t45.5 22.5t17 36.5q0 22 -23 36.5t-55 19.5l14 40 q22 9 31.5 13.5t24.5 14t21 21.5t6 27q0 21 -13.5 30.5t-31.5 9.5q-15 0 -35 -6t-32 -11l-12 -5l-13 45q50 25 104 25q41 0 74.5 -20.5t33.5 -60.5q0 -58 -84 -89q30 -6 48.5 -29t18.5 -53q0 -63 -68.5 -96.5t-155.5 -33.5z" />
<glyph unicode="&#xbf;" horiz-adv-x="415" d="M295 494l72 -31q0 -1 0.5 -4.5t0.5 -5.5q0 -39 -26 -81.5t-62.5 -80l-73 -75t-62.5 -79.5t-26 -80q0 -32 26.5 -51.5t59.5 -19.5q21 0 48 11t43 21.5t17 12.5l21 -83q0 -3 -22 -13t-58 -20t-65 -10q-67 0 -117 39.5t-50 105.5q0 45 28.5 93.5t69 90.5t81 82t69 82 t28.5 77q0 13 -2 19zM269 608q0 26 18 44.5t44 18.5t44 -18.5t18 -44.5q0 -25 -18.5 -43t-43.5 -18t-43.5 18t-18.5 43z" />
<glyph unicode="&#xc0;" horiz-adv-x="549" d="M-62 0l381 659l63 12l95 -561l28 -110h-101l-28 172h-249l-98 -172h-91zM298 474l-129 -226h194l-39 226l-4 45zM199 875h110l111 -143l-57 -20z" />
<glyph unicode="&#xc1;" horiz-adv-x="549" d="M-62 0l381 659l63 12l95 -561l28 -110h-101l-28 172h-249l-98 -172h-91zM298 474l-129 -226h194l-39 226l-4 45zM407 875h110l-194 -163l-53 20z" />
<glyph unicode="&#xc2;" horiz-adv-x="549" d="M-62 0l381 659l63 12l95 -561l28 -110h-101l-28 172h-249l-98 -172h-91zM298 474l-129 -226h194l-39 226l-4 45zM326 875h62l111 -143l-55 -20l-94 93l-110 -93l-51 20z" />
<glyph unicode="&#xc3;" horiz-adv-x="549" d="M-62 0l381 659l63 12l95 -561l28 -110h-101l-28 172h-249l-98 -172h-91zM298 474l-129 -226h194l-39 226l-4 45zM472 823l40 -26q-17 -26 -26.5 -37.5t-31 -22.5t-51.5 -11q-33 0 -69.5 18t-52.5 18q-27 0 -53 -33l-40 26q17 26 26.5 37.5t31 22.5t51.5 11q29 0 66 -19 t55 -19q35 0 54 35z" />
<glyph unicode="&#xc4;" horiz-adv-x="549" d="M-62 0l381 659l63 12l95 -561l28 -110h-101l-28 172h-249l-98 -172h-91zM298 474l-129 -226h194l-39 226l-4 45zM308 782q0 -23 -15 -39t-35 -16t-35 16t-15 39q0 22 15 38.5t35 16.5t35 -16.5t15 -38.5zM492 782q0 -23 -15 -39t-35 -16t-35 16t-15 39q0 22 15 38.5 t35 16.5t35 -16.5t15 -38.5z" />
<glyph unicode="&#xc5;" horiz-adv-x="549" d="M-62 0l381 659l63 12l95 -561l28 -110h-101l-28 172h-249l-98 -172h-91zM298 474l-129 -226h194l-39 226l-4 45zM441 791q0 -36 -27.5 -62t-63.5 -26t-62.5 26t-26.5 62t26.5 62t62.5 26t63.5 -26t27.5 -62zM404 792q0 21 -16 37t-37 16q-22 0 -37.5 -15.5t-15.5 -37.5 q0 -21 15.5 -39t37.5 -18q24 0 38.5 17.5t14.5 39.5z" />
<glyph unicode="&#xc6;" horiz-adv-x="754" d="M307 0l34 176h-205l-115 -176h-85l436 658h372l-13 -72h-220l-42 -214h203l-34 -72h-183l-43 -228h242l-35 -72h-312zM354 246l63 320l2 41l-238 -361h173z" />
<glyph unicode="&#xc7;" horiz-adv-x="605" d="M615 606l-55 -63q-7 6 -19 15t-51 23.5t-79 14.5q-104 0 -182 -98t-78 -234q0 -83 46.5 -142.5t132.5 -59.5q100 0 195 98l6 -93q-101 -80 -223 -80q-111 0 -180 75.5t-69 191.5q0 178 100.5 297.5t259.5 119.5q55 0 104 -16.5t71 -32.5zM276 -58l14 51h29 q9 -13 36.5 -34.5t46 -45t18.5 -53.5q0 -39 -34.5 -67t-89.5 -28q-54 0 -94 31l29 49q25 -23 67 -23q54 0 54 37q0 13 -11 25.5t-32.5 29t-32.5 28.5z" />
<glyph unicode="&#xc8;" horiz-adv-x="497" d="M50 0l110 566l4 92h323l-13 -72h-220l-42 -214h203l-34 -72h-183l-43 -228h242l-35 -72h-312zM180 875h110l111 -143l-57 -20z" />
<glyph unicode="&#xc9;" horiz-adv-x="497" d="M50 0l110 566l4 92h323l-13 -72h-220l-42 -214h203l-34 -72h-183l-43 -228h242l-35 -72h-312zM388 875h110l-194 -163l-53 20z" />
<glyph unicode="&#xca;" horiz-adv-x="497" d="M50 0l110 566l4 92h323l-13 -72h-220l-42 -214h203l-34 -72h-183l-43 -228h242l-35 -72h-312zM307 875h62l111 -143l-55 -20l-94 93l-110 -93l-51 20z" />
<glyph unicode="&#xcb;" horiz-adv-x="497" d="M50 0l110 566l4 92h323l-13 -72h-220l-42 -214h203l-34 -72h-183l-43 -228h242l-35 -72h-312zM289 782q0 -23 -15 -39t-35 -16t-35 16t-15 39q0 22 15 38.5t35 16.5t35 -16.5t15 -38.5zM473 782q0 -23 -15 -39t-35 -16t-35 16t-15 39q0 22 15 38.5t35 16.5t35 -16.5 t15 -38.5z" />
<glyph unicode="&#xcc;" horiz-adv-x="295" d="M267 658l-113 -583l-4 -75h-100l110 566l4 92h103zM75 875h110l111 -143l-57 -20z" />
<glyph unicode="&#xcd;" horiz-adv-x="295" d="M267 658l-113 -583l-4 -75h-100l110 566l4 92h103zM283 875h110l-194 -163l-53 20z" />
<glyph unicode="&#xce;" horiz-adv-x="295" d="M267 658l-113 -583l-4 -75h-100l110 566l4 92h103zM202 875h62l111 -143l-55 -20l-94 93l-110 -93l-51 20z" />
<glyph unicode="&#xcf;" horiz-adv-x="295" d="M267 658l-113 -583l-4 -75h-100l110 566l4 92h103zM184 782q0 -23 -15 -39t-35 -16t-35 16t-15 39q0 22 15 38.5t35 16.5t35 -16.5t15 -38.5zM368 782q0 -23 -15 -39t-35 -16t-35 16t-15 39q0 22 15 38.5t35 16.5t35 -16.5t15 -38.5z" />
<glyph unicode="&#xd0;" horiz-adv-x="658" d="M52 374h71l37 192l4 92h246q92 0 151 -71.5t59 -183.5q0 -107 -43 -198.5t-125.5 -148t-188.5 -56.5h-213l58 300h-71zM380 595h-125l-43 -221h131l-35 -74h-110l-45 -233h122q98 0 174.5 98t76.5 226q0 77 -39.5 140.5t-106.5 63.5z" />
<glyph unicode="&#xd1;" horiz-adv-x="734" d="M714 658l-112 -583l-8 -75h-37l-299 423l-34 62l-77 -410l-4 -75h-93l109 566l-9 92h66l290 -417l33 -67l75 392l4 92h96zM572 823l40 -26q-17 -26 -26.5 -37.5t-31 -22.5t-51.5 -11q-33 0 -69.5 18t-52.5 18q-27 0 -53 -33l-40 26q17 26 26.5 37.5t31 22.5t51.5 11 q29 0 66 -19t55 -19q35 0 54 35z" />
<glyph unicode="&#xd2;" horiz-adv-x="649" d="M377 597q-38 0 -78.5 -22.5t-76 -63.5t-58.5 -108.5t-23 -147.5q0 -86 41.5 -141.5t108.5 -55.5q65 0 121 52.5t86 129.5t30 155q0 88 -40 145t-111 57zM48 243q0 177 92.5 302t246.5 125q63 0 111 -25.5t73.5 -66t37.5 -82t12 -82.5q0 -186 -97 -306.5t-246 -120.5 q-108 0 -169 73.5t-61 182.5zM273 875h110l111 -143l-57 -20z" />
<glyph unicode="&#xd3;" horiz-adv-x="649" d="M377 597q-38 0 -78.5 -22.5t-76 -63.5t-58.5 -108.5t-23 -147.5q0 -86 41.5 -141.5t108.5 -55.5q65 0 121 52.5t86 129.5t30 155q0 88 -40 145t-111 57zM48 243q0 177 92.5 302t246.5 125q63 0 111 -25.5t73.5 -66t37.5 -82t12 -82.5q0 -186 -97 -306.5t-246 -120.5 q-108 0 -169 73.5t-61 182.5zM481 875h110l-194 -163l-53 20z" />
<glyph unicode="&#xd4;" horiz-adv-x="649" d="M377 597q-38 0 -78.5 -22.5t-76 -63.5t-58.5 -108.5t-23 -147.5q0 -86 41.5 -141.5t108.5 -55.5q65 0 121 52.5t86 129.5t30 155q0 88 -40 145t-111 57zM48 243q0 177 92.5 302t246.5 125q63 0 111 -25.5t73.5 -66t37.5 -82t12 -82.5q0 -186 -97 -306.5t-246 -120.5 q-108 0 -169 73.5t-61 182.5zM400 875h62l111 -143l-55 -20l-94 93l-110 -93l-51 20z" />
<glyph unicode="&#xd5;" horiz-adv-x="649" d="M377 597q-38 0 -78.5 -22.5t-76 -63.5t-58.5 -108.5t-23 -147.5q0 -86 41.5 -141.5t108.5 -55.5q65 0 121 52.5t86 129.5t30 155q0 88 -40 145t-111 57zM48 243q0 177 92.5 302t246.5 125q63 0 111 -25.5t73.5 -66t37.5 -82t12 -82.5q0 -186 -97 -306.5t-246 -120.5 q-108 0 -169 73.5t-61 182.5zM546 823l40 -26q-17 -26 -26.5 -37.5t-31 -22.5t-51.5 -11q-33 0 -69.5 18t-52.5 18q-27 0 -53 -33l-40 26q17 26 26.5 37.5t31 22.5t51.5 11q29 0 66 -19t55 -19q35 0 54 35z" />
<glyph unicode="&#xd6;" horiz-adv-x="649" d="M377 597q-38 0 -78.5 -22.5t-76 -63.5t-58.5 -108.5t-23 -147.5q0 -86 41.5 -141.5t108.5 -55.5q65 0 121 52.5t86 129.5t30 155q0 88 -40 145t-111 57zM48 243q0 177 92.5 302t246.5 125q63 0 111 -25.5t73.5 -66t37.5 -82t12 -82.5q0 -186 -97 -306.5t-246 -120.5 q-108 0 -169 73.5t-61 182.5zM382 782q0 -23 -15 -39t-35 -16t-35 16t-15 39q0 22 15 38.5t35 16.5t35 -16.5t15 -38.5zM566 782q0 -23 -15 -39t-35 -16t-35 16t-15 39q0 22 15 38.5t35 16.5t35 -16.5t15 -38.5z" />
<glyph unicode="&#xd7;" horiz-adv-x="429" d="M342 76l-125 124l-122 -122l-52 52l122 123l-127 126l63 36l114 -113l126 127l38 -67l-112 -112l124 -125z" />
<glyph unicode="&#xd8;" horiz-adv-x="649" d="M621 414q0 -177 -92.5 -302t-246.5 -125q-66 0 -117 28l-43 -68l-51 15l53 85q-39 37 -57.5 91t-18.5 105q0 186 97 306.5t246 120.5q57 0 105 -24l42 67l55 -15l-52 -83q80 -71 80 -201zM292 60q84 0 159.5 93.5t75.5 248.5q0 79 -36 134l-281 -449q35 -27 82 -27z M141 262q0 -79 33 -134l279 448q-34 23 -75 23q-65 0 -121 -52.5t-86 -129.5t-30 -155z" />
<glyph unicode="&#xd9;" horiz-adv-x="663" d="M560 658h94l-77 -395q-24 -124 -95.5 -200t-181.5 -76q-65 0 -110.5 19.5t-68 49.5t-31.5 74t-7 84t11 89l48 263l5 92h104l-66 -358q-46 -240 121 -240q71 0 121.5 55.5t66.5 136.5l61 314zM260 875h110l111 -143l-57 -20z" />
<glyph unicode="&#xda;" horiz-adv-x="663" d="M560 658h94l-77 -395q-24 -124 -95.5 -200t-181.5 -76q-65 0 -110.5 19.5t-68 49.5t-31.5 74t-7 84t11 89l48 263l5 92h104l-66 -358q-46 -240 121 -240q71 0 121.5 55.5t66.5 136.5l61 314zM468 875h110l-194 -163l-53 20z" />
<glyph unicode="&#xdb;" horiz-adv-x="663" d="M560 658h94l-77 -395q-24 -124 -95.5 -200t-181.5 -76q-65 0 -110.5 19.5t-68 49.5t-31.5 74t-7 84t11 89l48 263l5 92h104l-66 -358q-46 -240 121 -240q71 0 121.5 55.5t66.5 136.5l61 314zM387 875h62l111 -143l-55 -20l-94 93l-110 -93l-51 20z" />
<glyph unicode="&#xdc;" horiz-adv-x="663" d="M560 658h94l-77 -395q-24 -124 -95.5 -200t-181.5 -76q-65 0 -110.5 19.5t-68 49.5t-31.5 74t-7 84t11 89l48 263l5 92h104l-66 -358q-46 -240 121 -240q71 0 121.5 55.5t66.5 136.5l61 314zM369 782q0 -23 -15 -39t-35 -16t-35 16t-15 39q0 22 15 38.5t35 16.5t35 -16.5 t15 -38.5zM553 782q0 -23 -15 -39t-35 -16t-35 16t-15 39q0 22 15 38.5t35 16.5t35 -16.5t15 -38.5z" />
<glyph unicode="&#xdd;" horiz-adv-x="508" d="M294 297l-43 -222l-4 -75h-100l56 290l-97 297l-39 71h109l82 -247l7 -40l27 42l176 245h95zM392 875h110l-194 -163l-53 20z" />
<glyph unicode="&#xde;" horiz-adv-x="503" d="M247 598h77q82 0 130.5 -39.5t48.5 -109.5q0 -115 -76 -189t-204 -74h-56l-21 -111l-5 -75h-100l123 634l9 112l105 10zM235 537l-56 -287h56q81 0 126.5 54t45.5 134q0 46 -26.5 72.5t-75.5 26.5h-70z" />
<glyph unicode="&#xdf;" horiz-adv-x="560" d="M457 631q0 25 -26 39t-61 14q-62 0 -100 -26.5t-46 -74.5l-94 -594q-17 -106 -69 -168t-134 -63l-23 69q58 0 95.5 42t49.5 120l67 435h-63l11 68h62l11 73q14 94 79.5 141t149.5 47q72 0 125 -32t53 -81q0 -38 -25.5 -77.5t-55.5 -66.5t-55.5 -57t-25.5 -52 q0 -24 20.5 -52.5t44.5 -52t44.5 -58t20.5 -68.5q0 -69 -55.5 -119t-143.5 -50q-31 0 -59.5 9t-41.5 18l-13 9l22 72q41 -40 96 -40q42 0 75 20t33 62q0 24 -20 51t-43.5 48.5t-43.5 51.5t-20 60q0 36 16.5 68.5t40 58t46.5 49.5t39.5 51.5t16.5 55.5z" />
<glyph unicode="&#xe0;" horiz-adv-x="507" d="M318 161l53 275q-50 8 -65 8q-66 0 -123 -86t-57 -197q0 -38 14.5 -68.5t43.5 -30.5q13 0 31.5 10t36 25t32.5 29.5t24 24.5zM308 62l2 21q-3 -4 -8 -10.5t-22 -23t-34.5 -29t-42 -23t-48.5 -10.5q-49 0 -83 42t-34 117q0 90 32 172t93 134.5t136 52.5q42 0 100.5 -6.5 t66.5 -6.5l-65 -338q-12 -53 -6.5 -87.5t34.5 -66.5l-89 -13q-32 25 -32 75zM168 724h110l111 -143l-57 -20z" />
<glyph unicode="&#xe1;" horiz-adv-x="507" d="M318 161l53 275q-50 8 -65 8q-66 0 -123 -86t-57 -197q0 -38 14.5 -68.5t43.5 -30.5q13 0 31.5 10t36 25t32.5 29.5t24 24.5zM308 62l2 21q-3 -4 -8 -10.5t-22 -23t-34.5 -29t-42 -23t-48.5 -10.5q-49 0 -83 42t-34 117q0 90 32 172t93 134.5t136 52.5q42 0 100.5 -6.5 t66.5 -6.5l-65 -338q-12 -53 -6.5 -87.5t34.5 -66.5l-89 -13q-32 25 -32 75zM376 724h110l-194 -163l-53 20z" />
<glyph unicode="&#xe2;" horiz-adv-x="507" d="M318 161l53 275q-50 8 -65 8q-66 0 -123 -86t-57 -197q0 -38 14.5 -68.5t43.5 -30.5q13 0 31.5 10t36 25t32.5 29.5t24 24.5zM308 62l2 21q-3 -4 -8 -10.5t-22 -23t-34.5 -29t-42 -23t-48.5 -10.5q-49 0 -83 42t-34 117q0 90 32 172t93 134.5t136 52.5q42 0 100.5 -6.5 t66.5 -6.5l-65 -338q-12 -53 -6.5 -87.5t34.5 -66.5l-89 -13q-32 25 -32 75zM295 724h62l111 -143l-55 -20l-94 93l-110 -93l-51 20z" />
<glyph unicode="&#xe3;" horiz-adv-x="507" d="M318 161l53 275q-50 8 -65 8q-66 0 -123 -86t-57 -197q0 -38 14.5 -68.5t43.5 -30.5q13 0 31.5 10t36 25t32.5 29.5t24 24.5zM308 62l2 21q-3 -4 -8 -10.5t-22 -23t-34.5 -29t-42 -23t-48.5 -10.5q-49 0 -83 42t-34 117q0 90 32 172t93 134.5t136 52.5q42 0 100.5 -6.5 t66.5 -6.5l-65 -338q-12 -53 -6.5 -87.5t34.5 -66.5l-89 -13q-32 25 -32 75zM441 672l40 -26q-17 -26 -26.5 -37.5t-31 -22.5t-51.5 -11q-33 0 -69.5 18t-52.5 18q-27 0 -53 -33l-40 26q17 26 26.5 37.5t31 22.5t51.5 11q29 0 66 -19t55 -19q35 0 54 35z" />
<glyph unicode="&#xe4;" horiz-adv-x="507" d="M318 161l53 275q-50 8 -65 8q-66 0 -123 -86t-57 -197q0 -38 14.5 -68.5t43.5 -30.5q13 0 31.5 10t36 25t32.5 29.5t24 24.5zM308 62l2 21q-3 -4 -8 -10.5t-22 -23t-34.5 -29t-42 -23t-48.5 -10.5q-49 0 -83 42t-34 117q0 90 32 172t93 134.5t136 52.5q42 0 100.5 -6.5 t66.5 -6.5l-65 -338q-12 -53 -6.5 -87.5t34.5 -66.5l-89 -13q-32 25 -32 75zM277 631q0 -23 -15 -39t-35 -16t-35 16t-15 39q0 22 15 38.5t35 16.5t35 -16.5t15 -38.5zM461 631q0 -23 -15 -39t-35 -16t-35 16t-15 39q0 22 15 38.5t35 16.5t35 -16.5t15 -38.5z" />
<glyph unicode="&#xe5;" horiz-adv-x="507" d="M318 161l53 275q-50 8 -65 8q-66 0 -123 -86t-57 -197q0 -38 14.5 -68.5t43.5 -30.5q13 0 31.5 10t36 25t32.5 29.5t24 24.5zM308 62l2 21q-3 -4 -8 -10.5t-22 -23t-34.5 -29t-42 -23t-48.5 -10.5q-49 0 -83 42t-34 117q0 90 32 172t93 134.5t136 52.5q42 0 100.5 -6.5 t66.5 -6.5l-65 -338q-12 -53 -6.5 -87.5t34.5 -66.5l-89 -13q-32 25 -32 75zM410 640q0 -36 -27.5 -62t-63.5 -26t-62.5 26t-26.5 62t26.5 62t62.5 26t63.5 -26t27.5 -62zM373 641q0 21 -16 37t-37 16q-22 0 -37.5 -15.5t-15.5 -37.5q0 -21 15.5 -39t37.5 -18 q24 0 38.5 17.5t14.5 39.5z" />
<glyph unicode="&#xe6;" horiz-adv-x="733" d="M707 398q0 -63 -44 -106t-107.5 -61t-139.5 -18v-10q0 -60 28.5 -99.5t87.5 -39.5q38 0 75 19t55 38l19 19v-83q-2 -3 -6.5 -7.5t-20 -16.5t-34 -21.5t-49.5 -17t-65 -7.5q-65 0 -107.5 33.5t-59.5 89.5q-2 -2 -17 -18.5t-20 -21.5t-20 -19.5t-23.5 -20.5t-23.5 -16.5 t-27 -14.5t-27 -8t-30 -4q-48 0 -80.5 42t-32.5 117q0 141 74 251t186 110q39 0 91.5 -7t62.5 -7q21 0 67 7t58 7q64 0 97 -30t33 -79zM328 193q0 144 86 238q-23 2 -48.5 5.5t-40.5 5.5t-20 2q-70 0 -123 -85.5t-53 -202.5q0 -94 50 -94q19 0 53 25.5t56.5 47t39.5 40.5v18 zM564 442q-54 0 -91.5 -51t-50.5 -124q18 1 42 5t62.5 15t64 37.5t25.5 63.5q0 54 -52 54z" />
<glyph unicode="&#xe7;" horiz-adv-x="445" d="M432 483l-32 -72q1 1 -16.5 7.5t-45 13t-46.5 6.5q-75 0 -120.5 -70t-45.5 -152q0 -67 28.5 -111t90.5 -44q24 0 48 8t41 19.5t30.5 23.5t20.5 20l7 8v-87q-6 -7 -18 -18t-54 -29.5t-89 -18.5q-95 0 -144 58.5t-49 147.5q0 144 73.5 229t179.5 85q30 0 65 -6t56 -12z M184 -58l14 51h29q9 -13 36.5 -34.5t46 -45t18.5 -53.5q0 -39 -34.5 -67t-89.5 -28q-54 0 -94 31l29 49q25 -23 67 -23q54 0 54 37q0 13 -11 25.5t-32.5 29t-32.5 28.5z" />
<glyph unicode="&#xe8;" horiz-adv-x="449" d="M423 398q0 -63 -44 -107t-108 -63t-139 -19v-10q0 -59 28.5 -97t87.5 -38q36 0 73.5 19t56.5 38l20 19v-87q-2 -3 -6 -7.5t-19.5 -15.5t-33.5 -20t-48 -16t-64 -7q-88 0 -135.5 59t-47.5 147q0 127 70 220.5t179 93.5q64 0 97 -30t33 -79zM280 442q-54 0 -91.5 -51 t-50.5 -124q18 1 42 5t62.5 15t64 37.5t25.5 63.5q0 54 -52 54zM129 724h110l111 -143l-57 -20z" />
<glyph unicode="&#xe9;" horiz-adv-x="449" d="M423 398q0 -63 -44 -107t-108 -63t-139 -19v-10q0 -59 28.5 -97t87.5 -38q36 0 73.5 19t56.5 38l20 19v-87q-2 -3 -6 -7.5t-19.5 -15.5t-33.5 -20t-48 -16t-64 -7q-88 0 -135.5 59t-47.5 147q0 127 70 220.5t179 93.5q64 0 97 -30t33 -79zM280 442q-54 0 -91.5 -51 t-50.5 -124q18 1 42 5t62.5 15t64 37.5t25.5 63.5q0 54 -52 54zM337 724h110l-194 -163l-53 20z" />
<glyph unicode="&#xea;" horiz-adv-x="449" d="M423 398q0 -63 -44 -107t-108 -63t-139 -19v-10q0 -59 28.5 -97t87.5 -38q36 0 73.5 19t56.5 38l20 19v-87q-2 -3 -6 -7.5t-19.5 -15.5t-33.5 -20t-48 -16t-64 -7q-88 0 -135.5 59t-47.5 147q0 127 70 220.5t179 93.5q64 0 97 -30t33 -79zM280 442q-54 0 -91.5 -51 t-50.5 -124q18 1 42 5t62.5 15t64 37.5t25.5 63.5q0 54 -52 54zM256 724h62l111 -143l-55 -20l-94 93l-110 -93l-51 20z" />
<glyph unicode="&#xeb;" horiz-adv-x="449" d="M423 398q0 -63 -44 -107t-108 -63t-139 -19v-10q0 -59 28.5 -97t87.5 -38q36 0 73.5 19t56.5 38l20 19v-87q-2 -3 -6 -7.5t-19.5 -15.5t-33.5 -20t-48 -16t-64 -7q-88 0 -135.5 59t-47.5 147q0 127 70 220.5t179 93.5q64 0 97 -30t33 -79zM280 442q-54 0 -91.5 -51 t-50.5 -124q18 1 42 5t62.5 15t64 37.5t25.5 63.5q0 54 -52 54zM238 631q0 -23 -15 -39t-35 -16t-35 16t-15 39q0 22 15 38.5t35 16.5t35 -16.5t15 -38.5zM422 631q0 -23 -15 -39t-35 -16t-35 16t-15 39q0 22 15 38.5t35 16.5t35 -16.5t15 -38.5z" />
<glyph unicode="&#xec;" horiz-adv-x="261" d="M224 503l-84 -428l-4 -75h-94l78 400l5 92zM31 724h110l111 -143l-57 -20z" />
<glyph unicode="&#xed;" horiz-adv-x="261" d="M224 503l-84 -428l-4 -75h-94l78 400l5 92zM239 724h110l-194 -163l-53 20z" />
<glyph unicode="&#xee;" horiz-adv-x="261" d="M224 503l-84 -428l-4 -75h-94l78 400l5 92zM158 724h62l111 -143l-55 -20l-94 93l-110 -93l-51 20z" />
<glyph unicode="&#xef;" horiz-adv-x="261" d="M224 503l-84 -428l-4 -75h-94l78 400l5 92zM140 631q0 -23 -15 -39t-35 -16t-35 16t-15 39q0 22 15 38.5t35 16.5t35 -16.5t15 -38.5zM324 631q0 -23 -15 -39t-35 -16t-35 16t-15 39q0 22 15 38.5t35 16.5t35 -16.5t15 -38.5z" />
<glyph unicode="&#xf0;" horiz-adv-x="535" d="M530 680l-83 -34q62 -91 62 -240q0 -79 -17.5 -151.5t-52.5 -133.5t-94 -97.5t-135 -36.5q-51 0 -87 18.5t-53.5 49.5t-24.5 60.5t-7 61.5q0 129 78.5 228.5t179.5 99.5q36 0 68 -10.5t46 -20.5l13 -11q-13 89 -59 150l-140 -56l-11 43l118 48q-41 33 -94 49l46 59 q83 -20 134 -73l122 49zM422 385q-5 6 -14.5 15t-40 24.5t-63.5 15.5q-78 0 -128.5 -82.5t-50.5 -168.5q0 -61 27 -99.5t76 -38.5q48 0 87 36t61.5 90t34 108.5t11.5 99.5z" />
<glyph unicode="&#xf1;" horiz-adv-x="541" d="M421 0h-93l61 325q20 99 -33 99q-31 0 -72.5 -23t-67.5 -47l-27 -23l-49 -256l-6 -75h-92l78 400l-7 82l99 21l-15 -97q4 4 11.5 11t29.5 24t44 30t52 24t55 11q61 0 82 -41t10 -107l-55 -285zM466 672l40 -26q-17 -26 -26.5 -37.5t-31 -22.5t-51.5 -11q-33 0 -69.5 18 t-52.5 18q-27 0 -53 -33l-40 26q17 26 26.5 37.5t31 22.5t51.5 11q29 0 66 -19t55 -19q35 0 54 35z" />
<glyph unicode="&#xf2;" horiz-adv-x="503" d="M220 54q57 0 106 66t49 178q0 60 -27 101.5t-70 41.5q-62 0 -107 -77.5t-45 -165.5q0 -65 23.5 -104.5t70.5 -39.5zM463 312q0 -87 -29 -159.5t-90 -119t-144 -46.5q-46 0 -79.5 19t-50.5 50t-24.5 62t-7.5 62q0 145 71 236t194 91q68 0 114 -52.5t46 -142.5zM164 724 h110l111 -143l-57 -20z" />
<glyph unicode="&#xf3;" horiz-adv-x="503" d="M220 54q57 0 106 66t49 178q0 60 -27 101.5t-70 41.5q-62 0 -107 -77.5t-45 -165.5q0 -65 23.5 -104.5t70.5 -39.5zM463 312q0 -87 -29 -159.5t-90 -119t-144 -46.5q-46 0 -79.5 19t-50.5 50t-24.5 62t-7.5 62q0 145 71 236t194 91q68 0 114 -52.5t46 -142.5zM372 724 h110l-194 -163l-53 20z" />
<glyph unicode="&#xf4;" horiz-adv-x="503" d="M220 54q57 0 106 66t49 178q0 60 -27 101.5t-70 41.5q-62 0 -107 -77.5t-45 -165.5q0 -65 23.5 -104.5t70.5 -39.5zM463 312q0 -87 -29 -159.5t-90 -119t-144 -46.5q-46 0 -79.5 19t-50.5 50t-24.5 62t-7.5 62q0 145 71 236t194 91q68 0 114 -52.5t46 -142.5zM291 724h62 l111 -143l-55 -20l-94 93l-110 -93l-51 20z" />
<glyph unicode="&#xf5;" horiz-adv-x="503" d="M220 54q57 0 106 66t49 178q0 60 -27 101.5t-70 41.5q-62 0 -107 -77.5t-45 -165.5q0 -65 23.5 -104.5t70.5 -39.5zM463 312q0 -87 -29 -159.5t-90 -119t-144 -46.5q-46 0 -79.5 19t-50.5 50t-24.5 62t-7.5 62q0 145 71 236t194 91q68 0 114 -52.5t46 -142.5zM437 672 l40 -26q-17 -26 -26.5 -37.5t-31 -22.5t-51.5 -11q-33 0 -69.5 18t-52.5 18q-27 0 -53 -33l-40 26q17 26 26.5 37.5t31 22.5t51.5 11q29 0 66 -19t55 -19q35 0 54 35z" />
<glyph unicode="&#xf6;" horiz-adv-x="503" d="M220 54q57 0 106 66t49 178q0 60 -27 101.5t-70 41.5q-62 0 -107 -77.5t-45 -165.5q0 -65 23.5 -104.5t70.5 -39.5zM463 312q0 -87 -29 -159.5t-90 -119t-144 -46.5q-46 0 -79.5 19t-50.5 50t-24.5 62t-7.5 62q0 145 71 236t194 91q68 0 114 -52.5t46 -142.5zM273 631 q0 -23 -15 -39t-35 -16t-35 16t-15 39q0 22 15 38.5t35 16.5t35 -16.5t15 -38.5zM457 631q0 -23 -15 -39t-35 -16t-35 16t-15 39q0 22 15 38.5t35 16.5t35 -16.5t15 -38.5z" />
<glyph unicode="&#xf7;" horiz-adv-x="473" d="M87 285h310l-20 -69h-290v69zM295 407q0 -26 -17.5 -44.5t-42.5 -18.5t-42.5 18.5t-17.5 44.5q0 25 17.5 43t42.5 18t42.5 -18t17.5 -43zM295 105q0 -26 -17.5 -44.5t-42.5 -18.5t-42.5 18.5t-17.5 44.5q0 25 17.5 43t42.5 18t42.5 -18t17.5 -43z" />
<glyph unicode="&#xf8;" horiz-adv-x="496" d="M299 507q33 0 67 -16l64 103l55 -15l-77 -122q48 -53 48 -145q0 -86 -30.5 -159.5t-90.5 -119.5t-139 -46q-41 0 -73 16l-74 -118l-51 15l84 135q-45 53 -45 145q0 143 72.5 235t189.5 92zM216 54q57 0 104.5 65.5t47.5 178.5q0 43 -13 75l-190 -303q20 -16 51 -16z M122 198q0 -47 12 -80l189 304q-22 19 -49 19q-62 0 -107 -77.5t-45 -165.5z" />
<glyph unicode="&#xf9;" horiz-adv-x="546" d="M501 492l-65 -338q-12 -52 -7 -87.5t33 -66.5l-89 -13q-32 25 -32 75l3 25q-11 -11 -30 -28t-69.5 -45t-90.5 -28q-61 0 -82 41t-10 107l55 285l5 73h93l-61 -325q-20 -99 33 -99q31 0 72.5 23t68.5 47l26 23l49 256l6 75h92zM170 724h110l111 -143l-57 -20z" />
<glyph unicode="&#xfa;" horiz-adv-x="546" d="M501 492l-65 -338q-12 -52 -7 -87.5t33 -66.5l-89 -13q-32 25 -32 75l3 25q-11 -11 -30 -28t-69.5 -45t-90.5 -28q-61 0 -82 41t-10 107l55 285l5 73h93l-61 -325q-20 -99 33 -99q31 0 72.5 23t68.5 47l26 23l49 256l6 75h92zM378 724h110l-194 -163l-53 20z" />
<glyph unicode="&#xfb;" horiz-adv-x="546" d="M501 492l-65 -338q-12 -52 -7 -87.5t33 -66.5l-89 -13q-32 25 -32 75l3 25q-11 -11 -30 -28t-69.5 -45t-90.5 -28q-61 0 -82 41t-10 107l55 285l5 73h93l-61 -325q-20 -99 33 -99q31 0 72.5 23t68.5 47l26 23l49 256l6 75h92zM297 724h62l111 -143l-55 -20l-94 93 l-110 -93l-51 20z" />
<glyph unicode="&#xfc;" horiz-adv-x="546" d="M501 492l-65 -338q-12 -52 -7 -87.5t33 -66.5l-89 -13q-32 25 -32 75l3 25q-11 -11 -30 -28t-69.5 -45t-90.5 -28q-61 0 -82 41t-10 107l55 285l5 73h93l-61 -325q-20 -99 33 -99q31 0 72.5 23t68.5 47l26 23l49 256l6 75h92zM279 631q0 -23 -15 -39t-35 -16t-35 16 t-15 39q0 22 15 38.5t35 16.5t35 -16.5t15 -38.5zM463 631q0 -23 -15 -39t-35 -16t-35 16t-15 39q0 22 15 38.5t35 16.5t35 -16.5t15 -38.5z" />
<glyph unicode="&#xfd;" horiz-adv-x="450" d="M-104 -152q25 -10 49 -10q81 0 150 101l44 65l-8 21l-54 384l-28 83l98 13l50 -345l1 -72l33 69l107 179q47 79 5 156l91 13q12 -27 15 -53t-3 -52t-16.5 -49t-27.5 -51l-244 -394q-44 -71 -102.5 -110t-111.5 -39q-25 0 -50 11zM337 723h110l-194 -163l-53 20z" />
<glyph unicode="&#xfe;" horiz-adv-x="530" d="M280 748l-55 -283l-17 -58q9 11 25.5 27.5t61 43.5t82.5 27q47 0 78.5 -41.5t31.5 -117.5q0 -93 -27.5 -172.5t-88.5 -133t-145 -53.5q-16 0 -38 4t-37 8t-16 6l-33 -170l-5 -75h-93l172 885l-7 82zM198 328l-50 -257q34 -16 78 -16q76 0 124.5 84t48.5 193q0 47 -17 70 t-42 23q-22 0 -57.5 -24.5t-60.5 -48.5z" />
<glyph unicode="&#xff;" horiz-adv-x="450" d="M-104 -152q25 -10 49 -10q81 0 150 101l44 65l-8 21l-54 384l-28 83l98 13l50 -345l1 -72l33 69l107 179q47 79 5 156l91 13q12 -27 15 -53t-3 -52t-16.5 -49t-27.5 -51l-244 -394q-44 -71 -102.5 -110t-111.5 -39q-25 0 -50 11zM238 630q0 -23 -15 -39t-35 -16t-35 16 t-15 39q0 22 15 38.5t35 16.5t35 -16.5t15 -38.5zM422 630q0 -23 -15 -39t-35 -16t-35 16t-15 39q0 22 15 38.5t35 16.5t35 -16.5t15 -38.5z" />
<glyph unicode="&#x131;" horiz-adv-x="261" d="M224 503l-84 -428l-4 -75h-94l78 400l5 92z" />
<glyph unicode="&#x141;" horiz-adv-x="426" d="M9 265l102 52l49 249l4 92h103l-56 -288l147 75l-1 -76l-162 -84l-41 -212h254l-34 -73h-324l45 232l-66 -34z" />
<glyph unicode="&#x142;" horiz-adv-x="254" d="M271 755l-77 -394l76 39l-1 -76l-92 -47l-39 -202l-5 -75h-93l44 227l-55 -29l-19 67l90 46l67 341l5 92z" />
<glyph unicode="&#x152;" horiz-adv-x="821" d="M811 658l-13 -72h-220l-42 -214h203l-34 -72h-183l-43 -228h242l-35 -72h-404q-64 0 -111.5 23.5t-73 61.5t-37.5 78t-12 80q0 188 95 301.5t258 113.5h410zM292 60h93l98 506v33h-105q-65 0 -121 -52.5t-86 -129.5t-30 -155q0 -88 40 -145t111 -57z" />
<glyph unicode="&#x153;" horiz-adv-x="769" d="M743 398q0 -63 -44 -106t-107.5 -61t-139.5 -18v-10q0 -60 28.5 -99.5t87.5 -39.5q38 0 75 19t55 38l19 19v-83q-2 -3 -6.5 -7.5t-20 -16.5t-34 -21.5t-49.5 -17t-65 -7.5q-112 0 -157 96q-73 -96 -188 -96q-46 0 -79 19t-49.5 50t-23.5 61.5t-7 62.5q0 143 72.5 235 t189.5 92q94 0 136 -91q71 91 177 91q64 0 97 -30t33 -79zM217 54q57 0 104.5 65.5t47.5 178.5q0 60 -25.5 101.5t-68.5 41.5q-62 0 -107 -77.5t-45 -165.5q0 -65 23.5 -104.5t70.5 -39.5zM598 442q-54 0 -91.5 -51t-50.5 -124q18 1 42 5t62.5 15t64 37.5t25.5 63.5 q0 54 -52 54z" />
<glyph unicode="&#x160;" horiz-adv-x="452" d="M448 641l-40 -73q-59 29 -119 29q-47 0 -79.5 -27.5t-32.5 -68.5q0 -34 22.5 -65t55 -55.5t65 -50.5t55 -63.5t22.5 -82.5q0 -87 -63 -142t-153 -55q-50 0 -92 11t-59 22l-18 11l18 76l4 -3q3 -2 11 -6.5t18 -9t23.5 -9.5t27.5 -9t30 -6.5t31 -2.5q47 0 87.5 27.5 t40.5 79.5q0 35 -23 66t-55.5 55.5t-64.5 50.5t-55 62.5t-23 79.5q0 82 65 135t148 53q40 0 78 -7t57 -15zM332 712h-66l-111 143l57 20l93 -93l111 93l53 -20z" />
<glyph unicode="&#x161;" horiz-adv-x="395" d="M71 364q0 64 54 103.5t123 39.5q30 0 62.5 -6t50.5 -12l18 -6l-32 -72q-49 31 -110 31q-30 0 -56.5 -17.5t-26.5 -46.5q0 -27 19 -49t46.5 -38.5t55 -35t46.5 -49t19 -71.5q0 -69 -52 -108.5t-121 -39.5q-38 0 -72 10.5t-49 21.5l-16 11v84q8 -6 20.5 -16t48 -26 t65.5 -16q34 0 63 17.5t29 51.5q0 26 -19 46t-46 36t-54.5 34.5t-46.5 49.5t-19 73zM278 561h-66l-111 143l57 20l93 -93l111 93l53 -20z" />
<glyph unicode="&#x178;" horiz-adv-x="508" d="M294 297l-43 -222l-4 -75h-100l56 290l-97 297l-39 71h109l82 -247l7 -40l27 42l176 245h95zM293 782q0 -23 -15 -39t-35 -16t-35 16t-15 39q0 22 15 38.5t35 16.5t35 -16.5t15 -38.5zM477 782q0 -23 -15 -39t-35 -16t-35 16t-15 39q0 22 15 38.5t35 16.5t35 -16.5 t15 -38.5z" />
<glyph unicode="&#x17d;" horiz-adv-x="544" d="M-25 0v25l408 502l52 54h-339l36 77h452v-25l-409 -503l-51 -54h374l-14 -76h-509zM406 711h-66l-111 143l57 20l93 -93l111 93l53 -20z" />
<glyph unicode="&#x17e;" horiz-adv-x="472" d="M-2 0v19l284 364l39 41h-252l33 68h353v-19l-283 -364l-39 -41h297l-13 -68h-419zM312 561h-66l-111 143l57 20l93 -93l111 93l53 -20z" />
<glyph unicode="&#x192;" horiz-adv-x="483" d="M439 492l-44 -68h-101l-61 -434q-14 -100 -76 -165t-134 -66l-24 69q59 0 97.5 42t48.5 120l61 434h-69l14 68h63l10 73q13 96 67.5 142.5t120.5 46.5q56 0 108 -34l-48 -69q-27 24 -66 24q-31 0 -56.5 -24.5t-32.5 -67.5l-15 -91h137z" />
<glyph unicode="&#x2c6;" horiz-adv-x="402" d="M176 724h62l111 -143l-55 -20l-94 93l-110 -93l-51 20z" />
<glyph unicode="&#x2c7;" horiz-adv-x="402" d="M225 561h-66l-111 143l57 20l93 -93l111 93l53 -20z" />
<glyph unicode="&#x2d8;" horiz-adv-x="402" d="M198 627q28 0 56 24.5t42 48.5l13 24l53 -20q-2 -6 -6.5 -15.5t-19.5 -34t-33 -43.5t-48 -34.5t-63 -15.5t-60 14.5t-42 35.5t-25 42.5t-13 36.5l-4 14l57 20q1 -4 3.5 -10.5t11 -23t18 -29.5t26 -23.5t34.5 -10.5z" />
<glyph unicode="&#x2d9;" horiz-adv-x="186" d="M147 626q0 -22 -15.5 -38t-37.5 -16t-38 16t-16 38t16 37.5t38 15.5t37.5 -15.5t15.5 -37.5z" />
<glyph unicode="&#x2da;" horiz-adv-x="520" d="M346 650q0 -36 -27.5 -62t-63.5 -26t-62.5 26t-26.5 62t26.5 62t62.5 26t63.5 -26t27.5 -62zM309 651q0 21 -16 37t-37 16q-22 0 -37.5 -15.5t-15.5 -37.5q0 -21 15.5 -39t37.5 -18q24 0 38.5 17.5t14.5 39.5z" />
<glyph unicode="&#x2db;" horiz-adv-x="276" d="M155 0h64q-12 -10 -29 -26t-46.5 -53t-31.5 -60q-2 -18 17 -27.5t41 -8.5t38 2l-6 -59q-5 -1 -19 -1q-75 0 -108 20t-30 62q3 33 30.5 70.5t53.5 58.5z" />
<glyph unicode="&#x2dc;" horiz-adv-x="380" d="M319 672l40 -26q-17 -26 -26.5 -37.5t-31 -22.5t-51.5 -11q-33 0 -69.5 18t-52.5 18q-27 0 -53 -33l-40 26q17 26 26.5 37.5t31 22.5t51.5 11q29 0 66 -19t55 -19q35 0 54 35z" />
<glyph unicode="&#x2dd;" horiz-adv-x="585" d="M199 724h110l-194 -163l-53 20zM382 724h110l-194 -163l-53 20z" />
<glyph unicode="&#x3c0;" horiz-adv-x="424" />
<glyph unicode="&#x2013;" horiz-adv-x="452" d="M31 284h397l-20 -74h-377v74z" />
<glyph unicode="&#x2014;" horiz-adv-x="679" d="M31 284h623l-20 -74h-603v74z" />
<glyph unicode="&#x2018;" horiz-adv-x="250" d="M233 672l28 -35q-24 -21 -49.5 -58.5t-25.5 -62.5q0 -28 21 -33q0 -27 -18.5 -45t-45.5 -18q-22 0 -36.5 17.5t-14.5 43.5q0 45 40 98.5t101 92.5z" />
<glyph unicode="&#x2019;" horiz-adv-x="250" d="M110 420l-28 35q24 21 49.5 58.5t25.5 62.5q0 28 -21 33q0 27 18.5 45t45.5 18q22 0 36.5 -17.5t14.5 -43.5q0 -45 -40 -98.5t-101 -92.5z" />
<glyph unicode="&#x201a;" horiz-adv-x="250" d="M23 -139l-28 35q24 21 49.5 58.5t25.5 62.5q0 28 -21 33q0 27 18.5 45t45.5 18q22 0 36.5 -17.5t14.5 -43.5q0 -45 -40 -98.5t-101 -92.5z" />
<glyph unicode="&#x201c;" horiz-adv-x="427" d="M233 672l28 -35q-24 -21 -49.5 -58.5t-25.5 -62.5q0 -28 21 -33q0 -27 -18.5 -45t-45.5 -18q-22 0 -36.5 17.5t-14.5 43.5q0 45 40 98.5t101 92.5zM410 672l28 -35q-24 -21 -49.5 -58.5t-25.5 -62.5q0 -28 21 -33q0 -27 -18.5 -45t-45.5 -18q-22 0 -36.5 17.5t-14.5 43.5 q0 45 40 98.5t101 92.5z" />
<glyph unicode="&#x201d;" horiz-adv-x="425" d="M110 420l-28 35q24 21 49.5 58.5t25.5 62.5q0 28 -21 33q0 27 18.5 45t45.5 18q22 0 36.5 -17.5t14.5 -43.5q0 -45 -40 -98.5t-101 -92.5zM285 420l-28 35q24 21 49.5 58.5t25.5 62.5q0 28 -21 33q0 27 18.5 45t45.5 18q22 0 36.5 -17.5t14.5 -43.5q0 -45 -40 -98.5 t-101 -92.5z" />
<glyph unicode="&#x201e;" horiz-adv-x="425" d="M23 -139l-28 35q24 21 49.5 58.5t25.5 62.5q0 28 -21 33q0 27 18.5 45t45.5 18q22 0 36.5 -17.5t14.5 -43.5q0 -45 -40 -98.5t-101 -92.5zM198 -139l-28 35q24 21 49.5 58.5t25.5 62.5q0 28 -21 33q0 27 18.5 45t45.5 18q22 0 36.5 -17.5t14.5 -43.5q0 -45 -40 -98.5 t-101 -92.5z" />
<glyph unicode="&#x2020;" horiz-adv-x="487" d="M175 -245h-83l130 669h-129l14 68h129l30 158l86 11l-33 -169h163l-44 -68h-133z" />
<glyph unicode="&#x2021;" horiz-adv-x="487" d="M175 -245h-83l48 245h-129l13 68h129l69 356h-129l14 68h129l30 158l86 11l-33 -169h163l-44 -68h-133l-69 -356h150l-43 -68h-120z" />
<glyph unicode="&#x2022;" horiz-adv-x="424" d="M211 379q55 0 94 -38.5t39 -93.5q0 -56 -39 -95t-94 -39q-56 0 -95 39t-39 95q0 55 39 93.5t95 38.5z" />
<glyph unicode="&#x2026;" horiz-adv-x="663" d="M184 41q0 -22 -15.5 -38t-37.5 -16q-23 0 -38.5 15.5t-15.5 38.5q0 22 16 37.5t38 15.5t37.5 -15.5t15.5 -37.5zM389 41q0 -22 -15.5 -38t-37.5 -16t-38 15.5t-16 38.5q0 22 16 37.5t38 15.5t37.5 -15.5t15.5 -37.5zM589 41q0 -22 -15.5 -38t-37.5 -16t-38 15.5t-16 38.5 q0 22 16 37.5t38 15.5t37.5 -15.5t15.5 -37.5z" />
<glyph unicode="&#x2030;" horiz-adv-x="1151" d="M381 507q0 -61 -46 -105.5t-107 -44.5q-60 0 -105 44.5t-45 105.5t45 105.5t105 44.5q61 0 107 -44.5t46 -105.5zM322 509q0 36 -28.5 63t-64.5 27q-38 0 -65 -26.5t-27 -63.5q0 -36 27 -66.5t65 -30.5q42 0 67.5 30t25.5 67zM756 137q0 -61 -46 -105.5t-107 -44.5 q-60 0 -105 44.5t-45 105.5t45 105.5t105 44.5q61 0 107 -44.5t46 -105.5zM697 139q0 36 -28.5 63t-64.5 27q-38 0 -65 -26.5t-27 -63.5q0 -36 27 -66.5t65 -30.5q42 0 67.5 30t25.5 67zM1109 137q0 -61 -46 -105.5t-107 -44.5q-60 0 -105 44.5t-45 105.5t45 105.5t105 44.5 q61 0 107 -44.5t46 -105.5zM1050 139q0 36 -28.5 63t-64.5 27q-38 0 -65 -26.5t-27 -63.5q0 -36 27 -66.5t65 -30.5q42 0 67.5 30t25.5 67zM733 647l-564 -647h-84l587 674z" />
<glyph unicode="&#x2039;" horiz-adv-x="389" d="M354 412l-206 -166l141 -164l-51 -64l-198 229l287 229z" />
<glyph unicode="&#x203a;" horiz-adv-x="390" d="M240 246l-140 166l51 64l199 -229l-288 -229l-27 64z" />
<glyph unicode="&#x2044;" horiz-adv-x="510" d="M531 650l-450 -650h-85l466 677z" />
<glyph unicode="&#x20ac;" horiz-adv-x="601" d="M39 435h64q52 111 145.5 174.5t199.5 63.5q102 0 159 -42l-38 -74q-52 47 -142 47q-70 0 -135.5 -46.5t-105.5 -122.5h317l-37 -69h-310q-14 -48 -18 -83h285l-36 -69h-249q4 -76 51 -116.5t129 -40.5q39 0 87 18t88 46l-15 -84q-89 -50 -186 -50q-99 0 -164 61t-69 166 h-62l12 69h54q2 27 17 83h-55z" />
<glyph unicode="&#x2122;" horiz-adv-x="802" d="M64 657l9 48h309l-9 -48h-120l-55 -282l-3 -46h-77l64 328h-118zM543 361l-102 190l-34 -176l-3 -46h-62l63 322l3 54h39l120 -235l195 235h43l-64 -330l-3 -46h-77l44 225z" />
<glyph unicode="&#x2126;" horiz-adv-x="368" />
<glyph unicode="&#x2202;" horiz-adv-x="12" d="M12 694v-694h-12v694h12z" />
<glyph unicode="&#x2206;" horiz-adv-x="669" />
<glyph unicode="&#x220f;" horiz-adv-x="424" />
<glyph unicode="&#x2211;" horiz-adv-x="474" />
<glyph unicode="&#x221a;" horiz-adv-x="225" />
<glyph unicode="&#x221e;" horiz-adv-x="619" />
<glyph unicode="&#x222b;" horiz-adv-x="330" />
<glyph unicode="&#x2248;" horiz-adv-x="669" />
<glyph unicode="&#x2260;" horiz-adv-x="480" />
<glyph unicode="&#x2264;" horiz-adv-x="225" />
<glyph unicode="&#x2265;" horiz-adv-x="225" />
<glyph unicode="&#x25ca;" horiz-adv-x="476" />
<glyph unicode="&#x25fc;" horiz-adv-x="505" d="M0 505h505v-505h-505v505z" />
<glyph horiz-adv-x="250" />
<glyph horiz-adv-x="1019" d="M984 418v-252l-112 -66v-138l-241 -128l-120 64l-122 -64l-241 128v138l-113 66v252l113 65v137l241 129l122 -65l120 65l241 -129v-137zM938 178v227l-102 59v124l-218 115l-107 -59l-110 59l-217 -115v-124l-103 -59v-227l103 -58v-125l217 -116l110 60l107 -60 l218 116v125zM895 393v-203l-92 -54v-111l-195 -104l-97 53l-100 -53l-194 104v111l-91 54v203l91 54v111l194 104l100 -54l97 54l195 -104v-111zM368 530l13 -92v-386h107l-17 58v151h169l20 74h-189v121h219v74h-322z" />
<glyph horiz-adv-x="0" />
<glyph d="M53 0l12 66h105l76 423l-102 -32l-12 61l217 71l-95 -523h115l-21 -66h-295z" />
</font>
</defs>
</svg>
