<?xml version="1.0" standalone="no"?>
<!DOCTYPE svg PUBLIC "-//W3C//DTD SVG 1.1//EN" "http://www.w3.org/Graphics/SVG/1.1/DTD/svg11.dtd" >
<svg xmlns="http://www.w3.org/2000/svg" xmlns:xlink="http://www.w3.org/1999/xlink" version="1.1">
<metadata></metadata>
<defs>
<font id="fontinregular" horiz-adv-x="553" >
<font-face units-per-em="1000" ascent="800" descent="-200" />
<missing-glyph horiz-adv-x="310" />
<glyph horiz-adv-x="500" />
<glyph unicode=" "  horiz-adv-x="310" />
<glyph unicode="&#x09;" horiz-adv-x="310" />
<glyph unicode="&#xa0;" horiz-adv-x="310" />
<glyph unicode="!" horiz-adv-x="264" d="M189 41q0 -22 -15.5 -38t-37.5 -16t-38 15.5t-16 38.5q0 22 16 37.5t38 15.5t37.5 -15.5t15.5 -37.5zM151 152h-29l-36 488q-2 24 -8 41.5t-11 22.5l-5 6v23q33 22 64 22q26 0 42.5 -5.5t24 -18.5t10 -27.5t-0.5 -38.5t-7 -45.5t-9 -54.5t-7 -60z" />
<glyph unicode="&#x22;" horiz-adv-x="392" d="M130 759h52l-11 -81q-15 -102 -91 -132q-12 -4 -25 -3t-15 3q30 27 41 81.5t18 93t31 38.5zM290 759h52l-11 -81q-15 -102 -91 -132q-12 -4 -25 -3t-15 3q30 27 41 81.5t18 93t31 38.5z" />
<glyph unicode="#" horiz-adv-x="704" d="M63 382l7 64q0 -2 147 -4q9 105 9 149q0 25 -8 62q25 19 44 19q22 0 27.5 -17.5t5.5 -52.5q0 -21 -16 -160h132q9 105 9 149q0 25 -8 62q25 19 44 19q22 0 27.5 -17.5t5.5 -52.5q0 -21 -16 -160h48q128 0 139 8q-3 -21 -15 -35t-22 -20.5t-36 -9.5t-34 -3h-41h-46 q-3 -23 -7.5 -66t-6.5 -63h51q128 0 139 8q-3 -21 -15 -35t-22 -20.5t-36 -9.5t-34 -3h-41h-48q-11 -104 -15 -185l-68 -15q17 145 23 200h-134q-11 -104 -15 -185l-68 -15q18 153 23 201h-129q-14 0 -18 -1l7 64q0 -2 147 -4q2 17 4.5 45t4.5 48t4 37h-131q-14 0 -18 -1z M392 253q3 25 14 129h-133q-10 -84 -15 -129h134z" />
<glyph unicode="$" horiz-adv-x="458" d="M271 -106h-49q0 63 1 93q-65 1 -104.5 28t-39.5 62q0 19 12 34q6 -22 44.5 -40t84.5 -18h3q2 182 2 236q-42 28 -60 41t-47.5 41t-42 57.5t-12.5 65.5q0 65 42 116.5t117 60.5q-1 14 -2.5 37t-1.5 32q23 5 28 5t9 -1t6.5 -3.5t4.5 -5.5t3 -8t1.5 -8.5t0.5 -10v-11 t-0.5 -12.5t-0.5 -13q60 -4 100.5 -29.5t40.5 -66.5q0 -17 -9 -38q-3 26 -43 46t-90 23q-1 -27 -1.5 -100.5t-0.5 -109.5q39 -23 63 -40.5t53 -45t43 -60.5t14 -73q0 -70 -47 -122t-124 -65zM345 149q0 55 -79 112q-1 -56 1 -203q78 20 78 91zM140 521q0 -46 85 -99 q0 136 -1 183q-84 -13 -84 -84z" />
<glyph unicode="%" horiz-adv-x="798" d="M211 0h-71q258 368 348 501.5t92 157.5q19 15 40 15q30 0 30 -20q0 -9 -6 -22t-12.5 -22.5t-16.5 -23t-12 -15.5q-2 -3 -90.5 -128.5t-180.5 -259t-121 -183.5zM610 323q-76 0 -123 -48t-47 -125q0 -79 37.5 -120t94.5 -41q76 0 124 50t50 124q0 76 -38.5 118t-97.5 42z M596 29q-42 0 -65.5 38.5t-23.5 103.5q0 51 21.5 81t57.5 30q44 0 69.5 -37t25.5 -100q0 -52 -24.5 -84t-60.5 -32zM235 673q-76 0 -123 -48t-47 -125q0 -79 37.5 -120t94.5 -41q76 0 124 50t50 124q0 76 -38.5 118t-97.5 42zM221 379q-42 0 -65.5 38.5t-23.5 103.5 q0 51 21.5 81t57.5 30q44 0 69.5 -37t25.5 -100q0 -52 -24.5 -84t-60.5 -32z" />
<glyph unicode="&#x26;" horiz-adv-x="759" d="M539 492l-10 -14q9 -41 9 -74q0 -141 -48 -233q-106 103 -194 238q17 10 36.5 24.5t55 45.5t58.5 71t23 79q0 56 -44 91t-115 35q-88 0 -139.5 -46t-51.5 -120q0 -77 73 -203q-130 -95 -130 -210q0 -78 55.5 -133.5t146.5 -55.5q127 0 202 73q93 -73 179 -73 q51 0 78.5 22.5t27.5 54.5q-30 -14 -60 -14q-66 0 -166 88q59 109 67 294q8 0 24 -0.5t21 -0.5q32 0 54.5 14.5t22.5 38.5l-2 20q-5 -12 -35 -12h-138zM212 353q98 -156 215 -261q-47 -38 -105 -38q-69 0 -118.5 54.5t-49.5 123.5q0 74 58 121zM397 608q0 -29 -14 -57 t-37 -50t-39 -34.5t-32 -22.5q-68 114 -68 178q0 39 25.5 61t66.5 22q46 0 72 -25.5t26 -71.5z" />
<glyph unicode="'" horiz-adv-x="232" d="M130 759h52l-11 -81q-15 -102 -91 -132q-12 -4 -25 -3t-15 3q30 27 41 81.5t18 93t31 38.5z" />
<glyph unicode="(" horiz-adv-x="330" d="M64 237q0 -119 33 -233t89 -186t117 -72q-5 0 -21 23.5t-38 69t-42.5 103t-34.5 137t-14 158.5q0 76 13.5 148t33 122.5t41 89.5t38.5 58t24 19q-67 0 -122.5 -63t-86 -163t-30.5 -211z" />
<glyph unicode=")" horiz-adv-x="330" d="M266 237q0 -119 -33 -233t-89 -186t-117 -72q5 0 21 23.5t38 69t42.5 103t34.5 137t14 158.5q0 76 -13.5 148t-33 122.5t-41 89.5t-38.5 58t-24 19q67 0 122.5 -63t86 -163t30.5 -211z" />
<glyph unicode="*" horiz-adv-x="402" d="M256 622l-7 -12q-1 -2 -3 -3h30q109 0 120 8q-7 -42 -37.5 -55t-82.5 -13h-29l4 -6q5 -9 14.5 -25t14.5 -24t12 -20t11 -18.5t9 -13.5t8.5 -10.5t6.5 -4.5q-17 -6 -30 -6q-17 0 -31 6.5t-27 23.5t-20 28t-21 37l-4 12l-5 -12q-59 -102 -59 -117v-2q-29 23 -29 56 q0 32 40 100q-19 1 -54 1q-73 0 -85 -9q4 24 16.5 39t35 20.5t39 7t47.5 1.5h7l-2 3q-60 108 -77 116q17 6 29 6q16 0 29.5 -7t26.5 -22t20.5 -26t20.5 -33l4 -11q2 8 4 11q62 100 62 122v2q29 -23 29 -55q0 -29 -37 -95z" />
<glyph unicode="+" horiz-adv-x="471" d="M261 68h-64q4 0 4 155q-24 0 -53.5 0.5t-51 0.5h-23.5q-14 0 -18 -1v64q0 -4 146 -4v13q0 127 -8 138q23 5 32 5q8 0 14 -2t10.5 -4.5t7 -8t4 -9.5t2 -12.5t0.5 -13v-15.5v-15q0 -2 -0.5 -28t-0.5 -48h21q128 0 139 8q-3 -21 -15 -35t-22 -20.5t-36 -9.5t-34 -3h-41h-13 q-1 -48 -1 -137q0 -14 1 -18z" />
<glyph unicode="," horiz-adv-x="207" d="M30 -144l-18 24q66 63 66 110q0 44 -29 44q-3 24 13 42t38 18q57 0 57 -64q0 -39 -33.5 -87t-93.5 -87z" />
<glyph unicode="-" horiz-adv-x="302" d="M29 213v64q0 -4 108 -4q128 0 139 8q-3 -21 -15 -35t-22 -20.5t-36 -9.5t-34 -3h-41q-13 0 -44 0.5t-37 0.5q-14 0 -18 -1z" />
<glyph unicode="." horiz-adv-x="207" d="M157 41q0 -22 -15.5 -38t-37.5 -16t-38 15.5t-16 38.5q0 22 16 37.5t38 15.5t37.5 -15.5t15.5 -37.5z" />
<glyph unicode="/" horiz-adv-x="291" d="M53 -244h-79q90 358 142 608.5t48 290.5q4 7 26 15.5t41 8.5q22 0 23 -26q1 -12 -2 -28t-7.5 -33t-5.5 -21q0 -2 -15 -63t-33 -136t-41 -173.5t-42.5 -183t-35 -157t-19.5 -102.5z" />
<glyph unicode="0" horiz-adv-x="569" d="M282 -13q112 11 174.5 97.5t62.5 215.5q0 141 -59.5 214.5t-154.5 73.5q-116 0 -185.5 -87.5t-69.5 -223.5q0 -146 60 -218.5t151 -72.5q14 0 21 1zM257 525q1 0 5 0.5t6 0.5q70 0 116 -74t46 -190q0 -95 -41 -158.5t-96 -65.5q-67 0 -110.5 79t-45.5 201q0 83 35 141 t85 66z" />
<glyph unicode="1" horiz-adv-x="322" d="M237 0h-99v4l3 422q2 52 -18 68l-85 -27l-18 49l170 74h15l25 -42q-3 -60 -3 -77q0 -169 2 -396q0 -37 8 -75z" />
<glyph unicode="2" horiz-adv-x="448" d="M40 0h291q82 0 82 57q0 13 -3 23q-9 -9 -26 -10.5t-93 -1.5h-171q11 8 28.5 22.5t62.5 58.5t79.5 87t63 101.5t28.5 108.5q0 59 -44 100.5t-135 41.5q-64 0 -112.5 -25t-48.5 -66q0 -31 27 -41t49 12v7q0 25 22 44t53 19q44 0 66 -35.5t22 -87.5q0 -45 -24.5 -99.5 t-60 -100.5t-71 -84.5t-60.5 -62.5l-25 -24v-44z" />
<glyph unicode="3" horiz-adv-x="440" d="M73 -83q-21 0 -34 11t-16 22l-3 11q16 -2 26 -2q56 0 106.5 15.5t90.5 57t42 103.5q0 35 -9 61.5t-21 41t-32 25t-34 13.5t-35 7l11 27q1 0 2 1q45 21 74 58.5t29 77.5q0 36 -20 63.5t-62 27.5q-32 0 -55 -19.5t-20 -50.5q-29 -22 -53 -11t-24 40q0 39 46 65t108 26 q87 0 132.5 -38t45.5 -88q0 -86 -123 -149q29 -4 51 -12t45.5 -24.5t36 -47.5t12.5 -75q0 -60 -30 -107.5t-78 -74.5t-101.5 -41t-107.5 -14z" />
<glyph unicode="4" horiz-adv-x="500" d="M43 99l-13 15q32 98 136.5 272t150.5 204h61l-2 -42q-3 -60 -3 -77q-1 -137 0 -304q55 0 75.5 2t28.5 10q18 -79 -79 -80h-24q0 -73 1 -106q0 -37 8 -75h-99v4l1 177h-242zM294 490q-31 -34 -89 -139.5t-87 -183.5h167l2 247q1 39 7 76z" />
<glyph unicode="5" horiz-adv-x="443" d="M98 575h162h18q60 0 76 1.5t25 10.5q18 -79 -79 -80h-166l-6 -141q257 0 257 -202q0 -118 -87 -182.5t-200 -64.5q-21 0 -34 11t-16 22l-3 11q16 -2 26 -2q84 0 145 47t64 139q0 57 -22.5 95.5t-49.5 53t-59 19.5q-20 3 -38.5 3.5t-26.5 -0.5l-9 -2l-9 16l16 232z" />
<glyph unicode="6" horiz-adv-x="540" d="M324 414q-82 0 -154 -52q9 124 58.5 186t117.5 62q37 0 76.5 -16.5t53.5 -38.5q3 11 3 29q0 29 -26.5 49t-59.5 27.5t-67 7.5q-35 0 -69 -12t-68.5 -41.5t-60.5 -72.5t-42.5 -111.5t-16.5 -152.5q0 -74 19 -137.5t66 -108.5t116 -45q99 0 158.5 72.5t59.5 173.5 q0 91 -46.5 136t-117.5 45zM168 309v26q43 26 106 26q57 0 88.5 -44t31.5 -123q0 -74 -26 -115t-74 -41q-34 0 -60 24.5t-39.5 65.5t-20 86.5t-6.5 94.5z" />
<glyph unicode="7" horiz-adv-x="416" d="M151 -24l251 582l-16 17h-229h-18q-60 0 -76 1.5t-25 10.5q-3 -12 -3 -22.5t6 -25.5t19.5 -25.5t43 -18t72.5 -7.5q48 0 79.5 3t38.5 6l8 3l-199 -461q-39 -94 -67 -106q10 -8 23.5 -12t30.5 -3.5t33.5 15.5t27.5 43z" />
<glyph unicode="8" horiz-adv-x="512" d="M65 142q0 54 25.5 98.5t50.5 64.5t54 35q-54 42 -83.5 80t-29.5 82q0 75 51 120.5t138 45.5q71 0 115 -35t44 -91q0 -31 -13 -60.5t-34 -50.5t-37 -33.5t-32 -22.5q36 -26 57.5 -44t46.5 -44t37 -52.5t12 -54.5q0 -84 -63.5 -138.5t-158.5 -54.5q-71 0 -125.5 38 t-54.5 117zM254 40q45 -1 82 32t37 73q0 28 -22 59t-42 47.5t-67 52.5q-9 7 -14 11q-89 -47 -89 -153q0 -54 33 -87.5t82 -34.5zM170 535q0 -34 28.5 -65.5t83.5 -71.5q76 39 76 123q0 46 -26 71.5t-72 25.5q-41 0 -65.5 -22t-24.5 -61z" />
<glyph unicode="9" horiz-adv-x="548" d="M213 161q86 -5 164 51q-11 -128 -61 -189t-121 -58q-36 2 -72.5 18t-50.5 37q-3 -12 -3 -23q-4 -43 40.5 -65t102.5 -25q45 -2 87.5 16t82 58t65.5 115t31 175q4 77 -12.5 144.5t-62 118t-114.5 54.5q-98 4 -160.5 -63t-67.5 -166q-5 -94 39 -145t113 -53zM259 537 q36 -2 61.5 -31t38 -75t17.5 -94.5t3 -97.5q-19 -11 -54.5 -18.5t-60.5 -5.5q-56 2 -85 52.5t-24 135.5q2 65 30.5 100.5t73.5 33.5z" />
<glyph unicode=":" horiz-adv-x="258" d="M189 42q0 -24 -16.5 -40.5t-39.5 -16.5q-24 0 -40.5 16.5t-16.5 40.5q0 23 16.5 39.5t40.5 16.5q23 0 39.5 -16.5t16.5 -39.5zM189 330q0 -24 -16.5 -40.5t-39.5 -16.5q-24 0 -40.5 16.5t-16.5 40.5q0 23 16.5 39.5t40.5 16.5q23 0 39.5 -16.5t16.5 -39.5z" />
<glyph unicode=";" horiz-adv-x="258" d="M167 327q0 -22 -15.5 -38t-37.5 -16t-38 15.5t-16 38.5q0 22 16 37.5t38 15.5t37.5 -15.5t15.5 -37.5zM41 -144l-18 24q66 63 66 110q0 44 -29 44q-3 24 13 42t38 18q57 0 57 -64q0 -39 -33.5 -87t-93.5 -87z" />
<glyph unicode="&#x3c;" horiz-adv-x="369" d="M131 247q21 14 33 31l111 148q27 34 47 41h-15q-29 0 -63.5 -11.5t-53.5 -32.5l-131 -156l-20 -20q14 -13 22 -22l133 -157q18 -21 51 -32t62 -11h15q-10 4 -21 13t-17 16l-5 7l-113 153q-7 8 -15.5 16.5t-14.5 12.5z" />
<glyph unicode="=" horiz-adv-x="480" d="M55 293v64q0 -4 228 -4q128 0 139 8q-3 -21 -15 -35t-22 -20.5t-36 -9.5t-34 -3h-41q-13 0 -104 0.5t-97 0.5q-14 0 -18 -1zM55 143v64q0 -4 228 -4q128 0 139 8q-3 -21 -15 -35t-22 -20.5t-36 -9.5t-34 -3h-41q-13 0 -104 0.5t-97 0.5q-14 0 -18 -1z" />
<glyph unicode="&#x3e;" horiz-adv-x="369" d="M231 247q-21 14 -33 31l-111 148q-27 34 -47 41h15q29 0 63.5 -11.5t53.5 -32.5l132 -156l19 -20q-14 -13 -22 -22l-133 -157q-18 -21 -51 -32t-62 -11h-15q10 4 21 13t17 16l5 7l113 153q7 8 15.5 16t14.5 12z" />
<glyph unicode="?" horiz-adv-x="415" d="M174 163l-20 -11q-70 32 -70 89q0 40 21 80t50.5 73.5t59.5 65.5t51 66.5t21 66.5q0 110 -103 110q-31 0 -54.5 -19t-23.5 -53q0 -11 5 -28q-14 -21 -43 -21q-26 0 -39 16t-13 35q0 56 49 89t122 33q87 0 136.5 -51.5t49.5 -133.5q0 -43 -23 -86t-55.5 -78t-65 -67.5 t-55.5 -66.5t-23 -64q0 -27 23 -45zM207 41q0 -22 -15.5 -38t-37.5 -16t-38 15.5t-16 38.5q0 22 16 37.5t38 15.5t37.5 -15.5t15.5 -37.5z" />
<glyph unicode="@" horiz-adv-x="902" d="M595 170q0 -84 9 -106q12 -26 40 -27q51 0 92.5 73t41.5 172q0 131 -93 223.5t-225 92.5q-144 0 -238.5 -107t-94.5 -269q0 -140 72 -236t190 -117q7 -2 24 -2q29 0 38 6q-16 -59 -92 -59q-124 0 -214.5 117.5t-90.5 266.5q0 124 57.5 230t156.5 168t216 62 q151 0 253.5 -100t102.5 -250q0 -132 -70.5 -233.5t-171.5 -101.5q-44 0 -68.5 27.5t-20.5 84.5q-24 -48 -60.5 -72t-72.5 -24q-60 0 -103.5 59t-43.5 138q0 138 84 229t203 91q46 0 92 -15q-4 -31 -6.5 -74t-3 -77t-1.5 -88t-2 -82zM503 107l13 355h-13t-28 -5t-39.5 -13 t-40.5 -27.5t-38.5 -46t-26.5 -70t-11 -97.5q0 -57 31.5 -99.5t73.5 -42.5q44 0 79 46z" />
<glyph unicode="A" horiz-adv-x="590" d="M350 681q6 -33 24 -85l176 -516q12 -44 35 -80h-121q-2 22 -7 34l-67 196h-232l-76 -217q-1 -3 -2 -7.5t-1 -5.5h-74l227 596q6 19 15.5 33.5t18.5 22.5t21.5 13.5t21.5 7.5t22 4.5t19 3.5zM373 278l-97 285l-101 -285h198z" />
<glyph unicode="B" horiz-adv-x="556" d="M110 0l1 68v462q0 14 -1 26.5t-1.5 21.5t-3 17.5t-3.5 13t-4 11t-4 8l-5 7.5l-4 6l7 17l177 5q92 3 142.5 -40.5t50.5 -102.5q0 -87 -97 -144q141 -41 141 -174q0 -92 -64.5 -147t-173.5 -55h-158zM253 341l-42 2q-2 -196 2 -295h64q70 0 105 35.5t35 85.5 q0 81 -45.5 125t-118.5 47zM265 389q33 0 67 -6q45 43 45 109q0 54 -32 85.5t-80 30.5l-49 -1q0 -64 -1 -107q-3 -108 -3 -111h53z" />
<glyph unicode="C" horiz-adv-x="609" d="M565 152q4 -8 4 -21q0 -64 -65.5 -104t-161.5 -40q-137 0 -213.5 92t-76.5 236q0 157 88.5 256t231.5 99q64 0 121 -24.5t74 -58.5q0 -18 -19.5 -49.5t-43.5 -41.5l-16 13q0 28 -34 64.5t-94 36.5q-97 0 -147.5 -73t-50.5 -179q0 -126 58.5 -214.5t165.5 -88.5 q49 0 101.5 25.5t77.5 71.5z" />
<glyph unicode="D" horiz-adv-x="677" d="M322 0h-212q1 17 1 47v21v454q0 87 -26 119l7 17l226 5q126 2 216.5 -80.5t90.5 -233.5q0 -150 -83.5 -249.5t-219.5 -99.5zM334 53q70 0 125.5 68.5t56.5 175.5q2 131 -70 222.5t-174 87.5l-56 -2q0 -4 -2.5 -142t-2.5 -215q0 -112 3 -195h120z" />
<glyph unicode="E" horiz-adv-x="500" d="M111 530q0 14 -1 26.5t-1.5 21.5t-3 17.5t-3.5 13t-4 11t-4 8l-5 7.5l-4 6l7 17h150l171 3q17 -17 20 -60.5t-7 -50.5h-19q-5 23 -34 38.5t-71 16.5l-85 3q-7 -119 -7 -244h157q14 0 23 3t12 7l2 3q2 -8 2 -20q0 -20 -8 -32t-25 -16.5t-27 -5.5t-30 -1q-1 0 -25 0.5 t-44 0.5h-38q-1 -98 3 -234q0 -2 2 -6h190q14 0 23 3.5t11 6.5l3 3q2 -8 2 -20q0 -16 -6.5 -27.5t-14.5 -16.5t-22.5 -8t-23 -3.5t-23.5 -0.5h-243l1 68v462z" />
<glyph unicode="F" horiz-adv-x="475" d="M220 0h-110l1 68v462q0 14 -1 26.5t-1.5 21.5t-3 17.5t-3.5 13t-4 11t-4 8l-5 7.5l-4 6l7 17h151l171 3q17 -17 20 -60.5t-7 -50.5h-19q-5 23 -34 38.5t-71 16.5l-86 3q-7 -119 -7 -244h157q14 0 23 3t12 7l2 3q2 -8 2 -20q0 -20 -8 -32t-25 -16.5t-27 -5.5t-30 -1 q-1 0 -25 0.5t-44 0.5h-38q-1 -98 3 -234q0 -42 8 -69z" />
<glyph unicode="G" horiz-adv-x="646" d="M372 670h1q64 0 121 -24.5t74 -58.5q0 -18 -19.5 -49.5t-43.5 -41.5l-16 13q0 28 -34 64.5t-95 36.5q-85 0 -139.5 -63t-57.5 -181q0 -148 66.5 -232t154.5 -84q15 0 38 3.5t38 7.5l16 4v77q0 14 -1 26.5t-1.5 21.5t-3 17.5t-3.5 13t-4 10.5l-4 8t-4.5 7t-4.5 6l7 17 q31 13 69 13q32 0 57 -12q-6 -113 -7 -158l1 -91q-16 -2 -28 -5q-139 -29 -222 -29q-112 0 -193.5 89.5t-81.5 238.5q0 157 88.5 256t231.5 99z" />
<glyph unicode="H" horiz-adv-x="755" d="M643 264q0 -241 11 -264h-107q-3 17 -3 58v39t0.5 97.5t0.5 112.5h-337v-43q0 -241 11 -264h-110q2 66 2 531q0 14 -1 26.5t-1.5 21.5t-3 17.5t-3.5 13t-4 10.5l-4 8t-4.5 7t-4.5 6l7 17q31 13 69 13q32 0 57 -12q-7 -161 -10 -300h337q1 74 1 172q0 14 -1 26.5 t-1.5 21.5t-3 17.5t-3.5 13t-4 10.5l-4 8t-4.5 7t-4.5 6l7 17q30 13 68 13q31 0 58 -12q-10 -224 -10 -395z" />
<glyph unicode="I" horiz-adv-x="319" d="M219 0h-110q2 66 2 532q0 14 -1 26.5t-1.5 21.5t-3 17.5t-3.5 13t-4 10.5l-4 8t-4.5 7t-4.5 6l7 17q31 13 69 13q32 0 57 -12q-10 -224 -10 -396q0 -241 11 -264z" />
<glyph unicode="J" horiz-adv-x="314" d="M207 59q-1 -117 -73.5 -182.5t-164.5 -65.5q-38 0 -60 20t-22 46q0 18 12.5 30.5t35.5 12.5q10 0 22 -3q5 -41 52 -41q57 0 79.5 45t22.5 141q0 430 -2 470q0 14 -1 26.5t-1.5 21.5t-3 17.5t-3.5 13t-4 10.5l-4 8t-4.5 7t-4.5 6l7 17q31 13 69 13q32 0 57 -12 q-10 -224 -10 -396q0 -28 0.5 -103.5t0.5 -101.5z" />
<glyph unicode="K" horiz-adv-x="581" d="M219 0h-110q2 66 2 532q0 14 -1 26.5t-1.5 21.5t-3 17.5t-3.5 13t-4 10.5l-4 8t-4.5 7t-4.5 6l7 17q31 13 69 13q32 0 57 -12q-7 -166 -10 -312l207 228q22 23 22 47q0 9 -5 19l7 17q28 11 68 11q44 0 56 -10q-8 -14 -14 -23.5t-11.5 -18.5t-17 -22t-20.5 -23t-31.5 -33 t-40.5 -41t-56.5 -57.5t-71.5 -72.5q17 -23 97.5 -131t129.5 -172t54 -66h-139q-129 206 -211 299l-23 28v-63q0 -241 11 -264z" />
<glyph unicode="L" horiz-adv-x="471" d="M438 0h-329q2 66 2 532q0 14 -1 26.5t-1.5 21.5t-3 17.5t-3.5 13t-4 10.5l-4 8t-4.5 7t-4.5 6l7 17q31 13 69 13q32 0 57 -12q-10 -224 -10 -396q0 -154 3 -209h115q43 0 71.5 15t33.5 38h19q10 -12 6.5 -52.5t-18.5 -55.5z" />
<glyph unicode="M" horiz-adv-x="900" d="M471 -21l-42 9q-55 10 -73 76l-165 405q-7 18 -17 58q2 -28 2 -66q-7 -396 -7 -409q0 -36 4 -52h-73l2 16q19 353 22 588q-17 31 -27 38l7 17q37 13 69 13q42 0 63 -15q18 -70 98.5 -271.5t121.5 -287.5q201 516 205 525q2 6 6 11t10 9t11 7t14.5 5.5t15 4t18 3t18 2 t20.5 1.5t21 2q-1 -23 -1.5 -40.5t-0.5 -50.5t-1 -73q-3 -171 6 -445q2 -40 7 -59h-110l1 60q2 125 -4 407q0 9 -1 32t-1 28l-21 -65l-171 -398z" />
<glyph unicode="N" horiz-adv-x="756" d="M580 215q2 5 2 319q0 77 -26 108l7 17q17 12 50 12q31 0 45 -11q-12 -266 -12 -469q0 -113 5 -191h-55l-380 435q-34 44 -41 62q3 -16 3 -44q0 -24 -1 -73.5t-1 -74.5q0 -226 10 -305h-72v16q1 130 1 357v161q0 73 -26 108l7 17q39 16 60 10q17 -20 32 -38t40.5 -46.5 t111.5 -127.5t210 -241q9 -10 18.5 -26t13.5 -27l5 -11q-7 42 -7 63z" />
<glyph unicode="O" horiz-adv-x="680" d="M362 670q-136 0 -224.5 -99t-88.5 -253t76.5 -242.5t177.5 -88.5q145 0 233.5 100.5t91.5 253.5q0 156 -76 242.5t-190 86.5zM351 47q-80 0 -137 92t-57 211q0 107 49 182.5t121 75.5q78 0 135 -89t57 -212q0 -108 -48.5 -184t-119.5 -76z" />
<glyph unicode="P" d="M219 0h-109v16q0 31 1 118.5t0 131.5q0 27 0.5 96.5t0 98.5t-2.5 74t-8.5 69t-16.5 37l7 17l180 6h11q41 0 77.5 -9.5t70 -31t53.5 -63.5t20 -100q0 -91 -69.5 -150.5t-170.5 -59.5q-26 0 -53 6q4 -220 9 -256zM273 300q60 0 100.5 38t40.5 100q0 87 -45.5 129.5 t-101.5 40.5l-54 -2q-3 -36 -3 -267v-30q18 -9 63 -9z" />
<glyph unicode="Q" horiz-adv-x="683" d="M362 670q-136 0 -224.5 -99t-88.5 -253t76.5 -242.5t177.5 -88.5q1 0 4 0.5t5 0.5q10 -80 66 -128.5t126 -48.5q48 0 77 15.5t54 50.5q-8 -2 -19 -2q-81 0 -148.5 30t-92.5 90q115 24 182.5 118.5t70.5 227.5q0 156 -76 242.5t-190 86.5zM351 47q-80 0 -137 92t-57 211 q0 107 49 182.5t121 75.5q78 0 135 -89t57 -212q0 -108 -48.5 -184t-119.5 -76z" />
<glyph unicode="R" horiz-adv-x="595" d="M219 0h-109v16q0 31 1 118.5t0 131.5q0 27 0.5 96.5t0 98.5t-2.5 74t-8.5 69t-16.5 37l7 17q184 5 191 5q41 0 77 -9.5t70 -30.5t54 -63t20 -100q0 -66 -37.5 -116.5t-100.5 -74.5q13 -6 115 -132.5t115 -136.5h-135q-7 15 -17.5 32t-27 38.5t-27 35t-33.5 40t-30 35 t-33.5 38t-28.5 31.5q-26 0 -53 6q4 -220 9 -256zM273 300q60 0 100.5 38t40.5 100q0 88 -45.5 130t-101.5 40l-54 -2q-3 -36 -3 -267v-30q18 -9 63 -9z" />
<glyph unicode="S" horiz-adv-x="480" d="M219 -13q-65 0 -114.5 31t-49.5 70q0 16 11 33q6 -22 54 -43t95 -21q52 0 88.5 21.5t36.5 70.5q0 37 -29 69t-70.5 58.5t-83 55t-70.5 70t-29 92.5q0 71 49.5 125t135.5 54q81 0 157 -45q7 -16 3.5 -54t-20.5 -55l-19 4q-16 48 -56 72t-76 24q-38 0 -67.5 -22.5 t-29.5 -62.5q0 -36 31 -67.5t75 -57.5t88 -55.5t75 -74.5t31 -101q0 -80 -60.5 -135.5t-155.5 -55.5z" />
<glyph unicode="T" horiz-adv-x="541" d="M374 658h-203l-138 6q-21 -23 -22.5 -66.5t6.5 -47.5h19q3 23 32 38t73 15h77q4 -24 4 -76q2 -252 0 -511v-16h109q-6 36 -6 44q-1 39 -1 109.5t0.5 145t1 141.5t1 114.5t0.5 48.5h77q44 0 73 -15t32 -38h19q8 4 6.5 47.5t-22.5 66.5z" />
<glyph unicode="U" horiz-adv-x="706" d="M609 217q0 -100 -68 -165.5t-187 -65.5q-113 0 -175 49.5t-66 173.5q-5 190 -5 323q0 14 -1 26.5t-1.5 21.5t-3 17.5t-3.5 13t-4 10.5l-4 8t-4.5 7t-4.5 6l7 17q31 13 69 13q32 0 57 -12q-5 -124 -5 -438q0 -52 15 -88t40 -52t48.5 -22.5t49.5 -6.5q73 0 122.5 39 t53.5 95q4 33 4 347q0 77 -26 108l7 17q17 12 50 12q31 0 45 -11q-10 -222 -10 -443z" />
<glyph unicode="V" horiz-adv-x="625" d="M358 -21l27 85l194 461q33 79 36 133q-20 14 -52 14q-33 0 -61 -13l-7 -17q21 -22 21 -56q0 -29 -15 -66l-136 -348l-22 -74q-33 75 -104.5 278.5t-87.5 277.5q-18 18 -60 18q-39 0 -69 -14l-7 -17q5 -2 13.5 -11.5t25.5 -45t34 -87.5l155 -433q17 -65 73 -76z" />
<glyph unicode="W" horiz-adv-x="928" d="M676 -21l27 85l176 461q31 79 36 133q-22 10 -58 10q-35 0 -55 -10l-7 -17q21 -22 21 -56q0 -28 -15 -65l-118 -348q-6 -15 -11 -33.5t-8 -29.5l-2 -11q-30 66 -93.5 270t-81.5 286q-18 18 -61 18q-41 0 -71 -14l-7 -17q5 -2 13.5 -11.5t25.5 -45t34 -87.5l19 -59 l-90 -266q-6 -15 -11 -33.5t-7 -29.5l-3 -11q-30 66 -93.5 270t-81.5 286q-18 18 -61 18q-41 0 -71 -14l-7 -17q5 -2 13.5 -11.5t25.5 -45t34 -87.5l140 -433q17 -65 73 -76l42 -9l27 85l102 274l89 -274q17 -65 73 -76z" />
<glyph unicode="X" horiz-adv-x="527" d="M51 49l173 273l-95 176q-7 13 -16 30t-13.5 25t-10.5 19.5t-9.5 17t-8 13t-7.5 11t-7 8.5t-8 7.5t-8.5 5.5t-9.5 6l7 17q30 14 69 14q42 0 60 -18q5 -11 14.5 -32t15 -33t18 -36.5t32 -60.5t48.5 -87q10 20 21 38l52 85q33 55 33 78t-11 35l7 17q23 14 56 14q35 0 57 -14 q-9 -51 -67 -137l-117 -173l159 -289q8 -15 20 -30t19 -22l8 -7h-133l-141 262q-19 -35 -29 -50l-102 -158q-7 -12 -12.5 -25.5t-7.5 -20.5l-2 -8h-89z" />
<glyph unicode="Y" horiz-adv-x="520" d="M329 0h-109v16q0 41 0.5 98t0.5 73q0 97 -1 114q-7 7 -21 31l-96 168q-13 23 -28 51t-21 39t-15 23.5t-16 18t-18 9.5l7 17q30 14 70 14q42 0 59 -18q22 -55 70 -147.5t75 -136.5q6 18 17 37l83 147q26 47 1 87l7 17q30 14 56 14q25 0 53 -14q0 -17 -19.5 -62.5 t-38.5 -74.5l-123 -198q0 -17 -0.5 -69t-0.5 -82q0 -120 8 -172z" />
<glyph unicode="Z" horiz-adv-x="566" d="M18 0l-3 20q20 22 26 31l332 516l30 34h-95h-131q-44 0 -73 -15t-32 -38h-19q-8 4 -6.5 49.5t22.5 68.5l138 -6h331l3 -21q-19 -22 -25 -32l-328 -510l-28 -32h115h137q44 0 73 15t32 38h19q8 -4 6.5 -49.5t-22.5 -68.5h-138h-364z" />
<glyph unicode="[" horiz-adv-x="248" d="M193 724v-48h-81v-697h81v-48h-165v793h165z" />
<glyph unicode="\" horiz-adv-x="356" d="M285 -244h79q-120 356 -194.5 607t-74.5 292q-4 7 -26.5 15.5t-42.5 8.5q-21 0 -21 -26q0 -12 4.5 -27.5t11 -34t7.5 -20.5l20 -63q21 -62 45 -136t56 -173.5t58.5 -183.5t48.5 -156.5t29 -102.5z" />
<glyph unicode="]" horiz-adv-x="249" d="M56 724v-48h81v-697h-81v-48h165v793h-165z" />
<glyph unicode="^" horiz-adv-x="624" d="M551 320h-70l-170 307q-62 -113 -170 -307h-70q50 88 103 185t81 150l28 53h56q198 -364 212 -388z" />
<glyph unicode="_" horiz-adv-x="450" d="M480 -75l-30 -60h-450v60h480z" />
<glyph unicode="`" horiz-adv-x="338" d="M122 724h-60l39 -68q53 -91 135 -91q8 0 17 3.5t14.5 7t5.5 5.5q-31 10 -53 34.5t-32 48t-27 42t-39 18.5z" />
<glyph unicode="a" horiz-adv-x="498" d="M311 107l3 125q-7 0 -20.5 -1t-45 -6.5t-56.5 -14.5t-45 -29.5t-20 -47.5q0 -29 20 -51.5t58 -22.5q35 0 66.5 15.5t39.5 32.5zM417 66q18 -36 69 -36v-18q-15 -9 -43.5 -17t-49.5 -8q-30 0 -49 23t-23 42t-4 33q-13 -43 -56.5 -70.5t-86.5 -27.5q-66 0 -101.5 38 t-35.5 91q0 70 58.5 110t143.5 40q33 0 75 -10q2 40 2 60q0 69 -19 107t-75 38q-34 0 -55.5 -21.5t-21.5 -49.5q0 -2 0.5 -5t0.5 -5q-14 -10 -34 -10t-34 12t-14 33q0 42 48.5 67t111.5 25q181 0 181 -143q0 -5 -0.5 -23t-1 -61t-0.5 -110q0 -74 14 -104z" />
<glyph unicode="b" d="M107 53q-5 11 -7.5 24.5t-3.5 35.5t-0.5 41.5t1 59.5t0.5 73l-2 335q0 84 -47 90v18q34 25 82 25q37 0 50.5 -21.5t12.5 -69.5q0 -21 -3 -72t-4 -93q-1 -31 -6 -50q64 58 139 58q78 0 132.5 -62t54.5 -182q0 -110 -63 -193t-174 -83q-56 0 -102 18t-60 48zM266 441 q-44 0 -81 -25v-2q0 -181 4 -265q3 -62 21.5 -87t69.5 -25q40 0 68 21t41 55.5t18.5 66.5t5.5 66q0 90 -41 142.5t-106 52.5z" />
<glyph unicode="c" horiz-adv-x="472" d="M353 386q-7 65 -91 65q-56 0 -91 -58t-35 -135q0 -79 39.5 -137t111.5 -58q44 0 86.5 23.5t69.5 64.5q4 -12 4 -24q0 -56 -61 -98t-134 -42q-87 0 -146 60t-59 178q0 125 65 203.5t170 78.5q62 0 108.5 -22.5t46.5 -67.5q0 -18 -14 -31.5t-37 -13.5q-19 0 -33 14z" />
<glyph unicode="d" horiz-adv-x="556" d="M547 30v-18q-55 -25 -89 -25q-26 0 -48.5 15.5t-27.5 53.5q-74 -69 -148 -69q-78 0 -132.5 59t-54.5 179q0 70 25.5 133t81 106t130.5 43q42 0 88 -14l-1 129q0 84 -47 90v18q34 25 82 25q37 0 50 -21.5t13 -69.5q0 -23 -4 -100t-4 -150q0 -182 5 -287q3 -58 23 -77 t58 -20zM287 53q42 0 85 32v15q0 12 0.5 92.5t0.5 94.5v151q-47 14 -100 14q-40 0 -68 -21t-41 -56t-18.5 -67t-5.5 -66q0 -90 40.5 -139.5t106.5 -49.5z" />
<glyph unicode="e" horiz-adv-x="492" d="M438 281q-21 -12 -58 -12l-241 3q1 -15 1 -40q0 -79 41 -124t106 -45q44 0 86.5 23.5t69.5 64.5q4 -12 4 -24q0 -56 -61 -98t-134 -42q-86 0 -144.5 59.5t-60.5 178.5q0 122 58 202t152 80q41 0 73 -11t51 -31t31.5 -40.5t17.5 -46.5t6.5 -41.5t1.5 -32.5v-23zM243 451 q-45 0 -68 -35.5t-39 -103.5l214 4q0 54 -27.5 94.5t-79.5 40.5z" />
<glyph unicode="f" horiz-adv-x="328" d="M182 525l-2 69q-3 99 71 99q20 0 33 -12t16 -29q11 -5 26 -5q19 1 31.5 13.5t12.5 30.5q0 31 -30 47.5t-68 16.5q-27 0 -52.5 -10t-50.5 -31.5t-43 -64t-23 -99.5q-3 -30 -18 -44t-35 -16l-5 -30q21 -4 43 -36q13 -19 13 -151q0 -38 -1 -100t-2 -109.5t-1 -49.5v-14h102 q-16 73 -16 368v65q3 0 32 -0.5t36 -0.5q76 0 76 53l-2 19q-5 -12 -35 -12h-110q2 4 2 23v10z" />
<glyph unicode="g" horiz-adv-x="524" d="M241 465q-26 0 -44.5 -13.5t-26.5 -36t-11 -42t-3 -39.5q0 -79 28.5 -128t80.5 -49q43 0 67 36t24 99q0 77 -31 125t-84 48zM145 71q6 -21 44 -27.5t87 -7.5t97 -7.5t81 -35t33 -80.5q0 -76 -72.5 -121t-166.5 -45q-85 0 -146.5 30.5t-61.5 82.5q0 19 14 36.5t40 17.5 q25 0 41 -24q-5 -17 -5 -28q0 -36 35.5 -54t87.5 -18q59 0 103.5 28t44.5 72q0 33 -33.5 46.5t-81.5 14.5t-96 5t-81.5 27.5t-33.5 71.5q0 57 70 89q-84 52 -84 163q0 87 58.5 143.5t150.5 56.5q67 0 95 -28l18 13h89q13 0 22 3t11 6l2 3q6 -15 6 -27q0 -23 -19 -34.5 t-46 -11.5q-16 0 -30 5.5t-15 5.5l-4 -1q23 -18 36.5 -51t13.5 -69q0 -97 -58 -150t-141 -53q-44 0 -85 15q-23 -18 -23 -45q0 -6 3 -17z" />
<glyph unicode="h" horiz-adv-x="584" d="M504 0h-98q-3 24 -2 48l2 240q1 74 -16.5 106.5t-64.5 33.5q-81 0 -139 -65q2 -202 8 -321q2 -30 5 -42h-99v15q2 272 -2 607q0 84 -47 90v18q34 25 82 25q33 0 47 -18t14 -54t-3 -90q-7 -94 -5 -200q28 47 75 80.5t113 33.5q51 0 84.5 -35.5t35.5 -83.5q0 -10 -1 -94.5 t1 -170t10 -123.5z" />
<glyph unicode="i" horiz-adv-x="280" d="M193 0h-99v4l8 337q1 33 -3.5 57.5t-11.5 36t-14.5 18.5t-12.5 8l-6 1v18q41 25 89 25q33 0 43 -22t7 -62q-6 -119 -6 -346q0 -47 6 -75zM84 641q0 21 16 36.5t38 15.5q21 0 37 -15.5t16 -36.5t-16 -37.5t-37 -16.5q-22 0 -38 16.5t-16 37.5z" />
<glyph unicode="j" horiz-adv-x="276" d="M84 641q0 21 16 36.5t38 15.5q21 0 37 -15.5t16 -36.5t-16 -37.5t-37 -16.5q-22 0 -38 16.5t-16 37.5zM134 505q-21 0 -41.5 -6.5t-30.5 -12.5l-10 -6v-18q49 -7 49 -90q0 -4 0.5 -86t0.5 -175v-125q0 -72 -33.5 -139t-79.5 -68q22 -28 50 -28q46 0 98.5 72t52.5 160v360 q2 60 2 77q0 46 -11.5 65.5t-46.5 19.5z" />
<glyph unicode="k" horiz-adv-x="538" d="M101 240l-1 382q0 84 -47 90v18q34 25 82 25q34 0 48.5 -18.5t14.5 -58.5q0 -18 -4.5 -163t-4.5 -242l157 130q29 23 30 42q0 9 -12 17v18q10 8 37 16.5t50 8.5q43 0 43 -26q0 -7 -3.5 -14.5t-10.5 -16t-14 -15t-19 -16t-19.5 -14.5t-22 -15t-19.5 -14l-115 -81 q13 -20 51 -71q6 -9 30 -41.5t33 -44.5t31 -37t36.5 -35.5t36.5 -22t44 -14.5v-17q-11 -9 -37 -16t-44 -7q-51 0 -79 20.5t-71 84.5q-15 23 -33.5 51t-29.5 45t-22 33.5t-17.5 24.5t-10.5 10q0 -196 11 -256h-100v15q0 33 0.5 110.5t0.5 114.5z" />
<glyph unicode="l" horiz-adv-x="280" d="M200 0h-100v15v607q0 84 -47 90v18q34 25 82 25q33 0 47.5 -18t15 -54t-2.5 -90q-6 -122 -5.5 -288t4.5 -263q1 -13 6 -42z" />
<glyph unicode="m" horiz-adv-x="890" d="M810 0h-98q-3 24 -2 48l2 240q1 74 -16.5 106.5t-64.5 33.5q-79 0 -134 -57q-5 -304 10 -371h-98q-3 24 -2 48l2 240q1 74 -16.5 106.5t-64.5 33.5q-83 0 -141 -68q0 -179 2 -285q0 -37 8 -75h-100v4l4 337q1 33 -4.5 57.5t-13 36t-15 18.5t-12.5 8l-6 1v18q41 25 89 25 q33 0 43.5 -22t7.5 -62q-2 -9 -5 -28q28 46 77 80t115 34q46 0 79 -30.5t40 -74.5q69 105 184 105q51 0 84.5 -35.5t35.5 -83.5q0 -10 -1 -94.5t1 -170t10 -123.5z" />
<glyph unicode="n" horiz-adv-x="587" d="M507 0h-98q-3 24 -2 48l2 240q1 74 -16.5 106.5t-64.5 33.5q-83 0 -141 -68q0 -179 2 -285q0 -37 8 -75h-100v4l4 337q1 33 -4 57.5t-12.5 36t-15 18.5t-13.5 8l-5 1l-1 18q41 25 89 25q33 0 43.5 -22t7.5 -62l-5 -28q28 46 77 80t115 34q51 0 84.5 -35.5t35.5 -83.5 q0 -10 -1 -94.5t1 -170t10 -123.5z" />
<glyph unicode="o" d="M47 238q0 -10 1.5 -25t7 -47t20 -60.5t36.5 -56.5t60.5 -45t87.5 -17q106 0 176 79.5t70 190.5q0 121 -61 185.5t-151 64.5q-107 0 -177 -76.5t-70 -192.5zM145 280q0 66 29 121t84 55q62 0 105.5 -66t43.5 -165q0 -83 -34.5 -136t-85.5 -53q-61 0 -101.5 70.5 t-40.5 173.5z" />
<glyph unicode="p" horiz-adv-x="564" d="M199 -240h-99q0 15 0.5 113.5t0.5 109.5l-1 389q0 84 -47 90v18q34 25 82 25q35 0 46 -14t11 -46q69 60 138 60q78 0 132.5 -61t54.5 -181q0 -110 -63 -193t-174 -83q-43 0 -90 14q2 -180 4 -203q1 -19 5 -38zM277 439q-48 0 -79 -22v-3q0 -23 -4 -127t-4 -177v-54h1 q42 -14 100 -14q40 0 68 20.5t41 53.5t18.5 64.5t5.5 65.5q0 90 -41 141.5t-106 51.5z" />
<glyph unicode="q" horiz-adv-x="551" d="M475 -240h-96q0 12 0.5 109.5t0.5 111.5v73q-70 -67 -146 -67q-78 0 -132.5 59t-54.5 179q0 70 25.5 133t81 106t130.5 43q26 0 98 -8.5t94 -8.5q-14 -491 -3 -703q0 -11 2 -27zM287 53q53 0 93 32l-2 287q0 38 -6 66q-42 14 -99 14q-40 0 -68 -21t-41 -56t-18.5 -67 t-5.5 -66q0 -90 40.5 -139.5t106.5 -49.5z" />
<glyph unicode="r" horiz-adv-x="405" d="M197 0h-100q0 20 2 141t2 200q0 33 -4.5 57.5t-10.5 36t-14 18.5t-12.5 8t-7.5 1v18q41 25 89 25q28 0 38 -14.5t10 -42.5q0 -12 -3 -27l-5 -44q3 8 13 24t30 42.5t50 45t62 18.5q33 0 51 -17t18 -43q0 -20 -13.5 -35.5t-37.5 -15.5q-12 0 -19 2q-13 34 -46 34 q-36 0 -61 -42.5t-33 -89t-8 -88.5q0 -177 10 -212z" />
<glyph unicode="s" horiz-adv-x="416" d="M204 459q-38 0 -61 -18.5t-23 -44.5q0 -25 19 -45t48 -32.5t62.5 -29.5t62.5 -34t48 -47t19 -69q0 -67 -49.5 -109.5t-129.5 -42.5q-58 0 -105 31t-47 72q0 18 10 35q6 -28 53 -54t90 -26q40 0 68 17t28 54q0 24 -26 44t-63 36.5t-74 36.5t-63 52.5t-26 74.5q0 61 48 104 t119 43q79 0 137 -35q7 -16 3.5 -50.5t-19.5 -50.5l-18 4q-27 84 -111 84z" />
<glyph unicode="t" horiz-adv-x="377" d="M195 575l-12 -83h122q13 0 22 3t11 6l2 3q2 -8 2 -19q0 -25 -22.5 -39.5t-54.5 -14.5q-9 0 -33 1t-34 1q-11 0 -14 -1l-1 -254q0 -56 15 -83t64 -27q29 0 59 9.5t34 18.5q6 -9 6 -21q0 -31 -39.5 -59.5t-92.5 -28.5q-80 0 -107 39t-27 123q0 27 3 98.5t3 103.5 q0 63 -10 77q-5 7 -10 12t-9.5 8.5t-8.5 6t-7.5 4t-6 2.5t-3.5 1h-1l5 30q8 0 17 2t33.5 22.5t45.5 58.5h49z" />
<glyph unicode="u" horiz-adv-x="588" d="M94 106q0 43 2 135q3 135 -15 186q-5 14 -14 23t-16 11l-7 2v17q37 25 83 25q30 0 43.5 -16t15 -34t0.5 -70v-27l-1 -156q-1 -75 15 -105t63 -31q82 0 138 66q3 123 3 200q0 70 -13 99q-13 28 -37 34v17q41 23 77 23q42 0 52.5 -18t10.5 -84v-252q0 -20 1.5 -37 t5.5 -28.5t7.5 -20.5t10.5 -15t10.5 -9.5t12 -5.5t11.5 -3t12.5 -1.5t10.5 -0.5v-18q-10 -7 -38 -16t-51 -9q-78 0 -82 112q-28 -46 -76.5 -79t-115.5 -33q-51 0 -84.5 35.5t-34.5 83.5z" />
<glyph unicode="v" horiz-adv-x="502" d="M322 54l-23 -81l-36 9q-30 5 -47 27t-22 45l-90 282q-10 31 -23 55.5t-23.5 37t-22 20.5t-16.5 10t-8 3l-1 18q12 9 37.5 17t45.5 8q33 0 47 -14.5t24 -51.5q7 -40 95 -288q13 -36 27 -65q10 41 20 67l79 208q14 34 14 63q0 28 -17 38v18q27 25 72 25q34 0 34 -34 q0 -24 -25 -85z" />
<glyph unicode="w" horiz-adv-x="832" d="M322 54l-23 -81l-36 9q-30 5 -47 27t-22 45l-90 282q-10 31 -23 55.5t-23.5 37t-22 20.5t-16.5 10t-8 3l-1 18q12 9 37.5 17t45.5 8q33 0 47 -14.5t24 -51.5q7 -40 95 -288q13 -36 27 -65q14 41 23 67l76 208q14 41 16 49q-27 41 -60 52l-1 18q12 9 37.5 17t45.5 8 q33 0 47 -14.5t24 -51.5q7 -40 95 -288q13 -36 27 -65q10 41 20 67l79 208q13 32 13 67q0 25 -16 34v18q29 25 72 25q61 0 9 -119l-141 -332l-23 -81l-36 9q-30 5 -47 27t-22 45l-88 275z" />
<glyph unicode="x" horiz-adv-x="474" d="M217 168l-99 -128l-23 -40h-85l190 235l-64 101q-17 26 -35.5 57.5t-25 39.5t-20 16.5t-36.5 12.5l-1 18q33 25 69 25q21 0 34.5 -3t24 -13t16 -17t16 -26.5t17.5 -30.5l60 -96l9 -20q5 10 12 20l61 77q21 26 21 47q0 13 -9 20v17q29 25 69 25q16 0 25 -8t9 -21 q0 -29 -23.5 -61t-134.5 -157l131 -202l44 -56h-123l-19 37l-85 132l-11 20q-5 -10 -14 -21z" />
<glyph unicode="y" horiz-adv-x="498" d="M159 439q11 -50 95 -288q13 -36 27 -65q2 17 21 67l79 208q14 34 14 63q0 28 -17 38v18q27 25 72 25q34 0 34 -34q0 -24 -25 -85l-204 -490q-16 -40 -22.5 -54.5t-22 -42t-29 -38t-35.5 -20t-50 -9.5q-42 0 -63 24t-21 62q0 14 1 21q5 -12 26.5 -19.5t44.5 -7.5 q80 0 103 56l46 110l13 23q-19 5 -35.5 20.5t-21.5 32.5l-90 282q-10 31 -23 55.5t-23.5 37t-22 20.5t-16.5 10t-8 3l-1 18q12 9 37.5 17t45.5 8q33 0 48 -15.5t23 -50.5z" />
<glyph unicode="z" horiz-adv-x="466" d="M28 0l-3 19q16 13 27 30l223 353q6 9 13 17t11 11l4 4h-140q-44 0 -73 -15t-32 -38h-19q-8 4 -6.5 49t22.5 68l138 -6h232l3 -19q-17 -13 -27 -30l-223 -357q-5 -8 -11 -15t-9 -10l-4 -3h157q44 0 73 15t32 38h19q8 -4 6.5 -46t-22.5 -65h-138h-253z" />
<glyph unicode="{" horiz-adv-x="333" d="M18 304q75 0 75 283q0 81 48.5 125.5t105.5 44.5q35 0 61 -23q-58 -1 -92.5 -42t-34.5 -114q0 -68 -9 -125.5t-22.5 -92.5t-27.5 -54t-27 -21q3 -1 9 -5t21 -25.5t26 -54.5t20.5 -101t9.5 -156q0 -28 1 -46t7 -40t16.5 -34.5t30 -21.5t47.5 -9q7 0 25 2q-33 -39 -85 -39 q-51 0 -90.5 38.5t-39.5 103.5q0 113 -6 191t-17.5 117.5t-23.5 56.5t-28 20v22z" />
<glyph unicode="|" horiz-adv-x="80" d="M80 756v-1010h-80v1010h80z" />
<glyph unicode="}" horiz-adv-x="333" d="M315 304q-75 0 -75 283q0 81 -48.5 125.5t-105.5 44.5q-35 0 -61 -23q58 -1 92.5 -42t34.5 -114q0 -68 9 -125.5t22.5 -92.5t27.5 -54t27 -21q-3 -1 -9 -5t-21 -25.5t-26 -54.5t-20.5 -101t-9.5 -156q0 -28 -1 -46t-7 -40t-16.5 -34.5t-30 -21.5t-47.5 -9q-7 0 -25 2 q33 -39 85 -39q51 0 90.5 38.5t39.5 103.5q0 113 6 191t17.5 117.5t23.5 56.5t28 20v22z" />
<glyph unicode="~" horiz-adv-x="527" d="M90 261q37 27 63 25q16 -1 61 -16.5t78 -17.5q48 -3 86 17t47 63q-41 -29 -74 -27q-17 2 -63.5 16.5t-71.5 16.5q-47 3 -82.5 -16t-43.5 -61z" />
<glyph horiz-adv-x="500" />
<glyph unicode="&#xa1;" horiz-adv-x="264" d="M75 613q0 22 15.5 38t37.5 16t38 -15.5t16 -38.5q0 -22 -16 -37.5t-38 -15.5t-37.5 15.5t-15.5 37.5zM113 502h29l36 -488q2 -24 8 -41.5t11 -22.5l5 -6v-23q-33 -22 -64 -22q-26 0 -42.5 5.5t-24 18.5t-10 27.5t0.5 38.5t7 45.5t9 54.5t7 60z" />
<glyph unicode="&#xa2;" horiz-adv-x="490" d="M310 -109h-49q0 66 1 96h-2q-87 0 -146 60t-59 178q0 114 57 193.5t150 87.5q0 14 -5 91q22 5 28 5q10 0 15.5 -3.5t7.5 -13t2 -16.5t-0.5 -23t-0.5 -24v-16q66 -6 101 -36.5t26 -77.5q-16 19 -52 33t-76 15q-3 -234 -3 -311v-66q41 2 81 26t65 62q4 -12 4 -24 q0 -47 -43.5 -85t-105.5 -50zM144 258q0 -69 30.5 -123.5t87.5 -68.5q3 298 2 372q-46 -7 -72 -35q-48 -53 -48 -145z" />
<glyph unicode="&#xa3;" horiz-adv-x="549" d="M36 269l6 65q0 2 67 2q0 11 0.5 42t0.5 39t1 29.5t2 32.5t3.5 27t6.5 31q6 28 17 54.5t32.5 57t50 53t72.5 37.5t97 15q49 0 93.5 -24.5t44.5 -65.5q0 -33 -18.5 -50t-40.5 -17t-39 15q4 0 4 21q0 23 -25 43.5t-66 20.5q-54 0 -93.5 -47.5t-45.5 -112.5q-4 -38 -9 -203 q64 -2 75 -2q128 0 139 8q-3 -21 -15 -35t-22 -20.5t-36 -9.5t-34 -3h-41h-69q-2 -80 -22.5 -186.5t-41.5 -136.5q116 -22 197 -22q85 0 153.5 15.5t95.5 44.5q3 -14 3 -26q0 -107 -200 -107q-24 0 -51 2t-64 7t-63.5 9t-80 13t-82.5 13q29 63 47 168t23 207h-44 q-12 0 -28 -4z" />
<glyph unicode="&#xa4;" horiz-adv-x="578" d="M12 357l12 64q0 -3 62 -3q27 115 111 183.5t202 68.5q92 0 132.5 -33t4.5 -85q-2 19 -44.5 38.5t-104.5 19.5q-85 0 -145 -55t-78 -138h188q128 0 139 8q-3 -21 -15 -35t-22 -20.5t-36 -9.5t-34 -3h-41h-185q0 -35 5 -80h129q128 0 139 8q-3 -21 -15 -35t-22 -20.5 t-36 -9.5t-34 -3h-41h-108q50 -173 225 -173q26 0 69 13.5t72 44.5q1 -57 -45.5 -86.5t-126.5 -29.5q-115 0 -188.5 62t-96.5 170h-52q-14 0 -18 -1l10 64q14 -2 51 -2q-1 12 -1 36q0 29 2 43h-46q-14 0 -18 -1z" />
<glyph unicode="&#xa5;" horiz-adv-x="520" d="M100 349q0 -2 91 -4l-88 155q-13 23 -28 51t-21 39t-14.5 23.5t-16 18t-18.5 9.5l7 17q30 14 70 14q42 0 59 -18q22 -55 70 -147.5t75 -136.5q6 18 17 37l83 147q13 22 13 46q0 22 -12 41l7 17q30 14 56 14q25 0 53 -14q1 -17 -18.5 -60.5t-39.5 -76.5l-110 -176 q121 0 132 8q-4 -24 -17.5 -39t-38 -21t-41.5 -7t-49 -1h-3.5h-3.5q-6 -81 -6 -90q148 0 159 8q-4 -24 -18 -39t-39.5 -21t-42.5 -7t-49 -1h-10q0 -84 8 -135h-97v16q0 26 0.5 65t0.5 54q-48 1 -102 1q-14 0 -18 -1v64q0 -4 120 -4v90q-48 1 -102 1q-14 0 -18 -1v64z" />
<glyph unicode="&#xa7;" horiz-adv-x="420" d="M204 -242q-73 0 -113.5 30t-40.5 60l2 18q28 -25 66 -40.5t71 -14.5h9q8 78 -5 175.5t-64 278.5q-50 179 -50 279q0 85 48.5 143.5t122.5 58.5q73 0 114 -30.5t40 -59.5l-2 -18q-28 25 -66 40.5t-71 14.5h-10q-7 -79 6.5 -176.5t63.5 -277.5q50 -179 50 -279 q0 -85 -48.5 -143.5t-122.5 -58.5zM195 249q20 -82 30 -125t19.5 -105.5t7 -109.5t-15.5 -89q82 30 81 156q0 37 -11.5 89t-46.5 190q-20 81 -30 124.5t-19.5 105.5t-7.5 109.5t15 89.5q-81 -31 -80 -156q0 -37 11.5 -89t46.5 -190z" />
<glyph unicode="&#xa8;" horiz-adv-x="384" d="M152 641q0 -23 -15 -39t-35 -16t-35 16t-15 39q0 22 15 38.5t35 16.5t35 -16.5t15 -38.5zM336 641q0 -23 -15 -39t-35 -16t-35 16t-15 39q0 22 15 38.5t35 16.5t35 -16.5t15 -38.5z" />
<glyph unicode="&#xa9;" horiz-adv-x="790" d="M735 351q0 -159 -98.5 -261.5t-257.5 -102.5q-142 0 -233 88.5t-91 226.5q0 158 101 260t264 102q138 0 226.5 -88t88.5 -225zM673 328q0 125 -77 205t-197 80q-116 0 -198 -82.5t-82 -206.5q0 -122 80.5 -203t201.5 -81q112 0 192 82.5t80 205.5zM527 425q-4 4 -11.5 10 t-36 16t-63.5 10q-42 0 -73 -31q-35 -35 -35 -96q0 -51 28 -87.5t80 -36.5q32 0 64.5 17t54.5 48q6 -18 6 -28q0 -40 -47 -69.5t-103 -29.5q-68 0 -114 41.5t-46 124.5q0 84 49 144t126 60q60 0 94.5 -27t26.5 -66z" />
<glyph unicode="&#xaa;" horiz-adv-x="419" />
<glyph unicode="&#xab;" horiz-adv-x="636" d="M62 247q11 10 20 20l131 156q75 90 132 44q-9 -3 -20.5 -13.5t-18.5 -19.5l-8 -8l-111 -148q-5 -8 -13.5 -15.5t-13.5 -11.5l-6 -4q21 -14 33 -31l111 -148q27 -34 47 -41q-57 -46 -132 44l-131 156zM284 247q11 10 20 20l131 156q75 90 132 44q-9 -3 -20.5 -13.5 t-18.5 -19.5l-8 -8l-111 -148q-5 -8 -13.5 -15.5t-13.5 -11.5l-6 -4q21 -14 33 -31l111 -148q27 -34 47 -41q-57 -46 -132 44l-131 156z" />
<glyph unicode="&#xac;" horiz-adv-x="535" />
<glyph unicode="&#xae;" horiz-adv-x="790" d="M411 153h-107q7 74 7 237q0 35 -8.5 55t-15 23t-11.5 3v21q38 20 69 20q38 0 38 -38q1 -6 -1 -26v-4l-1 -5q44 77 102 77q27 0 40 -13.5t13 -31.5q0 -35 -46 -48q-9 26 -33 26q-37 0 -57 -38.5t-20 -89t8.5 -98.5t22.5 -70zM735 355q0 -159 -98.5 -261.5t-257.5 -102.5 q-142 0 -233 88.5t-91 226.5q0 158 101 260t264 102q138 0 226.5 -88t88.5 -225zM673 332q0 125 -77 205t-197 80q-116 0 -198 -82.5t-82 -206.5q0 -122 80.5 -203t201.5 -81q112 0 192 82.5t80 205.5z" />
<glyph unicode="&#xaf;" horiz-adv-x="335" d="M49 598v64q0 -4 108 -4q128 0 139 8q-3 -21 -15 -35t-22 -20.5t-36 -9.5t-34 -3h-41q-13 0 -44 0.5t-37 0.5q-14 0 -18 -1z" />
<glyph unicode="&#xb0;" horiz-adv-x="399" d="M361 574q0 -70 -48.5 -119t-117.5 -49q-70 0 -119 49t-49 119q0 69 49 117.5t119 48.5q69 0 117.5 -48.5t48.5 -117.5zM304 574q0 47 -31.5 78.5t-78.5 31.5q-46 0 -78 -31.5t-32 -78.5q0 -45 32.5 -77.5t77.5 -32.5q47 0 78.5 32t31.5 78z" />
<glyph unicode="&#xb1;" horiz-adv-x="447" />
<glyph unicode="&#xb4;" horiz-adv-x="338" d="M219 724h60l-39 -68q-53 -91 -135 -91q-8 0 -17 3.5t-14.5 7t-5.5 5.5q31 10 53 34.5t32 48t27 42t39 18.5z" />
<glyph unicode="&#xb5;" horiz-adv-x="519" />
<glyph unicode="&#xb6;" horiz-adv-x="622" d="M57 372q0 119 76.5 203.5t183.5 84.5h1h108q128 0 139 8q-9 -56 -72 -65q-1 -10 -1 -32q0 -4 -1 -62t-2 -150.5t-1 -170.5l5 -430h-49q6 709 -1 842h-44q-1 -9 -1 -29q0 -4 -1 -62t-2 -150.5t-1 -170.5l5 -430h-49q2 220 2 290q0 29 2 42q-25 -9 -50 -11 q-100 -7 -174.5 84t-72.5 209z" />
<glyph unicode="&#xb7;" horiz-adv-x="258" d="M178 245q0 -22 -15.5 -38t-37.5 -16q-23 0 -38.5 15.5t-15.5 38.5q0 22 16 37.5t38 15.5t37.5 -15.5t15.5 -37.5z" />
<glyph unicode="&#xb8;" horiz-adv-x="402" d="M180 -7l21 1q-7 -14 -7 -29q0 -10 15.5 -16.5t33.5 -10.5t33.5 -20t15.5 -41q0 -46 -33.5 -79t-80.5 -33q-36 0 -57 13.5t-21 37.5q0 11 4 22q21 -21 71 -21q24 0 40 10.5t16 27.5q0 13 -14 22t-30.5 14t-30.5 17.5t-14 29.5q0 34 38 55z" />
<glyph unicode="&#xb9;" horiz-adv-x="255" />
<glyph unicode="&#xba;" horiz-adv-x="412" />
<glyph unicode="&#xbb;" horiz-adv-x="643" d="M568 247q-11 10 -20 20l-131 156q-75 90 -132 44q9 -3 20.5 -13.5t18.5 -19.5l8 -8l111 -148q5 -8 13.5 -15.5t13.5 -11.5l6 -4q-21 -14 -33 -31l-111 -148q-27 -34 -47 -41q57 -46 132 44l131 156zM346 247q-11 10 -20 20l-131 156q-75 90 -132 44q9 -3 20.5 -13.5 t18.5 -19.5l8 -8l111 -148q5 -8 13.5 -15.5t13.5 -11.5l6 -4q-21 -14 -33 -31l-111 -148q-27 -34 -47 -41q57 -46 132 44l131 156z" />
<glyph unicode="&#xbc;" horiz-adv-x="619" />
<glyph unicode="&#xbd;" horiz-adv-x="703" />
<glyph unicode="&#xbf;" horiz-adv-x="415" d="M241 491l20 11q70 -32 70 -89q0 -40 -21 -80t-50.5 -73.5t-59.5 -65.5t-51 -66.5t-21 -66.5q0 -110 103 -110q31 0 54.5 19t23.5 53q0 11 -5 28q14 21 43 21q26 0 39 -16t13 -35q0 -56 -49 -89t-122 -33q-87 0 -136.5 51.5t-49.5 133.5q0 43 23 86t55.5 78t65 67.5 t55.5 66.5t23 64q0 27 -23 45zM208 613q0 22 15.5 38t37.5 16q23 0 38.5 -15.5t15.5 -38.5q0 -22 -16 -37.5t-38 -15.5t-37.5 15.5t-15.5 37.5z" />
<glyph unicode="&#xc0;" horiz-adv-x="590" d="M210 848h-74l39 -48q32 -40 65 -59t81 -19q27 0 42 18q-31 10 -53.5 29t-33 36t-27.5 30t-39 13zM350 681q6 -33 24 -85l176 -516q12 -44 35 -80h-121q-2 22 -7 34l-67 196h-232l-76 -217q-1 -3 -2 -7.5t-1 -5.5h-74l227 596q6 19 15.5 33.5t18.5 22.5t21.5 13.5 t21.5 7.5t22 4.5t19 3.5zM373 278l-97 285l-101 -285h198z" />
<glyph unicode="&#xc1;" horiz-adv-x="590" d="M416 848h74l-39 -48q-32 -40 -65 -59t-81 -19q-27 0 -42 18q31 10 53.5 29t33 36t27.5 30t39 13zM350 681q6 -33 24 -85l176 -516q12 -44 35 -80h-121q-2 22 -7 34l-67 196h-232l-76 -217q-1 -3 -2 -7.5t-1 -5.5h-74l227 596q6 19 15.5 33.5t18.5 22.5t21.5 13.5 t21.5 7.5t22 4.5t19 3.5zM373 278l-97 285l-101 -285h198z" />
<glyph unicode="&#xc2;" horiz-adv-x="590" d="M308 844h9q16 0 36.5 -17t38.5 -37.5t42.5 -39.5t46.5 -23q0 -2 -6.5 -5t-16.5 -5.5t-19 -2.5q-98 0 -136 93q-22 -46 -51 -69.5t-85 -23.5q-9 0 -19 2.5t-16.5 5.5t-6.5 5q28 5 61 34.5t60 56t43 26.5h19zM350 681q6 -33 24 -85l176 -516q12 -44 35 -80h-121 q-2 22 -7 34l-67 196h-232l-76 -217q-1 -3 -2 -7.5t-1 -5.5h-74l227 596q6 19 15.5 33.5t18.5 22.5t21.5 13.5t21.5 7.5t22 4.5t19 3.5zM373 278l-97 285l-101 -285h198z" />
<glyph unicode="&#xc3;" horiz-adv-x="590" d="M98 743q46 28 75 28q21 0 85 -19t114 -19q56 0 99 22.5t54 65.5q-51 -29 -88 -29q-27 0 -93.5 18.5t-101.5 18.5q-55 0 -95 -21.5t-49 -64.5zM350 681q6 -33 24 -85l176 -516q12 -44 35 -80h-121q-2 22 -7 34l-67 196h-232l-76 -217q-1 -3 -2 -7.5t-1 -5.5h-74l227 596 q6 19 15.5 33.5t18.5 22.5t21.5 13.5t21.5 7.5t22 4.5t19 3.5zM373 278l-97 285l-101 -285h198z" />
<glyph unicode="&#xc4;" horiz-adv-x="590" d="M232 781q0 -23 -15 -39t-35 -16t-35 16t-15 39q0 22 15 38.5t35 16.5t35 -16.5t15 -38.5zM466 781q0 -23 -15 -39t-35 -16t-35 16t-15 39q0 22 15 38.5t35 16.5t35 -16.5t15 -38.5zM350 681q6 -33 24 -85l176 -516q12 -44 35 -80h-121q-2 22 -7 34l-67 196h-232l-76 -217 q-1 -3 -2 -7.5t-1 -5.5h-74l227 596q6 19 15.5 33.5t18.5 22.5t21.5 13.5t21.5 7.5t22 4.5t19 3.5zM373 278l-97 285l-101 -285h198z" />
<glyph unicode="&#xc5;" horiz-adv-x="590" d="M350 681q6 -33 24 -85l176 -516q12 -44 35 -80h-121q-2 22 -7 34l-67 196h-232l-76 -217q-1 -3 -2 -7.5t-1 -5.5h-74l227 596q6 19 15.5 33.5t18.5 22.5t21.5 13.5t21.5 7.5t22 4.5t19 3.5zM373 278l-97 285l-101 -285h198zM309 879q-41 0 -69 -25t-28 -65 q0 -39 22.5 -61t53.5 -22q42 0 70.5 26t28.5 65q0 37 -23 59.5t-55 22.5zM301 734q-20 0 -34.5 17.5t-14.5 48.5q0 26 13 38.5t31 12.5q21 0 35.5 -16.5t14.5 -47.5q0 -27 -13.5 -40t-31.5 -13z" />
<glyph unicode="&#xc6;" horiz-adv-x="762" d="M303 658h201l171 3q17 -17 20 -60.5t-7 -50.5h-19q-5 23 -34 38.5t-71 16.5l-85 3q-7 -119 -7 -244h157q14 0 23 3t12 7l2 3q2 -8 2 -20q0 -20 -8 -32t-25 -16.5t-27 -5.5t-30 -1q-1 0 -25 0.5t-44 0.5h-38q-1 -98 3 -234q0 -2 2 -6h190q14 0 23 3.5t11 6.5l3 3 q2 -8 2 -20q0 -16 -6.5 -27.5t-14.5 -16.5t-22.5 -8t-23 -3.5t-23.5 -0.5h-243q1 17 1 47v183h-187l-106 -210q-1 -3 -2.5 -7t-2.5 -8t-1 -5h-78l307 587q6 23 4.5 32t-11.5 24zM374 615l-20 -53l-144 -284h163v254q0 62 1 83z" />
<glyph unicode="&#xc7;" horiz-adv-x="619" d="M565 152q4 -8 4 -21q0 -60 -58.5 -99t-147.5 -44q-4 -13 -4 -23t15.5 -16.5t33.5 -10.5t33.5 -20t15.5 -41q0 -46 -33.5 -79t-80.5 -33q-36 0 -57 13.5t-21 37.5q0 11 4 22q21 -21 71 -21q24 0 40 10.5t16 27.5q0 13 -14 22t-30.5 14t-30.5 17.5t-14 29.5q0 29 28 49 q-134 2 -208.5 93.5t-74.5 234.5q0 157 88.5 256t231.5 99q64 0 121 -24.5t74 -58.5q0 -18 -19.5 -49.5t-43.5 -41.5l-16 13q0 28 -34 64.5t-94 36.5q-97 0 -147.5 -73t-50.5 -179q0 -126 58.5 -214.5t165.5 -88.5q49 0 101.5 25.5t77.5 71.5z" />
<glyph unicode="&#xc8;" horiz-adv-x="481" d="M175 848h-74l39 -48q32 -40 65 -59t81 -19q27 0 42 18q-31 10 -53.5 29t-33 36t-27.5 30t-39 13zM92 530q0 14 -1 26.5t-1.5 21.5t-3 17.5t-3.5 13t-4 11t-4 8l-5 7.5l-4 6l7 17h150l171 3q17 -17 20 -60.5t-7 -50.5h-19q-5 23 -34 38.5t-71 16.5l-85 3q-7 -119 -7 -244 h157q14 0 23 3t11 7l3 3q2 -8 2 -20q0 -20 -8 -32t-25 -16.5t-27 -5.5t-30 -1q-1 0 -25 0.5t-44 0.5h-38q-1 -98 3 -234q0 -2 2 -6h190q14 0 23 3.5t12 6.5l2 3q2 -8 2 -20q0 -16 -6.5 -27.5t-14.5 -16.5t-22.5 -8t-23 -3.5t-23.5 -0.5h-243l1 68v462z" />
<glyph unicode="&#xc9;" horiz-adv-x="481" d="M316 848h74l-39 -48q-32 -40 -65 -59t-81 -19q-27 0 -42 18q31 10 53.5 29t33 36t27.5 30t39 13zM92 530q0 14 -1 26.5t-1.5 21.5t-3 17.5t-3.5 13t-4 11t-4 8l-5 7.5l-4 6l7 17h150l171 3q17 -17 20 -60.5t-7 -50.5h-19q-5 23 -34 38.5t-71 16.5l-85 3q-7 -119 -7 -244 h157q14 0 23 3t11 7l3 3q2 -8 2 -20q0 -20 -8 -32t-25 -16.5t-27 -5.5t-30 -1q-1 0 -25 0.5t-44 0.5h-38q-1 -98 3 -234q0 -2 2 -6h190q14 0 23 3.5t12 6.5l2 3q2 -8 2 -20q0 -16 -6.5 -27.5t-14.5 -16.5t-22.5 -8t-23 -3.5t-23.5 -0.5h-243l1 68v462z" />
<glyph unicode="&#xca;" horiz-adv-x="481" d="M251 844h9q16 0 36.5 -17t38.5 -37.5t42.5 -39.5t46.5 -23q0 -2 -6.5 -5t-16.5 -5.5t-19 -2.5q-98 0 -136 93q-22 -46 -51 -69.5t-85 -23.5q-9 0 -19 2.5t-16.5 5.5t-6.5 5q28 5 61 34.5t60 56t43 26.5h19zM93 530q0 14 -1 26.5t-1.5 21.5t-3 17.5t-3.5 13t-4 11t-4 8 l-5 7.5l-4 6l7 17h150l171 3q17 -17 20 -60.5t-7 -50.5h-19q-5 23 -34 38.5t-71 16.5l-85 3q-7 -119 -7 -244h157q14 0 23 3t12 7l2 3q2 -8 2 -20q0 -20 -8 -32t-25 -16.5t-27 -5.5t-30 -1q-1 0 -25 0.5t-44 0.5h-38q-1 -98 3 -234q0 -2 2 -6h190q14 0 23 3.5t11 6.5l3 3 q2 -8 2 -20q0 -16 -6.5 -27.5t-14.5 -16.5t-22.5 -8t-23 -3.5t-23.5 -0.5h-243l1 68v462z" />
<glyph unicode="&#xcb;" horiz-adv-x="481" d="M178 781q0 -23 -15 -39t-35 -16t-35 16t-15 39q0 22 15 38.5t35 16.5t35 -16.5t15 -38.5zM412 781q0 -23 -15 -39t-35 -16t-35 16t-15 39q0 22 15 38.5t35 16.5t35 -16.5t15 -38.5zM92 530q0 14 -1 26.5t-1.5 21.5t-3 17.5t-3.5 13t-4 11t-4 8l-5 7.5l-4 6l7 17h150 l171 3q17 -17 20 -60.5t-7 -50.5h-19q-5 23 -34 38.5t-71 16.5l-85 3q-7 -119 -7 -244h157q14 0 23 3t11 7l3 3q2 -8 2 -20q0 -20 -8 -32t-25 -16.5t-27 -5.5t-30 -1q-1 0 -25 0.5t-44 0.5h-38q-1 -98 3 -234q0 -2 2 -6h190q14 0 23 3.5t12 6.5l2 3q2 -8 2 -20 q0 -16 -6.5 -27.5t-14.5 -16.5t-22.5 -8t-23 -3.5t-23.5 -0.5h-243l1 68v462z" />
<glyph unicode="&#xcc;" horiz-adv-x="323" d="M92 848h-74l39 -48q32 -40 65 -59t81 -19q27 0 42 18q-31 10 -53.5 29t-33 36t-27.5 30t-39 13zM222 0h-110q2 66 2 532q0 14 -1 26.5t-1.5 21.5t-3 17.5t-3.5 13t-4 10.5l-4 8t-4.5 7t-4.5 6l7 17q31 13 69 13q32 0 57 -12q-10 -224 -10 -396q0 -241 11 -264z" />
<glyph unicode="&#xcd;" horiz-adv-x="323" d="M230 848h74l-39 -48q-32 -40 -65 -59t-81 -19q-27 0 -42 18q31 10 53.5 29t33 36t27.5 30t39 13zM222 0h-110q2 66 2 532q0 14 -1 26.5t-1.5 21.5t-3 17.5t-3.5 13t-4 10.5l-4 8t-4.5 7t-4.5 6l7 17q31 13 69 13q32 0 57 -12q-10 -224 -10 -396q0 -241 11 -264z" />
<glyph unicode="&#xce;" horiz-adv-x="323" d="M168 844h9q16 0 36.5 -17t38.5 -37.5t42.5 -39.5t46.5 -23q0 -2 -6.5 -5t-16.5 -5.5t-19 -2.5q-98 0 -136 93q-22 -46 -51 -69.5t-85 -23.5q-9 0 -19 2.5t-16.5 5.5t-6.5 5q28 5 61 34.5t60 56t43 26.5h19zM222 0h-110q2 66 2 532q0 14 -1 26.5t-1.5 21.5t-3 17.5 t-3.5 13t-4 10.5l-4 8t-4.5 7t-4.5 6l7 17q31 13 69 13q32 0 57 -12q-10 -224 -10 -396q0 -241 11 -264z" />
<glyph unicode="&#xcf;" horiz-adv-x="323" d="M116 781q0 -23 -15 -39t-35 -16t-35 16t-15 39q0 22 15 38.5t35 16.5t35 -16.5t15 -38.5zM300 781q0 -23 -15 -39t-35 -16t-35 16t-15 39q0 22 15 38.5t35 16.5t35 -16.5t15 -38.5zM222 0h-110q2 66 2 532q0 14 -1 26.5t-1.5 21.5t-3 17.5t-3.5 13t-4 10.5l-4 8t-4.5 7 t-4.5 6l7 17q31 13 69 13q32 0 57 -12q-10 -224 -10 -396q0 -241 11 -264z" />
<glyph unicode="&#xd1;" horiz-adv-x="751" d="M163 743q46 28 75 28q21 0 85 -19t114 -19q56 0 99 22.5t54 65.5q-51 -29 -88 -29q-27 0 -93.5 18.5t-101.5 18.5q-55 0 -95 -21.5t-49 -64.5zM580 215q2 5 2 319q0 77 -26 108l7 17q17 12 50 12q31 0 45 -11q-12 -266 -12 -469q0 -113 5 -191h-55l-380 435 q-34 44 -41 62q3 -16 3 -44q0 -24 -1 -73.5t-1 -74.5q0 -226 10 -305h-72v16q1 130 1 357v161q0 73 -26 108l7 17q39 16 60 10q17 -20 32 -38t40.5 -46.5t111.5 -127.5t210 -241q9 -10 18.5 -26t13.5 -27l5 -11q-7 42 -7 63z" />
<glyph unicode="&#xd2;" horiz-adv-x="680" d="M268 848h-74l39 -48q32 -40 65 -59t81 -19q27 0 42 18q-31 10 -53.5 29t-33 36t-27.5 30t-39 13zM362 670q-136 0 -224.5 -99t-88.5 -253t76.5 -242.5t177.5 -88.5q145 0 233.5 100.5t91.5 253.5q0 156 -76 242.5t-190 86.5zM351 47q-80 0 -137 92t-57 211 q0 107 49 182.5t121 75.5q78 0 135 -89t57 -212q0 -108 -48.5 -184t-119.5 -76z" />
<glyph unicode="&#xd3;" horiz-adv-x="680" d="M408 848h74l-39 -48q-32 -40 -65 -59t-81 -19q-27 0 -42 18q31 10 53.5 29t33 36t27.5 30t39 13zM362 670q-136 0 -224.5 -99t-88.5 -253t76.5 -242.5t177.5 -88.5q145 0 233.5 100.5t91.5 253.5q0 156 -76 242.5t-190 86.5zM351 47q-80 0 -137 92t-57 211 q0 107 49 182.5t121 75.5q78 0 135 -89t57 -212q0 -108 -48.5 -184t-119.5 -76z" />
<glyph unicode="&#xd4;" horiz-adv-x="680" d="M343 844h9q16 0 36.5 -17t38.5 -37.5t42.5 -39.5t46.5 -23q0 -2 -6.5 -5t-16.5 -5.5t-19 -2.5q-98 0 -136 93q-22 -46 -51 -69.5t-85 -23.5q-9 0 -19 2.5t-16.5 5.5t-6.5 5q28 5 61 34.5t60 56t43 26.5h19zM362 670q-136 0 -224.5 -99t-88.5 -253t76.5 -242.5 t177.5 -88.5q145 0 233.5 100.5t91.5 253.5q0 156 -76 242.5t-190 86.5zM351 47q-80 0 -137 92t-57 211q0 107 49 182.5t121 75.5q78 0 135 -89t57 -212q0 -108 -48.5 -184t-119.5 -76z" />
<glyph unicode="&#xd5;" horiz-adv-x="680" d="M125 743q46 28 75 28q21 0 85 -19t114 -19q56 0 99 22.5t54 65.5q-51 -29 -88 -29q-27 0 -93.5 18.5t-101.5 18.5q-55 0 -95 -21.5t-49 -64.5zM362 670q-136 0 -224.5 -99t-88.5 -253t76.5 -242.5t177.5 -88.5q145 0 233.5 100.5t91.5 253.5q0 156 -76 242.5t-190 86.5z M351 47q-80 0 -137 92t-57 211q0 107 49 182.5t121 75.5q78 0 135 -89t57 -212q0 -108 -48.5 -184t-119.5 -76z" />
<glyph unicode="&#xd6;" horiz-adv-x="680" d="M270 781q0 -23 -15 -39t-35 -16t-35 16t-15 39q0 22 15 38.5t35 16.5t35 -16.5t15 -38.5zM504 781q0 -23 -15 -39t-35 -16t-35 16t-15 39q0 22 15 38.5t35 16.5t35 -16.5t15 -38.5zM362 670q-136 0 -224.5 -99t-88.5 -253t76.5 -242.5t177.5 -88.5q145 0 233.5 100.5 t91.5 253.5q0 156 -76 242.5t-190 86.5zM351 47q-80 0 -137 92t-57 211q0 107 49 182.5t121 75.5q78 0 135 -89t57 -212q0 -108 -48.5 -184t-119.5 -76z" />
<glyph unicode="&#xd8;" horiz-adv-x="680" d="M8 36l34 -35q30 32 73 76q68 -92 184 -92q145 0 236.5 102t93.5 254q0 126 -46 205q9 8 24.5 22t23.5 21.5t17 17.5t13 17t4 14q0 13 -31 32q-41 -49 -77 -86q-69 86 -183 86q-142 0 -231.5 -98t-92.5 -254q0 -121 40 -201q-53 -53 -82 -81zM526 294q-2 -106 -57.5 -177 t-122.5 -71q-46 0 -85 31t-65 85q159 164 301 302q29 -68 29 -170zM180 205q-22 66 -22 143q0 109 49.5 184t119.5 75q86 0 150 -103q-199 -202 -297 -299z" />
<glyph unicode="&#xd9;" horiz-adv-x="706" d="M270 848h-74l39 -48q32 -40 65 -59t81 -19q27 0 42 18q-31 10 -53.5 29t-33 36t-27.5 30t-39 13zM609 217q0 -100 -68 -165.5t-187 -65.5q-113 0 -175 49.5t-66 173.5q-5 190 -5 323q0 14 -1 26.5t-1.5 21.5t-3 17.5t-3.5 13t-4 10.5l-4 8t-4.5 7t-4.5 6l7 17 q31 13 69 13q32 0 57 -12q-5 -124 -5 -438q0 -52 15 -88t40 -52t48.5 -22.5t49.5 -6.5q73 0 122.5 39t53.5 95q4 33 4 347q0 77 -26 108l7 17q17 12 50 12q31 0 45 -11q-10 -222 -10 -443z" />
<glyph unicode="&#xda;" horiz-adv-x="706" d="M442 848h74l-39 -48q-32 -40 -65 -59t-81 -19q-27 0 -42 18q31 10 53.5 29t33 36t27.5 30t39 13zM609 217q0 -100 -68 -165.5t-187 -65.5q-113 0 -175 49.5t-66 173.5q-5 190 -5 323q0 14 -1 26.5t-1.5 21.5t-3 17.5t-3.5 13t-4 10.5l-4 8t-4.5 7t-4.5 6l7 17 q31 13 69 13q32 0 57 -12q-5 -124 -5 -438q0 -52 15 -88t40 -52t48.5 -22.5t49.5 -6.5q73 0 122.5 39t53.5 95q4 33 4 347q0 77 -26 108l7 17q17 12 50 12q31 0 45 -11q-10 -222 -10 -443z" />
<glyph unicode="&#xdb;" horiz-adv-x="706" d="M367 844h9q16 0 36.5 -17t38.5 -37.5t42.5 -39.5t46.5 -23q0 -2 -6.5 -5t-16.5 -5.5t-19 -2.5q-98 0 -136 93q-22 -46 -51 -69.5t-85 -23.5q-9 0 -19 2.5t-16.5 5.5t-6.5 5q28 5 61 34.5t60 56t43 26.5h19zM609 217q0 -100 -68 -165.5t-187 -65.5q-113 0 -175 49.5 t-66 173.5q-5 190 -5 323q0 14 -1 26.5t-1.5 21.5t-3 17.5t-3.5 13t-4 10.5l-4 8t-4.5 7t-4.5 6l7 17q31 13 69 13q32 0 57 -12q-5 -124 -5 -438q0 -52 15 -88t40 -52t48.5 -22.5t49.5 -6.5q73 0 122.5 39t53.5 95q4 33 4 347q0 77 -26 108l7 17q17 12 50 12q31 0 45 -11 q-10 -222 -10 -443z" />
<glyph unicode="&#xdc;" horiz-adv-x="706" d="M290 781q0 -23 -15 -39t-35 -16t-35 16t-15 39q0 22 15 38.5t35 16.5t35 -16.5t15 -38.5zM524 781q0 -23 -15 -39t-35 -16t-35 16t-15 39q0 22 15 38.5t35 16.5t35 -16.5t15 -38.5zM609 217q0 -100 -68 -165.5t-187 -65.5q-113 0 -175 49.5t-66 173.5q-5 190 -5 323 q0 14 -1 26.5t-1.5 21.5t-3 17.5t-3.5 13t-4 10.5l-4 8t-4.5 7t-4.5 6l7 17q31 13 69 13q32 0 57 -12q-5 -124 -5 -438q0 -52 15 -88t40 -52t48.5 -22.5t49.5 -6.5q73 0 122.5 39t53.5 95q4 33 4 347q0 77 -26 108l7 17q17 12 50 12q31 0 45 -11q-10 -222 -10 -443z" />
<glyph unicode="&#xdf;" horiz-adv-x="572" d="M376 42q39 0 62.5 21t23.5 54q0 22 -18.5 41.5t-44.5 36t-52 35t-44.5 45.5t-18.5 60q0 32 17.5 68t38 63.5t38 67.5t17.5 80q0 83 -97 83q-51 0 -82 -31.5t-31 -87.5q0 -13 -1.5 -132t-1.5 -138q0 -210 16 -308h-102v14q0 2 1 49.5t2 109.5t1 100q0 132 -13 151 q-10 14 -20.5 23t-16.5 11l-6 2l5 30q5 1 13 3t21.5 13.5t14.5 30.5q3 36 14 69.5t35 69t70 57t108 21.5q65 0 110 -29t45 -84q0 -38 -19 -79t-41.5 -70t-41.5 -61.5t-19 -54.5q0 -18 19.5 -35.5t46.5 -34.5t54.5 -37t47 -51t19.5 -70q0 -75 -48.5 -118t-126.5 -43 q-55 0 -98 23t-43 63q0 19 11 35q4 -24 37.5 -45t97.5 -21z" />
<glyph unicode="&#xe0;" horiz-adv-x="498" d="M316 107l3 125q-7 0 -20.5 -1t-45 -6.5t-56.5 -14.5t-45 -29.5t-20 -47.5q0 -29 20 -51.5t58 -22.5q35 0 66.5 15.5t39.5 32.5zM422 66q18 -36 69 -36v-18q-15 -9 -43.5 -17t-49.5 -8q-30 0 -49 23t-23 42t-4 33q-13 -43 -56.5 -70.5t-86.5 -27.5q-66 0 -101.5 38 t-35.5 91q0 70 58.5 110t143.5 40q33 0 75 -10q2 40 2 60q0 69 -19 107t-75 38q-34 0 -55.5 -21.5t-21.5 -49.5q0 -2 0.5 -5t0.5 -5q-14 -10 -34 -10t-34 12t-14 33q0 42 48.5 67t111.5 25q181 0 181 -143q0 -5 -0.5 -23t-1 -61t-0.5 -110q0 -74 14 -104zM169 724h-60 l39 -68q53 -91 135 -91q8 0 17 3.5t14.5 7t5.5 5.5q-31 10 -53 34.5t-32 48t-27 42t-39 18.5z" />
<glyph unicode="&#xe1;" horiz-adv-x="498" d="M316 107l3 125q-7 0 -20.5 -1t-45 -6.5t-56.5 -14.5t-45 -29.5t-20 -47.5q0 -29 20 -51.5t58 -22.5q35 0 66.5 15.5t39.5 32.5zM422 66q18 -36 69 -36v-18q-15 -9 -43.5 -17t-49.5 -8q-30 0 -49 23t-23 42t-4 33q-13 -43 -56.5 -70.5t-86.5 -27.5q-66 0 -101.5 38 t-35.5 91q0 70 58.5 110t143.5 40q33 0 75 -10q2 40 2 60q0 69 -19 107t-75 38q-34 0 -55.5 -21.5t-21.5 -49.5q0 -2 0.5 -5t0.5 -5q-14 -10 -34 -10t-34 12t-14 33q0 42 48.5 67t111.5 25q181 0 181 -143q0 -5 -0.5 -23t-1 -61t-0.5 -110q0 -74 14 -104zM326 724h60 l-39 -68q-53 -91 -135 -91q-8 0 -17 3.5t-14.5 7t-5.5 5.5q31 10 53 34.5t32 48t27 42t39 18.5z" />
<glyph unicode="&#xe2;" horiz-adv-x="498" d="M316 107l3 125q-7 0 -20.5 -1t-45 -6.5t-56.5 -14.5t-45 -29.5t-20 -47.5q0 -29 20 -51.5t58 -22.5q35 0 66.5 15.5t39.5 32.5zM422 66q18 -36 69 -36v-18q-15 -9 -43.5 -17t-49.5 -8q-30 0 -49 23t-23 42t-4 33q-13 -43 -56.5 -70.5t-86.5 -27.5q-66 0 -101.5 38 t-35.5 91q0 70 58.5 110t143.5 40q33 0 75 -10q2 40 2 60q0 69 -19 107t-75 38q-34 0 -55.5 -21.5t-21.5 -49.5q0 -2 0.5 -5t0.5 -5q-14 -10 -34 -10t-34 12t-14 33q0 42 48.5 67t111.5 25q181 0 181 -143q0 -5 -0.5 -23t-1 -61t-0.5 -110q0 -74 14 -104zM246 724h8 q18 0 42 -33t51.5 -69t51.5 -41q0 -2 -5.5 -5.5t-14.5 -7t-17 -3.5q-38 0 -56.5 12.5t-42.5 46.5q-6 8 -11 21.5t-8 23.5l-2 10q-9 -38 -22 -55q-19 -29 -40 -44t-58 -15q-8 0 -17 3.5t-14.5 7t-5.5 5.5q19 4 42 27.5t39.5 49t34 46t29.5 20.5h16z" />
<glyph unicode="&#xe3;" horiz-adv-x="498" d="M316 107l3 125q-7 0 -20.5 -1t-45 -6.5t-56.5 -14.5t-45 -29.5t-20 -47.5q0 -29 20 -51.5t58 -22.5q35 0 66.5 15.5t39.5 32.5zM422 66q18 -36 69 -36v-18q-15 -9 -43.5 -17t-49.5 -8q-30 0 -49 23t-23 42t-4 33q-13 -43 -56.5 -70.5t-86.5 -27.5q-66 0 -101.5 38 t-35.5 91q0 70 58.5 110t143.5 40q33 0 75 -10q2 40 2 60q0 69 -19 107t-75 38q-34 0 -55.5 -21.5t-21.5 -49.5q0 -2 0.5 -5t0.5 -5q-14 -10 -34 -10t-34 12t-14 33q0 42 48.5 67t111.5 25q181 0 181 -143q0 -5 -0.5 -23t-1 -61t-0.5 -110q0 -74 14 -104zM74 606 q37 27 63 25q16 -1 61 -16.5t78 -17.5q48 -3 86 17t47 63q-41 -29 -74 -27q-17 2 -63.5 16.5t-71.5 16.5q-47 3 -82.5 -16t-43.5 -61z" />
<glyph unicode="&#xe4;" horiz-adv-x="498" d="M316 107l3 125q-7 0 -20.5 -1t-45 -6.5t-56.5 -14.5t-45 -29.5t-20 -47.5q0 -29 20 -51.5t58 -22.5q35 0 66.5 15.5t39.5 32.5zM422 66q18 -36 69 -36v-18q-15 -9 -43.5 -17t-49.5 -8q-30 0 -49 23t-23 42t-4 33q-13 -43 -56.5 -70.5t-86.5 -27.5q-66 0 -101.5 38 t-35.5 91q0 70 58.5 110t143.5 40q33 0 75 -10q2 40 2 60q0 69 -19 107t-75 38q-34 0 -55.5 -21.5t-21.5 -49.5q0 -2 0.5 -5t0.5 -5q-14 -10 -34 -10t-34 12t-14 33q0 42 48.5 67t111.5 25q181 0 181 -143q0 -5 -0.5 -23t-1 -61t-0.5 -110q0 -74 14 -104zM200 641 q0 -23 -15 -39t-35 -16t-35 16t-15 39q0 22 15 38.5t35 16.5t35 -16.5t15 -38.5zM384 641q0 -23 -15 -39t-35 -16t-35 16t-15 39q0 22 15 38.5t35 16.5t35 -16.5t15 -38.5z" />
<glyph unicode="&#xe5;" horiz-adv-x="498" d="M316 107l3 125q-7 0 -20.5 -1t-45 -6.5t-56.5 -14.5t-45 -29.5t-20 -47.5q0 -29 20 -51.5t58 -22.5q35 0 66.5 15.5t39.5 32.5zM422 66q18 -36 69 -36v-18q-15 -9 -43.5 -17t-49.5 -8q-30 0 -49 23t-23 42t-4 33q-13 -43 -56.5 -70.5t-86.5 -27.5q-66 0 -101.5 38 t-35.5 91q0 70 58.5 110t143.5 40q33 0 75 -10q2 40 2 60q0 69 -19 107t-75 38q-34 0 -55.5 -21.5t-21.5 -49.5q0 -2 0.5 -5t0.5 -5q-14 -10 -34 -10t-34 12t-14 33q0 42 48.5 67t111.5 25q181 0 181 -143q0 -5 -0.5 -23t-1 -61t-0.5 -110q0 -74 14 -104zM257 738 q-41 0 -69 -25t-28 -65q0 -39 22.5 -61t53.5 -22q42 0 70.5 26t28.5 65q0 37 -23 59.5t-55 22.5zM249 593q-20 0 -34.5 17.5t-14.5 48.5q0 26 13 38.5t31 12.5q21 0 35.5 -16.5t14.5 -47.5q0 -27 -13.5 -40t-31.5 -13z" />
<glyph unicode="&#xe6;" horiz-adv-x="747" d="M708 292q-8 -5 -83.5 -11t-146.5 -10l-71 -4q8 -204 150 -204q44 0 86.5 23.5t69.5 64.5q4 -12 4 -24q0 -56 -61 -98t-134 -42q-132 0 -179 117q-64 -117 -162 -117q-66 0 -101.5 38t-35.5 91q0 151 278 172q1 14 1 30q0 71 -18 107t-76 36q-34 0 -55.5 -21.5 t-21.5 -49.5l1 -10q-14 -10 -34 -10t-34 12t-14 33q0 42 48.5 67t111.5 25q119 0 157 -72q18 33 57.5 52.5t81.5 19.5q44 0 78.5 -14.5t53 -35t30.5 -47.5t15.5 -47t3.5 -38v-33zM513 451q-86 0 -110 -153l217 30v3q-2 16 -6 31t-14 38t-32.5 37t-54.5 14zM212 59 q79 0 123 69q-11 34 -13 130q-16 -1 -44 -8.5t-62 -21.5t-58 -39.5t-24 -55.5q0 -29 20 -51.5t58 -22.5z" />
<glyph unicode="&#xe7;" horiz-adv-x="472" d="M353 386q-7 65 -91 65q-56 0 -91 -58t-35 -135q0 -79 39.5 -137t111.5 -58q44 0 86.5 23.5t69.5 64.5q4 -12 4 -24q0 -52 -53.5 -92.5t-122.5 -46.5q-4 -13 -4 -23t15.5 -16.5t33.5 -10.5t33.5 -20t15.5 -41q0 -46 -33.5 -79t-80.5 -33q-36 0 -57 13.5t-21 37.5 q0 11 4 22q21 -21 71 -21q24 0 40 10.5t16 27.5q0 13 -14 22t-30.5 14t-30.5 17.5t-14 29.5q0 29 28 49q-84 3 -140 62.5t-56 175.5q0 125 65 203.5t170 78.5q62 0 108.5 -22.5t46.5 -67.5q0 -18 -14 -31.5t-37 -13.5q-19 0 -33 14z" />
<glyph unicode="&#xe8;" horiz-adv-x="492" d="M438 281q-21 -12 -58 -12l-241 3q1 -15 1 -40q0 -79 41 -124t106 -45q44 0 86.5 23.5t69.5 64.5q4 -12 4 -24q0 -56 -61 -98t-134 -42q-86 0 -144.5 59.5t-60.5 178.5q0 122 58 202t152 80q41 0 73 -11t51 -31t31.5 -40.5t17.5 -46.5t6.5 -41.5t1.5 -32.5v-23zM243 451 q-45 0 -68 -35.5t-39 -103.5l214 4q0 54 -27.5 94.5t-79.5 40.5zM173 724h-60l39 -68q53 -91 135 -91q8 0 17 3.5t14.5 7t5.5 5.5q-31 10 -53 34.5t-32 48t-27 42t-39 18.5z" />
<glyph unicode="&#xe9;" horiz-adv-x="492" d="M322 724h60l-39 -68q-53 -91 -135 -91q-8 0 -17 3.5t-14.5 7t-5.5 5.5q31 10 53 34.5t32 48t27 42t39 18.5zM438 281q-21 -12 -58 -12l-241 3q1 -15 1 -40q0 -79 41 -124t106 -45q44 0 86.5 23.5t69.5 64.5q4 -12 4 -24q0 -56 -61 -98t-134 -42q-86 0 -144.5 59.5 t-60.5 178.5q0 122 58 202t152 80q41 0 73 -11t51 -31t31.5 -40.5t17.5 -46.5t6.5 -41.5t1.5 -32.5v-23zM243 451q-45 0 -68 -35.5t-39 -103.5l214 4q0 54 -27.5 94.5t-79.5 40.5z" />
<glyph unicode="&#xea;" horiz-adv-x="492" d="M438 281q-21 -12 -58 -12l-241 3q1 -15 1 -40q0 -79 41 -124t106 -45q44 0 86.5 23.5t69.5 64.5q4 -12 4 -24q0 -56 -61 -98t-134 -42q-86 0 -144.5 59.5t-60.5 178.5q0 122 58 202t152 80q41 0 73 -11t51 -31t31.5 -40.5t17.5 -46.5t6.5 -41.5t1.5 -32.5v-23zM243 451 q-45 0 -68 -35.5t-39 -103.5l214 4q0 54 -27.5 94.5t-79.5 40.5zM256 724h8q18 0 42 -33t51.5 -69t51.5 -41q0 -2 -5.5 -5.5t-14.5 -7t-17 -3.5q-38 0 -56.5 12.5t-42.5 46.5q-6 8 -11 21.5t-8 23.5l-2 10q-9 -38 -22 -55q-19 -29 -40 -44t-58 -15q-8 0 -17 3.5t-14.5 7 t-5.5 5.5q19 4 42 27.5t39.5 49t34 46t29.5 20.5h16z" />
<glyph unicode="&#xeb;" horiz-adv-x="492" d="M438 281q-21 -12 -58 -12l-241 3q1 -15 1 -40q0 -79 41 -124t106 -45q44 0 86.5 23.5t69.5 64.5q4 -12 4 -24q0 -56 -61 -98t-134 -42q-86 0 -144.5 59.5t-60.5 178.5q0 122 58 202t152 80q41 0 73 -11t51 -31t31.5 -40.5t17.5 -46.5t6.5 -41.5t1.5 -32.5v-23zM243 451 q-45 0 -68 -35.5t-39 -103.5l214 4q0 54 -27.5 94.5t-79.5 40.5zM209 641q0 -23 -15 -39t-35 -16t-35 16t-15 39q0 22 15 38.5t35 16.5t35 -16.5t15 -38.5zM393 641q0 -23 -15 -39t-35 -16t-35 16t-15 39q0 22 15 38.5t35 16.5t35 -16.5t15 -38.5z" />
<glyph unicode="&#xec;" horiz-adv-x="280" d="M193 0h-99v4l8 337q1 33 -3.5 57.5t-11.5 36t-14.5 18.5t-12.5 8l-6 1v18q41 25 89 25q33 0 43 -22t7 -62q-6 -119 -6 -346q0 -47 6 -75zM114 724h-60l39 -68q53 -91 135 -91q8 0 17 3.5t14.5 7t5.5 5.5q-31 10 -53 34.5t-32 48t-27 42t-39 18.5z" />
<glyph unicode="&#xed;" horiz-adv-x="280" d="M213 724h60l-39 -68q-53 -91 -135 -91q-8 0 -17 3.5t-14.5 7t-5.5 5.5q31 10 53 34.5t32 48t27 42t39 18.5zM193 0h-99v4l8 337q1 33 -3.5 57.5t-11.5 36t-14.5 18.5t-12.5 8l-6 1v18q41 25 89 25q33 0 43 -22t7 -62q-6 -119 -6 -346q0 -47 6 -75z" />
<glyph unicode="&#xee;" horiz-adv-x="280" d="M193 0h-99v4l8 337q1 33 -3.5 57.5t-11.5 36t-14.5 18.5t-12.5 8l-6 1v18q41 25 89 25q33 0 43 -22t7 -62q-6 -119 -6 -346q0 -47 6 -75zM215 724h8q18 0 42 -33t51.5 -69t51.5 -41q0 -2 -5.5 -5.5t-14.5 -7t-17 -3.5q-38 0 -56.5 12.5t-42.5 46.5q-6 8 -11 21.5t-7 23.5 l-3 10q-9 -38 -22 -55q-19 -29 -40 -44t-58 -15q-8 0 -17 3.5t-14.5 7t-5.5 5.5q19 4 42 27.5t39.5 49t34 46t29.5 20.5h16z" />
<glyph unicode="&#xef;" horiz-adv-x="280" d="M193 0h-99v4l8 337q1 33 -3.5 57.5t-11.5 36t-14.5 18.5t-12.5 8l-6 1v18q41 25 89 25q33 0 43 -22t7 -62q-6 -119 -6 -346q0 -47 6 -75zM154 641q0 -23 -15 -39t-35 -16t-35 16t-15 39q0 22 15 38.5t35 16.5t35 -16.5t15 -38.5zM338 641q0 -23 -15 -39t-35 -16t-35 16 t-15 39q0 22 15 38.5t35 16.5t35 -16.5t15 -38.5z" />
<glyph unicode="&#xf1;" horiz-adv-x="587" d="M507 0h-98q-3 24 -2 48l2 240q1 74 -16.5 106.5t-64.5 33.5q-83 0 -141 -68q0 -179 2 -285q0 -37 8 -75h-100v4l4 337q1 33 -4 57.5t-12.5 36t-15 18.5t-13.5 8l-5 1l-1 18q41 25 89 25q33 0 43.5 -22t7.5 -62l-5 -28q28 46 77 80t115 34q51 0 84.5 -35.5t35.5 -83.5 q0 -10 -1 -94.5t1 -170t10 -123.5zM127 606q37 27 63 25q16 -1 61 -16.5t78 -17.5q48 -3 86 17t47 63q-41 -29 -74 -27q-17 2 -63.5 16.5t-71.5 16.5q-47 3 -82.5 -16t-43.5 -61z" />
<glyph unicode="&#xf2;" d="M47 238q0 -10 1.5 -25t7 -47t20 -60.5t36.5 -56.5t60.5 -45t87.5 -17q106 0 176 79.5t70 190.5q0 121 -61 185.5t-151 64.5q-107 0 -177 -76.5t-70 -192.5zM145 280q0 66 29 121t84 55q62 0 105.5 -66t43.5 -165q0 -83 -34.5 -136t-85.5 -53q-61 0 -101.5 70.5 t-40.5 173.5zM196 724h-60l39 -68q53 -91 135 -91q8 0 17 3.5t14.5 7t5.5 5.5q-31 10 -53 34.5t-32 48t-27 42t-39 18.5z" />
<glyph unicode="&#xf3;" d="M47 238q0 -10 1.5 -25t7 -47t20 -60.5t36.5 -56.5t60.5 -45t87.5 -17q106 0 176 79.5t70 190.5q0 121 -61 185.5t-151 64.5q-107 0 -177 -76.5t-70 -192.5zM145 280q0 66 29 121t84 55q62 0 105.5 -66t43.5 -165q0 -83 -34.5 -136t-85.5 -53q-61 0 -101.5 70.5 t-40.5 173.5zM353 724h60l-39 -68q-53 -91 -135 -91q-8 0 -17 3.5t-14.5 7t-5.5 5.5q31 10 53 34.5t32 48t27 42t39 18.5z" />
<glyph unicode="&#xf4;" d="M47 238q0 -10 1.5 -25t7 -47t20 -60.5t36.5 -56.5t60.5 -45t87.5 -17q106 0 176 79.5t70 190.5q0 121 -61 185.5t-151 64.5q-107 0 -177 -76.5t-70 -192.5zM145 280q0 66 29 121t84 55q62 0 105.5 -66t43.5 -165q0 -83 -34.5 -136t-85.5 -53q-61 0 -101.5 70.5 t-40.5 173.5zM280 724h8q18 0 42 -33t51.5 -69t51.5 -41q0 -2 -5.5 -5.5t-14.5 -7t-17 -3.5q-38 0 -56.5 12.5t-42.5 46.5q-6 8 -11 21.5t-8 23.5l-2 10q-9 -38 -22 -55q-19 -29 -40 -44t-58 -15q-8 0 -17 3.5t-14.5 7t-5.5 5.5q19 4 42 27.5t39.5 49t34 46t29.5 20.5h16z " />
<glyph unicode="&#xf5;" d="M47 238q0 -10 1.5 -25t7 -47t20 -60.5t36.5 -56.5t60.5 -45t87.5 -17q106 0 176 79.5t70 190.5q0 121 -61 185.5t-151 64.5q-107 0 -177 -76.5t-70 -192.5zM145 280q0 66 29 121t84 55q62 0 105.5 -66t43.5 -165q0 -83 -34.5 -136t-85.5 -53q-61 0 -101.5 70.5 t-40.5 173.5zM109 606q37 27 63 25q16 -1 61 -16.5t78 -17.5q48 -3 86 17t47 63q-41 -29 -74 -27q-17 2 -63.5 16.5t-71.5 16.5q-47 3 -82.5 -16t-43.5 -61z" />
<glyph unicode="&#xf6;" d="M47 238q0 -10 1.5 -25t7 -47t20 -60.5t36.5 -56.5t60.5 -45t87.5 -17q106 0 176 79.5t70 190.5q0 121 -61 185.5t-151 64.5q-107 0 -177 -76.5t-70 -192.5zM145 280q0 66 29 121t84 55q62 0 105.5 -66t43.5 -165q0 -83 -34.5 -136t-85.5 -53q-61 0 -101.5 70.5 t-40.5 173.5zM225 641q0 -23 -15 -39t-35 -16t-35 16t-15 39q0 22 15 38.5t35 16.5t35 -16.5t15 -38.5zM409 641q0 -23 -15 -39t-35 -16t-35 16t-15 39q0 22 15 38.5t35 16.5t35 -16.5t15 -38.5z" />
<glyph unicode="&#xf7;" horiz-adv-x="489" d="M291 112q0 -24 -16.5 -40.5t-39.5 -16.5q-24 0 -40.5 16.5t-16.5 40.5q0 23 16.5 39.5t40.5 16.5q23 0 39.5 -16.5t16.5 -39.5zM291 400q0 -24 -16.5 -40.5t-39.5 -16.5q-24 0 -40.5 16.5t-16.5 40.5q0 23 16.5 39.5t40.5 16.5q23 0 39.5 -16.5t16.5 -39.5zM88 225v64 q0 -4 168 -4q128 0 139 8q-3 -21 -15 -35t-22 -20.5t-36 -9.5t-34 -3h-41q-13 0 -74 0.5t-67 0.5q-14 0 -18 -1z" />
<glyph unicode="&#xf8;" d="M63 1q19 21 46 50q55 -64 151 -64q106 0 176 79.5t70 190.5q0 92 -39 155l9 8q47 41 47 57q0 13 -31 32q-10 -12 -29.5 -35t-22.5 -27q-58 60 -146 60q-107 0 -177 -76.5t-70 -192.5q0 -82 37 -149q-15 -15 -27.5 -26.5t-18 -17l-9.5 -9.5zM287 36q-69 0 -109 84l212 214 q17 -49 17 -109q0 -83 -34.5 -136t-85.5 -53zM145 280q0 66 29 121t84 55q69 0 113 -79q-48 -49 -211 -212q-15 51 -15 115z" />
<glyph unicode="&#xf9;" horiz-adv-x="588" d="M94 106q0 43 2 135q3 135 -15 186q-5 14 -14 23t-16 11l-7 2v17q37 25 83 25q30 0 43.5 -16t15 -34t0.5 -70v-27l-1 -156q-1 -75 15 -105t63 -31q82 0 138 66q3 123 3 200q0 70 -13 99q-13 28 -37 34v17q41 23 77 23q42 0 52.5 -18t10.5 -84v-252q0 -20 1.5 -37 t5.5 -28.5t7.5 -20.5t10.5 -15t10.5 -9.5t12 -5.5t11.5 -3t12.5 -1.5t10.5 -0.5v-18q-10 -7 -38 -16t-51 -9q-78 0 -82 112q-28 -46 -76.5 -79t-115.5 -33q-51 0 -84.5 35.5t-34.5 83.5zM207 724h-60l39 -68q53 -91 135 -91q8 0 17 3.5t14.5 7t5.5 5.5q-31 10 -53 34.5 t-32 48t-27 42t-39 18.5z" />
<glyph unicode="&#xfa;" horiz-adv-x="588" d="M94 106q0 43 2 135q3 135 -15 186q-5 14 -14 23t-16 11l-7 2v17q37 25 83 25q30 0 43.5 -16t15 -34t0.5 -70v-27l-1 -156q-1 -75 15 -105t63 -31q82 0 138 66q3 123 3 200q0 70 -13 99q-13 28 -37 34v17q41 23 77 23q42 0 52.5 -18t10.5 -84v-252q0 -20 1.5 -37 t5.5 -28.5t7.5 -20.5t10.5 -15t10.5 -9.5t12 -5.5t11.5 -3t12.5 -1.5t10.5 -0.5v-18q-10 -7 -38 -16t-51 -9q-78 0 -82 112q-28 -46 -76.5 -79t-115.5 -33q-51 0 -84.5 35.5t-34.5 83.5zM364 724h60l-39 -68q-53 -91 -135 -91q-8 0 -17 3.5t-14.5 7t-5.5 5.5q31 10 53 34.5 t32 48t27 42t39 18.5z" />
<glyph unicode="&#xfb;" horiz-adv-x="588" d="M94 106q0 43 2 135q3 135 -15 186q-5 14 -14 23t-16 11l-7 2v17q37 25 83 25q30 0 43.5 -16t15 -34t0.5 -70v-27l-1 -156q-1 -75 15 -105t63 -31q82 0 138 66q3 123 3 200q0 70 -13 99q-13 28 -37 34v17q41 23 77 23q42 0 52.5 -18t10.5 -84v-252q0 -20 1.5 -37 t5.5 -28.5t7.5 -20.5t10.5 -15t10.5 -9.5t12 -5.5t11.5 -3t12.5 -1.5t10.5 -0.5v-18q-10 -7 -38 -16t-51 -9q-78 0 -82 112q-28 -46 -76.5 -79t-115.5 -33q-51 0 -84.5 35.5t-34.5 83.5zM284 724h8q18 0 42 -33t51.5 -69t51.5 -41q0 -2 -5.5 -5.5t-14.5 -7t-17 -3.5 q-38 0 -56.5 12.5t-42.5 46.5q-6 8 -11 21.5t-8 23.5l-2 10q-9 -38 -22 -55q-19 -29 -40 -44t-58 -15q-8 0 -17 3.5t-14.5 7t-5.5 5.5q19 4 42 27.5t39.5 49t34 46t29.5 20.5h16z" />
<glyph unicode="&#xfc;" horiz-adv-x="588" d="M94 106q0 43 2 135q3 135 -15 186q-5 14 -14 23t-16 11l-7 2v17q37 25 83 25q30 0 43.5 -16t15 -34t0.5 -70v-27l-1 -156q-1 -75 15 -105t63 -31q82 0 138 66q3 123 3 200q0 70 -13 99q-13 28 -37 34v17q41 23 77 23q42 0 52.5 -18t10.5 -84v-252q0 -20 1.5 -37 t5.5 -28.5t7.5 -20.5t10.5 -15t10.5 -9.5t12 -5.5t11.5 -3t12.5 -1.5t10.5 -0.5v-18q-10 -7 -38 -16t-51 -9q-78 0 -82 112q-28 -46 -76.5 -79t-115.5 -33q-51 0 -84.5 35.5t-34.5 83.5zM243 641q0 -23 -15 -39t-35 -16t-35 16t-15 39q0 22 15 38.5t35 16.5t35 -16.5 t15 -38.5zM427 641q0 -23 -15 -39t-35 -16t-35 16t-15 39q0 22 15 38.5t35 16.5t35 -16.5t15 -38.5z" />
<glyph unicode="&#xff;" horiz-adv-x="454" d="M159 439q11 -50 95 -288q13 -36 27 -65q2 17 21 67l79 208q14 34 14 63q0 28 -17 38v18q27 25 72 25q34 0 34 -34q0 -24 -25 -85l-204 -490q-16 -40 -22.5 -54.5t-22 -42t-29 -38t-35.5 -20t-50 -9.5q-42 0 -63 24t-21 62q0 14 1 21q5 -12 26.5 -19.5t44.5 -7.5 q80 0 103 56l46 110l13 23q-19 5 -35.5 20.5t-21.5 32.5l-90 282q-10 31 -23 55.5t-23.5 37t-22 20.5t-16.5 10t-8 3l-1 18q12 9 37.5 17t45.5 8q33 0 48 -15.5t23 -50.5zM226 641q0 -23 -15 -39t-35 -16t-35 16t-15 39q0 22 15 38.5t35 16.5t35 -16.5t15 -38.5zM410 641 q0 -23 -15 -39t-35 -16t-35 16t-15 39q0 22 15 38.5t35 16.5t35 -16.5t15 -38.5z" />
<glyph unicode="&#x131;" horiz-adv-x="280" d="M193 0h-99v4l8 337q1 33 -3.5 57.5t-11.5 36t-14.5 18.5t-12.5 8l-6 1v18q41 25 89 25q33 0 43 -22t7 -62q-6 -119 -6 -346q0 -47 6 -75z" />
<glyph unicode="&#x141;" horiz-adv-x="500" />
<glyph unicode="&#x152;" horiz-adv-x="845" d="M403 53h51v15v464q0 45 -7 73h-106q-70 0 -125.5 -68.5t-56.5 -175.5q-3 -130 69 -219t175 -89zM698 0h-341q-129 0 -218.5 80.5t-88.5 232.5q4 150 86 247.5t217 97.5h234l171 3q17 -17 20 -60.5t-7 -50.5h-19q-5 23 -34 38.5t-71 16.5l-85 3q-7 -119 -7 -244h157 q14 0 23 3t11 7l3 3q2 -8 2 -20q0 -20 -8 -32t-25 -16.5t-27 -5.5t-30 -1q-1 0 -25 0.5t-44 0.5h-38q-1 -98 3 -234q0 -2 2 -6h190q14 0 23 3.5t12 6.5l2 3q2 -8 2 -20q0 -16 -6.5 -27.5t-14.5 -16.5t-22.5 -8t-23 -3.5t-23.5 -0.5z" />
<glyph unicode="&#x153;" horiz-adv-x="840" d="M786 281q-21 -12 -58 -12l-243 3q2 -94 39 -151.5t111 -57.5q44 0 86.5 23.5t69.5 64.5q4 -12 4 -24q0 -56 -61 -98t-134 -42q-53 0 -99.5 23.5t-64.5 69.5q-23 -44 -73 -69t-107 -25q-85 0 -145.5 62t-62.5 183q-2 119 68 197.5t179 78.5t157 -91q23 44 63.5 67.5 t89.5 23.5q41 0 73 -11t51 -31t31.5 -40.5t17.5 -46.5t6.5 -41.5t1.5 -32.5v-23zM397 225q-2 101 -40 166t-99 65q-50 0 -82 -49.5t-31 -126.5q2 -104 41 -174t101 -70q49 0 80 52.5t30 136.5zM591 451q-83 0 -110 -139l217 4q0 54 -27.5 94.5t-79.5 40.5z" />
<glyph unicode="&#x178;" horiz-adv-x="491" d="M201 781q0 -23 -15 -39t-35 -16t-35 16t-15 39q0 22 15 38.5t35 16.5t35 -16.5t15 -38.5zM435 781q0 -23 -15 -39t-35 -16t-35 16t-15 39q0 22 15 38.5t35 16.5t35 -16.5t15 -38.5zM329 0h-109v16q0 41 0.5 98t0.5 73q0 97 -1 114q-7 7 -21 31l-96 168q-13 23 -28 51 t-21 39t-15 23.5t-16 18t-18 9.5l7 17q30 14 70 14q42 0 59 -18q22 -55 70 -147.5t75 -136.5q6 18 17 37l83 147q26 47 1 87l7 17q30 14 56 14q25 0 53 -14q0 -17 -19.5 -62.5t-38.5 -74.5l-123 -198q0 -17 -0.5 -69t-0.5 -82q0 -120 8 -172z" />
<glyph unicode="&#x192;" horiz-adv-x="483" d="M227 550q-14 -56 -63 -60l-10 -30l2 -1q3 -1 6.5 -2.5t8.5 -4.5t9.5 -8t8 -12t6 -17t2.5 -22q0 -7 -1 -27q-20 -567 -187 -567q-26 0 -42 15t-16 34q0 4 2 12q-12 3 -22 3q-22 0 -38 -11.5t-16 -28.5q0 -34 35.5 -54t78.5 -20q59 0 106 30.5t78 87t52 120t33.5 148 t18 151t9.5 147.5q3 0 32 -0.5t36 -0.5q85 0 85 72q-6 -12 -36 -12h-110q3 6 5 23l11 79q13 99 86 99q20 0 31 -12t12 -29q12 -6 27 -6q20 0 35 13.5t15 36.5q0 31 -27 45t-62 14q-60 0 -117 -48t-84 -157z" />
<glyph unicode="&#x2c6;" horiz-adv-x="402" d="M204 724h8q18 0 42 -33t51.5 -69t51.5 -41q0 -2 -5.5 -5.5t-14.5 -7t-17 -3.5q-38 0 -56.5 12.5t-42.5 46.5q-6 8 -11 21.5t-8 23.5l-2 10q-9 -38 -22 -55q-19 -29 -40 -44t-58 -15q-8 0 -17 3.5t-14.5 7t-5.5 5.5q19 4 42 27.5t39.5 49t34 46t29.5 20.5h16z" />
<glyph unicode="&#x2c7;" horiz-adv-x="402" />
<glyph unicode="&#x2d8;" horiz-adv-x="402" d="M203 609q36 0 65 43t42 90q14 -35 14 -68q0 -54 -37 -84.5t-87 -30.5q-49 0 -84.5 29t-35.5 81q0 33 16 72q8 -27 21 -54.5t37 -52.5t49 -25z" />
<glyph unicode="&#x2d9;" horiz-adv-x="186" d="M147 626q0 -22 -15.5 -38t-37.5 -16t-38 16t-16 38t16 37.5t38 15.5t37.5 -15.5t15.5 -37.5z" />
<glyph unicode="&#x2da;" horiz-adv-x="520" d="M265 738q-41 0 -69 -25t-28 -65q0 -39 22.5 -61t53.5 -22q42 0 70.5 26t28.5 65q0 37 -23 59.5t-55 22.5zM257 593q-20 0 -34.5 17.5t-14.5 48.5q0 26 13 38.5t31 12.5q21 0 35.5 -16.5t14.5 -47.5q0 -27 -13.5 -40t-31.5 -13z" />
<glyph unicode="&#x2db;" horiz-adv-x="276" />
<glyph unicode="&#x2dc;" horiz-adv-x="380" d="M25 606q37 27 63 25q16 -1 61 -16.5t78 -17.5q48 -3 86 17t47 63q-41 -29 -74 -27q-17 2 -63.5 16.5t-71.5 16.5q-47 3 -82.5 -16t-43.5 -61z" />
<glyph unicode="&#x2dd;" horiz-adv-x="585" />
<glyph unicode="&#x394;" horiz-adv-x="669" />
<glyph unicode="&#x3a9;" horiz-adv-x="368" />
<glyph unicode="&#x3c0;" horiz-adv-x="424" />
<glyph unicode="&#x2013;" horiz-adv-x="452" d="M29 214v64q0 -4 258 -4q128 0 139 8q-3 -21 -15 -35t-22 -20.5t-36 -9.5t-34 -3h-41q-13 0 -119 0.5t-112 0.5q-14 0 -18 -1z" />
<glyph unicode="&#x2014;" horiz-adv-x="679" d="M26 214v64q0 -4 488 -4q128 0 139 8q-3 -21 -15 -35t-22 -20.5t-36 -9.5t-34 -3h-41q-13 0 -234 0.5t-227 0.5q-14 0 -18 -1z" />
<glyph unicode="&#x2018;" horiz-adv-x="221" d="M167 753l18 -24q-66 -63 -66 -110q0 -44 29 -44q3 -24 -13 -42t-38 -18q-57 0 -57 64q0 39 33.5 87t93.5 87z" />
<glyph unicode="&#x2019;" horiz-adv-x="221" d="M52 515l-18 24q66 63 66 110q0 44 -29 44q-3 24 13 42t38 18q57 0 57 -64q0 -39 -33.5 -87t-93.5 -87z" />
<glyph unicode="&#x201a;" horiz-adv-x="221" d="M52 -144l-18 24q66 63 66 110q0 44 -29 44q-3 24 13 42t38 18q57 0 57 -64q0 -39 -33.5 -87t-93.5 -87z" />
<glyph unicode="&#x201c;" horiz-adv-x="397" d="M343 753l18 -24q-66 -63 -66 -110q0 -44 29 -44q3 -24 -13 -42t-38 -18q-57 0 -57 64q0 39 33.5 87t93.5 87zM168 753l18 -24q-66 -63 -66 -110q0 -44 29 -44q3 -24 -13 -42t-38 -18q-57 0 -57 64q0 39 33.5 87t93.5 87z" />
<glyph unicode="&#x201d;" horiz-adv-x="397" d="M52 515l-18 24q66 63 66 110q0 44 -29 44q-3 24 13 42t38 18q57 0 57 -64q0 -39 -33.5 -87t-93.5 -87zM227 515l-18 24q66 63 66 110q0 44 -29 44q-3 24 13 42t38 18q57 0 57 -64q0 -39 -33.5 -87t-93.5 -87z" />
<glyph unicode="&#x201e;" horiz-adv-x="397" d="M54 -144l-18 24q66 63 66 110q0 44 -29 44q-3 24 13 42t38 18q57 0 57 -64q0 -39 -33.5 -87t-93.5 -87zM229 -144l-18 24q66 63 66 110q0 44 -29 44q-3 24 13 42t38 18q57 0 57 -64q0 -39 -33.5 -87t-93.5 -87z" />
<glyph unicode="&#x2020;" horiz-adv-x="487" d="M265 -81q3 -61 -7 -104t-22 -56l-12 -13q-5 6 -13 18t-20.5 56t-11.5 96q7 191 7 332q0 89 -2 183q-48 1 -106 1q-14 0 -18 -1v64q0 -4 123 -4q0 3 -10 151q23 5 37 5q60 0 60 -80q0 -2 -0.5 -12t-1.5 -28t-1 -36h21q128 0 139 8q-3 -21 -15 -35t-22 -20.5t-36 -9.5 t-34 -3h-41h-14q-5 -113 -5 -237q-1 -99 5 -275z" />
<glyph unicode="&#x2021;" horiz-adv-x="497" d="M60 -1v64q0 -4 133 -4q1 3 1 9q2 118 2 180q0 89 -2 183q-48 1 -106 1q-14 0 -18 -1v64q0 -4 123 -4q0 3 -10 151q22 5 37 5q60 0 60 -80q0 -2 -0.5 -12t-1.5 -28t-1 -36h21q128 0 139 8q-3 -21 -15 -35t-22 -20.5t-36 -9.5t-34 -3h-41h-14q-5 -113 -5 -237 q-2 -74 0 -135h18q128 0 139 8q-3 -21 -15 -35t-22 -20.5t-36 -9.5t-34 -3h-41h-7q2 -48 3 -80q3 -61 -7 -104t-22 -56l-12 -13q-5 6 -13 18t-20.5 56t-11.5 96q1 11 1.5 34.5t0.5 35.5q1 5 1 14h-114q-14 0 -18 -1z" />
<glyph unicode="&#x2022;" horiz-adv-x="424" d="M211 370q51 0 87.5 -36t36.5 -87q0 -52 -36.5 -88t-87.5 -36q-52 0 -88 36t-36 88q0 51 36 87t88 36z" />
<glyph unicode="&#x2026;" horiz-adv-x="663" d="M184 41q0 -22 -15.5 -38t-37.5 -16q-23 0 -38.5 15.5t-15.5 38.5q0 22 16 37.5t38 15.5t37.5 -15.5t15.5 -37.5zM389 41q0 -22 -15.5 -38t-37.5 -16t-38 15.5t-16 38.5q0 22 16 37.5t38 15.5t37.5 -15.5t15.5 -37.5zM589 41q0 -22 -15.5 -38t-37.5 -16t-38 15.5t-16 38.5 q0 22 16 37.5t38 15.5t37.5 -15.5t15.5 -37.5z" />
<glyph unicode="&#x2030;" horiz-adv-x="1160" d="M211 0h-71q258 368 348 501.5t92 157.5q19 15 40 15q30 0 30 -20q0 -9 -6 -22t-12.5 -22.5t-16.5 -23t-12 -15.5q-2 -3 -90.5 -128.5t-180.5 -259t-121 -183.5zM610 323q-76 0 -123 -48t-47 -125q0 -79 37.5 -120t94.5 -41q76 0 124 50t50 124q0 76 -38.5 118t-97.5 42z M596 29q-42 0 -65.5 38.5t-23.5 103.5q0 51 21.5 81t57.5 30q44 0 69.5 -37t25.5 -100q0 -52 -24.5 -84t-60.5 -32zM235 673q-76 0 -123 -48t-47 -125q0 -79 37.5 -120t94.5 -41q76 0 124 50t50 124q0 76 -38.5 118t-97.5 42zM221 379q-42 0 -65.5 38.5t-23.5 103.5 q0 51 21.5 81t57.5 30q44 0 69.5 -37t25.5 -100q0 -52 -24.5 -84t-60.5 -32zM962 323q-76 0 -123 -48t-47 -125q0 -79 37.5 -120t94.5 -41q76 0 124 50t50 124q0 76 -38.5 118t-97.5 42zM948 29q-42 0 -65.5 38.5t-23.5 103.5q0 51 21.5 81t57.5 30q44 0 69.5 -37t25.5 -100 q0 -52 -24.5 -84t-60.5 -32z" />
<glyph unicode="&#x2039;" horiz-adv-x="369" d="M39 247q11 10 20 20l131 156q75 90 132 44q-9 -3 -20.5 -13.5t-19.5 -19.5l-7 -8l-111 -148q-5 -8 -13.5 -15.5t-14.5 -11.5l-5 -4q21 -14 33 -31l111 -148q27 -34 47 -41q-57 -46 -132 44l-131 156z" />
<glyph unicode="&#x203a;" horiz-adv-x="369" d="M323 247q-11 10 -20 20l-131 156q-75 90 -132 44q9 -3 20.5 -13.5t19.5 -19.5l7 -8l111 -148q5 -8 13.5 -15.5t14.5 -11.5l5 -4q-21 -14 -33 -31l-111 -148q-27 -34 -47 -41q57 -46 132 44l131 156z" />
<glyph unicode="&#x2044;" horiz-adv-x="510" d="M68 0h-71q258 368 348 501.5t92 157.5q19 15 40 15q30 0 30 -20q0 -9 -6 -22t-12.5 -22.5t-16.5 -23t-12 -15.5q-2 -3 -90.5 -128.5t-180.5 -259t-121 -183.5z" />
<glyph unicode="&#x20ac;" horiz-adv-x="578" d="M12 357l12 64q0 -3 62 -3q27 115 111 183.5t202 68.5q92 0 132.5 -33t4.5 -85q-2 19 -44.5 38.5t-104.5 19.5q-85 0 -145 -55t-78 -138h188q128 0 139 8q-3 -21 -15 -35t-22 -20.5t-36 -9.5t-34 -3h-41h-185q0 -35 5 -80h129q128 0 139 8q-3 -21 -15 -35t-22 -20.5 t-36 -9.5t-34 -3h-41h-108q50 -173 225 -173q26 0 69 13.5t72 44.5q1 -57 -45.5 -86.5t-126.5 -29.5q-115 0 -188.5 62t-96.5 170h-52q-14 0 -18 -1l10 64q14 -2 51 -2q-1 12 -1 36q0 29 2 43h-46q-14 0 -18 -1z" />
<glyph unicode="&#x2122;" horiz-adv-x="802" d="M768 335h-73q-3 16 -2 95.5t1 95.5q2 45 -8.5 64.5t-38.5 19.5q-46 0 -80 -32q0 -6 -1 -41.5t-1 -60.5q0 -101 9 -141h-73q-1 16 -1 191q0 46 -10 65t-37 19q-50 0 -86 -41q0 -114 2 -181q0 -11 6 -53h-76l4 224q0 31 -8.5 49t-16.5 20l-9 3v20q31 18 63 18q42 0 37 -57 q47 59 115 59q30 0 51 -16.5t29 -42.5q45 59 115 59q35 0 58 -24t24 -57v-43q0 -11 -0.5 -39.5t-0.5 -44.5q0 -96 8 -128zM142 714l-8 -53h63q13 0 22 3.5t11 6.5l3 3q8 -26 -6.5 -44t-45.5 -18q-2 0 -22 1t-25 0q0 -32 -0.5 -74.5t-0.5 -67.5q0 -23 0.5 -32t3.5 -23 t11 -19.5t21 -7.5q19 -2 42 6t28 16q6 -32 -16.5 -58.5t-64.5 -26.5q-53 0 -72 26t-19 80q0 22 2 67.5t2 66.5q0 38 -6 45q-15 20 -30 20l2 30q34 0 65 53h40z" />
<glyph unicode="&#x2202;" horiz-adv-x="12" d="M12 694v-694h-12v694h12z" />
<glyph unicode="&#x220f;" horiz-adv-x="424" />
<glyph unicode="&#x2211;" horiz-adv-x="474" />
<glyph unicode="&#x221a;" horiz-adv-x="225" />
<glyph unicode="&#x221e;" horiz-adv-x="619" />
<glyph unicode="&#x222b;" horiz-adv-x="330" />
<glyph unicode="&#x2248;" horiz-adv-x="669" />
<glyph unicode="&#x2260;" horiz-adv-x="480" />
<glyph unicode="&#x2264;" horiz-adv-x="225" />
<glyph unicode="&#x2265;" horiz-adv-x="225" />
<glyph unicode="&#x25ca;" horiz-adv-x="476" />
<glyph unicode="&#x25fc;" horiz-adv-x="505" d="M0 505h505v-505h-505v505z" />
<glyph unicode="&#xf8ff;" horiz-adv-x="691" d="M71 0v492h551v-492h-551zM244 195l-100 94v-229l402 2v227l-101 -94l-100 97zM231 378q0 22 -15.5 37.5t-37.5 15.5t-38 -15.5t-16 -37.5t16 -38t38 -16t37.5 16t15.5 38zM401 378q0 22 -15.5 37.5t-37.5 15.5t-38 -15.5t-16 -37.5t16 -38t38 -16t37.5 16t15.5 38z M573 378q0 22 -15.5 37.5t-37.5 15.5t-38 -15.5t-16 -37.5t16 -38t38 -16t37.5 16t15.5 38z" />
<glyph unicode="&#xfb01;" horiz-adv-x="593" d="M518 0h-99v4l8 337q1 33 -3.5 57.5t-11.5 36t-14.5 18.5t-13.5 8l-5 1v18q41 25 89 25q33 0 43 -22t7 -62q-6 -119 -6 -346q0 -47 6 -75zM198 0h-102v14q0 2 1 49.5t2 109.5t1 100q0 132 -13 151q-10 14 -20.5 23t-16.5 11l-6 2l5 30q5 1 13 3t21.5 13.5t14.5 30.5 q2 27 9.5 54t25 57.5t43 53t67.5 37.5t95 15t105 -28t52 -73q0 -29 -17.5 -43.5t-39.5 -12.5t-38 15l2 17q-2 24 -30.5 46t-71.5 22q-53 0 -84 -35t-31 -86q0 -70 -3 -84h75q13 0 22 3t11 6l2 3q2 -8 2 -19q0 -15 -5.5 -26t-18 -16.5t-21.5 -8.5t-26.5 -3h-22t-18.5 1v-73 q0 -288 16 -359z" />
<glyph unicode="&#xfb02;" horiz-adv-x="608" d="M527 0h-100v15v605q0 15 -2 25q-18 18 -54 35t-70 17q-53 0 -84 -35t-31 -86q0 -70 -3 -84h97q13 0 22 3t11 6l2 3q2 -8 2 -19q0 -20 -10.5 -32.5t-30 -16.5t-33.5 -5.5t-36.5 0t-23.5 1.5v-73q0 -288 16 -359h-102v14q0 2 1 49.5t2 109.5t1 100q0 132 -13 151 q-10 14 -20.5 23t-16.5 11l-6 2l5 30q5 1 13 3t21.5 13.5t14.5 30.5q2 27 9.5 54t25 57.5t43 53t67.5 37.5t95 15q87 0 159 -35q12 -6 18.5 -12t8.5 -19t2 -21.5t-2 -33.5t-3 -40q-6 -122 -5.5 -288t4.5 -263q1 -13 6 -42z" />
<glyph unicode="&#xfb03;" horiz-adv-x="936" d="M529 0h-102v14q0 2 1 49.5t2 109.5t1 100q0 132 -13 151q-10 14 -20.5 23t-16.5 11l-6 2l5 30q5 1 13 3t21.5 13.5t14.5 30.5q4 43 18 81q-15 26 -53.5 41.5t-81.5 15.5q-53 0 -89.5 -25t-36.5 -74q0 -70 -3 -84h65q13 0 22 3t11 6l2 3q2 -8 2 -19q0 -22 -13 -34.5 t-27 -14.5t-36 -2.5t-26 -1.5v-73q0 -288 16 -359h-102v14q0 2 1 49.5t2 109.5t1 100q0 132 -13 151q-10 14 -20.5 23t-16.5 11l-6 2l5 30q5 1 13 3t21.5 13.5t14.5 30.5q3 36 13 66.5t32 61t65 48.5t103 18q109 0 161 -66q64 89 196 89q53 0 105 -28t52 -73q0 -28 -15 -42 t-37 -14q-25 0 -43 15q2 5 2 13q0 25 -28 48.5t-74 23.5q-53 0 -84 -35t-31 -86q0 -70 -3 -84h75q13 0 22 3t11 6l2 3q2 -8 2 -19q0 -54 -80 -54q-7 0 -18 0.5t-14 0.5q0 -361 16 -432zM849 0h-99l8 341q0 33 -5 57.5t-11 36t-14 18.5t-12 8t-6 1v18q41 25 89 25 q51 0 51 -65q0 -7 -1 -8q-6 -10 -6 -357q0 -47 6 -75z" />
<glyph unicode="&#xfb06;" horiz-adv-x="793" d="M461 462l5 30q44 0 89 71q24 37 24 72q0 37 -28 61t-80 24q-68 0 -110 -39.5t-42 -114.5q0 -32 13 -80.5t13 -73.5q0 -24 -12 -41l-18 4q-27 84 -111 84q-38 0 -61 -18.5t-23 -44.5q0 -25 19 -45t48 -32.5t62.5 -29.5t62.5 -34t48 -47t19 -69q0 -67 -49.5 -109.5 t-129.5 -42.5q-58 0 -105 31t-47 72q0 18 10 35q6 -28 53 -54t90 -26q40 0 68 17t28 54q0 24 -26 44t-63 36.5t-74 36.5t-63 52.5t-26 74.5q0 61 48 104t119 43q52 0 73 -15q-11 32 -11 67q0 81 59.5 136t136.5 55q71 0 121 -36.5t50 -100.5q0 -57 -42 -121h122q13 0 22 3 t11 6l2 3q2 -8 2 -19q0 -25 -22.5 -39.5t-54.5 -14.5q-9 0 -33 1t-34 1q-11 0 -14 -1l-1 -254q0 -56 15 -83t64 -27q29 0 59 9.5t34 18.5q6 -9 6 -21q0 -31 -39.5 -59.5t-92.5 -28.5q-80 0 -107 39t-27 123q0 27 3 98.5t3 103.5q0 63 -10 77q-5 7 -10 12t-9.5 8.5t-8.5 6 t-7.5 4t-6 2.5t-3.5 1h-1z" />
<glyph horiz-adv-x="200" />
<glyph horiz-adv-x="849" d="M517 462l5 30q44 0 89 71q40 59 16 108t-100 49q-73 0 -118.5 -45.5t-45.5 -131.5q0 -26 8 -50q66 -24 66 -76q0 -18 -14 -31.5t-37 -13.5q-19 0 -33 14q-7 65 -91 65q-56 0 -91 -58t-35 -135q0 -79 39.5 -137t111.5 -58q44 0 86.5 23.5t69.5 64.5q4 -12 4 -24 q0 -56 -61 -98t-134 -42q-87 0 -146 60t-59 178q0 125 65 203.5t170 78.5q21 0 42 -3q-3 15 -3 33q0 102 62.5 157.5t142.5 55.5q71 0 121 -36.5t50 -100.5q0 -57 -42 -121h122q13 0 22 3t11 6l2 3q2 -8 2 -19q0 -25 -22.5 -39.5t-54.5 -14.5q-9 0 -33 1t-34 1q-11 0 -14 -1 l-1 -254q0 -56 15 -83t64 -27q29 0 59 9.5t34 18.5q6 -9 6 -21q0 -31 -39.5 -59.5t-92.5 -28.5q-80 0 -107 39t-27 123q0 27 3 98.5t3 103.5q0 63 -10 77q-5 7 -10 12t-9.5 8.5t-8.5 6t-7.5 4t-6 2.5t-3.5 1h-1z" />
<glyph horiz-adv-x="579" />
<glyph horiz-adv-x="1035" />
</font>
</defs>
</svg>
